%TF.GenerationSoftware,KiCad,Pcbnew,(6.0.7)*%
%TF.CreationDate,2022-10-18T10:08:25+03:00*%
%TF.ProjectId,TL-Node Rev.0,544c2d4e-6f64-4652-9052-65762e302e6b,rev?*%
%TF.SameCoordinates,Original*%
%TF.FileFunction,Soldermask,Top*%
%TF.FilePolarity,Negative*%
%FSLAX46Y46*%
G04 Gerber Fmt 4.6, Leading zero omitted, Abs format (unit mm)*
G04 Created by KiCad (PCBNEW (6.0.7)) date 2022-10-18 10:08:25*
%MOMM*%
%LPD*%
G01*
G04 APERTURE LIST*
G04 Aperture macros list*
%AMRoundRect*
0 Rectangle with rounded corners*
0 $1 Rounding radius*
0 $2 $3 $4 $5 $6 $7 $8 $9 X,Y pos of 4 corners*
0 Add a 4 corners polygon primitive as box body*
4,1,4,$2,$3,$4,$5,$6,$7,$8,$9,$2,$3,0*
0 Add four circle primitives for the rounded corners*
1,1,$1+$1,$2,$3*
1,1,$1+$1,$4,$5*
1,1,$1+$1,$6,$7*
1,1,$1+$1,$8,$9*
0 Add four rect primitives between the rounded corners*
20,1,$1+$1,$2,$3,$4,$5,0*
20,1,$1+$1,$4,$5,$6,$7,0*
20,1,$1+$1,$6,$7,$8,$9,0*
20,1,$1+$1,$8,$9,$2,$3,0*%
G04 Aperture macros list end*
%ADD10C,0.200000*%
%ADD11RoundRect,0.135000X-0.135000X-0.185000X0.135000X-0.185000X0.135000X0.185000X-0.135000X0.185000X0*%
%ADD12RoundRect,0.135000X0.135000X0.185000X-0.135000X0.185000X-0.135000X-0.185000X0.135000X-0.185000X0*%
%ADD13RoundRect,0.060000X0.602500X0.240000X-0.602500X0.240000X-0.602500X-0.240000X0.602500X-0.240000X0*%
%ADD14RoundRect,0.225000X-0.225000X-0.250000X0.225000X-0.250000X0.225000X0.250000X-0.225000X0.250000X0*%
%ADD15RoundRect,0.225000X0.250000X-0.225000X0.250000X0.225000X-0.250000X0.225000X-0.250000X-0.225000X0*%
%ADD16RoundRect,0.060000X-0.715000X0.240000X-0.715000X-0.240000X0.715000X-0.240000X0.715000X0.240000X0*%
%ADD17RoundRect,0.120000X-0.780000X0.480000X-0.780000X-0.480000X0.780000X-0.480000X0.780000X0.480000X0*%
%ADD18RoundRect,0.150000X0.150000X-0.587500X0.150000X0.587500X-0.150000X0.587500X-0.150000X-0.587500X0*%
%ADD19RoundRect,0.150000X-0.625000X0.150000X-0.625000X-0.150000X0.625000X-0.150000X0.625000X0.150000X0*%
%ADD20RoundRect,0.250000X-0.650000X0.350000X-0.650000X-0.350000X0.650000X-0.350000X0.650000X0.350000X0*%
%ADD21RoundRect,0.135000X-0.185000X0.135000X-0.185000X-0.135000X0.185000X-0.135000X0.185000X0.135000X0*%
%ADD22RoundRect,0.250000X-1.500000X0.250000X-1.500000X-0.250000X1.500000X-0.250000X1.500000X0.250000X0*%
%ADD23RoundRect,0.250001X-1.449999X0.499999X-1.449999X-0.499999X1.449999X-0.499999X1.449999X0.499999X0*%
%ADD24RoundRect,0.140000X0.140000X0.170000X-0.140000X0.170000X-0.140000X-0.170000X0.140000X-0.170000X0*%
%ADD25C,0.800000*%
%ADD26C,6.000000*%
%ADD27R,1.100000X1.100000*%
%ADD28RoundRect,0.135000X0.185000X-0.135000X0.185000X0.135000X-0.185000X0.135000X-0.185000X-0.135000X0*%
%ADD29RoundRect,0.225000X-0.250000X0.225000X-0.250000X-0.225000X0.250000X-0.225000X0.250000X0.225000X0*%
%ADD30RoundRect,0.234375X-1.465625X0.515625X-1.465625X-0.515625X1.465625X-0.515625X1.465625X0.515625X0*%
%ADD31RoundRect,0.249100X1.125900X1.075900X-1.125900X1.075900X-1.125900X-1.075900X1.125900X-1.075900X0*%
%ADD32RoundRect,0.075000X0.350000X0.075000X-0.350000X0.075000X-0.350000X-0.075000X0.350000X-0.075000X0*%
%ADD33RoundRect,0.075000X-0.075000X0.350000X-0.075000X-0.350000X0.075000X-0.350000X0.075000X0.350000X0*%
%ADD34RoundRect,0.090000X-0.660000X-0.360000X0.660000X-0.360000X0.660000X0.360000X-0.660000X0.360000X0*%
%ADD35RoundRect,0.090500X-0.659500X-0.362000X0.659500X-0.362000X0.659500X0.362000X-0.659500X0.362000X0*%
%ADD36RoundRect,0.100000X0.000000X-0.565685X0.565685X0.000000X0.000000X0.565685X-0.565685X0.000000X0*%
%ADD37RoundRect,0.140000X-0.140000X-0.170000X0.140000X-0.170000X0.140000X0.170000X-0.140000X0.170000X0*%
%ADD38RoundRect,0.140000X0.170000X-0.140000X0.170000X0.140000X-0.170000X0.140000X-0.170000X-0.140000X0*%
%ADD39RoundRect,0.140000X-0.170000X0.140000X-0.170000X-0.140000X0.170000X-0.140000X0.170000X0.140000X0*%
%ADD40R,2.000000X2.000000*%
%ADD41RoundRect,0.250000X1.500000X-0.250000X1.500000X0.250000X-1.500000X0.250000X-1.500000X-0.250000X0*%
%ADD42RoundRect,0.250001X1.449999X-0.499999X1.449999X0.499999X-1.449999X0.499999X-1.449999X-0.499999X0*%
%ADD43RoundRect,0.060000X-0.602500X-0.240000X0.602500X-0.240000X0.602500X0.240000X-0.602500X0.240000X0*%
%ADD44R,0.800000X1.000000*%
%ADD45C,0.900000*%
%ADD46R,1.500000X0.700000*%
%ADD47C,3.200000*%
%ADD48R,3.500000X3.500000*%
%ADD49C,3.500000*%
G04 APERTURE END LIST*
D10*
X122535714Y-129565476D02*
X123250000Y-129565476D01*
X122892857Y-130815476D02*
X122892857Y-129565476D01*
X124261904Y-130815476D02*
X123666666Y-130815476D01*
X123666666Y-129565476D01*
X124678571Y-130339285D02*
X125630952Y-130339285D01*
X126226190Y-130815476D02*
X126226190Y-129565476D01*
X126940476Y-130815476D01*
X126940476Y-129565476D01*
X127714285Y-130815476D02*
X127595238Y-130755952D01*
X127535714Y-130696428D01*
X127476190Y-130577380D01*
X127476190Y-130220238D01*
X127535714Y-130101190D01*
X127595238Y-130041666D01*
X127714285Y-129982142D01*
X127892857Y-129982142D01*
X128011904Y-130041666D01*
X128071428Y-130101190D01*
X128130952Y-130220238D01*
X128130952Y-130577380D01*
X128071428Y-130696428D01*
X128011904Y-130755952D01*
X127892857Y-130815476D01*
X127714285Y-130815476D01*
X129202380Y-130815476D02*
X129202380Y-129565476D01*
X129202380Y-130755952D02*
X129083333Y-130815476D01*
X128845238Y-130815476D01*
X128726190Y-130755952D01*
X128666666Y-130696428D01*
X128607142Y-130577380D01*
X128607142Y-130220238D01*
X128666666Y-130101190D01*
X128726190Y-130041666D01*
X128845238Y-129982142D01*
X129083333Y-129982142D01*
X129202380Y-130041666D01*
X130273809Y-130755952D02*
X130154761Y-130815476D01*
X129916666Y-130815476D01*
X129797619Y-130755952D01*
X129738095Y-130636904D01*
X129738095Y-130160714D01*
X129797619Y-130041666D01*
X129916666Y-129982142D01*
X130154761Y-129982142D01*
X130273809Y-130041666D01*
X130333333Y-130160714D01*
X130333333Y-130279761D01*
X129738095Y-130398809D01*
X132535714Y-130815476D02*
X132119047Y-130220238D01*
X131821428Y-130815476D02*
X131821428Y-129565476D01*
X132297619Y-129565476D01*
X132416666Y-129625000D01*
X132476190Y-129684523D01*
X132535714Y-129803571D01*
X132535714Y-129982142D01*
X132476190Y-130101190D01*
X132416666Y-130160714D01*
X132297619Y-130220238D01*
X131821428Y-130220238D01*
X133547619Y-130755952D02*
X133428571Y-130815476D01*
X133190476Y-130815476D01*
X133071428Y-130755952D01*
X133011904Y-130636904D01*
X133011904Y-130160714D01*
X133071428Y-130041666D01*
X133190476Y-129982142D01*
X133428571Y-129982142D01*
X133547619Y-130041666D01*
X133607142Y-130160714D01*
X133607142Y-130279761D01*
X133011904Y-130398809D01*
X134023809Y-129982142D02*
X134321428Y-130815476D01*
X134619047Y-129982142D01*
X135095238Y-130696428D02*
X135154761Y-130755952D01*
X135095238Y-130815476D01*
X135035714Y-130755952D01*
X135095238Y-130696428D01*
X135095238Y-130815476D01*
X135928571Y-129565476D02*
X136047619Y-129565476D01*
X136166666Y-129625000D01*
X136226190Y-129684523D01*
X136285714Y-129803571D01*
X136345238Y-130041666D01*
X136345238Y-130339285D01*
X136285714Y-130577380D01*
X136226190Y-130696428D01*
X136166666Y-130755952D01*
X136047619Y-130815476D01*
X135928571Y-130815476D01*
X135809523Y-130755952D01*
X135750000Y-130696428D01*
X135690476Y-130577380D01*
X135630952Y-130339285D01*
X135630952Y-130041666D01*
X135690476Y-129803571D01*
X135750000Y-129684523D01*
X135809523Y-129625000D01*
X135928571Y-129565476D01*
%TO.C,G\u002A\u002A\u002A*%
G36*
X78770929Y-130514592D02*
G01*
X78796430Y-130538604D01*
X78816670Y-130561292D01*
X78850484Y-130538604D01*
X78919131Y-130507721D01*
X79009581Y-130504177D01*
X79088743Y-130529180D01*
X79112949Y-130567200D01*
X79091528Y-130607783D01*
X79037519Y-130638226D01*
X78968604Y-130646237D01*
X78888973Y-130649654D01*
X78835939Y-130680180D01*
X78804646Y-130746613D01*
X78790237Y-130857754D01*
X78787590Y-130974236D01*
X78786869Y-131097906D01*
X78782300Y-131173045D01*
X78770277Y-131211742D01*
X78747192Y-131226084D01*
X78711814Y-131228162D01*
X78636039Y-131228162D01*
X78636039Y-130500716D01*
X78709288Y-130500716D01*
X78770929Y-130514592D01*
G37*
G36*
X81960772Y-129334280D02*
G01*
X81976668Y-129353272D01*
X82000338Y-129372770D01*
X82052977Y-129353272D01*
X82142298Y-129322267D01*
X82220462Y-129322837D01*
X82273855Y-129350279D01*
X82288862Y-129399894D01*
X82278016Y-129430990D01*
X82229634Y-129475744D01*
X82161223Y-129479441D01*
X82085849Y-129476667D01*
X82034804Y-129497556D01*
X82002833Y-129551209D01*
X81984681Y-129646727D01*
X81975094Y-129793212D01*
X81974729Y-129802455D01*
X81968439Y-129932949D01*
X81959976Y-130014183D01*
X81946511Y-130057517D01*
X81925217Y-130074309D01*
X81906531Y-130076372D01*
X81882589Y-130072239D01*
X81866373Y-130053306D01*
X81856392Y-130009770D01*
X81851156Y-129931829D01*
X81849175Y-129809680D01*
X81848926Y-129697494D01*
X81849542Y-129540069D01*
X81852391Y-129433448D01*
X81858978Y-129367822D01*
X81870808Y-129333377D01*
X81889384Y-129320305D01*
X81907021Y-129318616D01*
X81960772Y-129334280D01*
G37*
G36*
X79032561Y-129339669D02*
G01*
X79111735Y-129391703D01*
X79150728Y-129428076D01*
X79175511Y-129465480D01*
X79189299Y-129517951D01*
X79195309Y-129599526D01*
X79196754Y-129724240D01*
X79196778Y-129763003D01*
X79196049Y-129899544D01*
X79192160Y-129986980D01*
X79182563Y-130036821D01*
X79164706Y-130060581D01*
X79136041Y-130069771D01*
X79128580Y-130070903D01*
X79096108Y-130072682D01*
X79076025Y-130059224D01*
X79065358Y-130019234D01*
X79061135Y-129941414D01*
X79060382Y-129814468D01*
X79060382Y-129811750D01*
X79056925Y-129662011D01*
X79043549Y-129562818D01*
X79015748Y-129504338D01*
X78969016Y-129476739D01*
X78903835Y-129470167D01*
X78839742Y-129482014D01*
X78796534Y-129523209D01*
X78770775Y-129602232D01*
X78759030Y-129727561D01*
X78757280Y-129831898D01*
X78756069Y-129953231D01*
X78750392Y-130026133D01*
X78737185Y-130062773D01*
X78713381Y-130075325D01*
X78695708Y-130076372D01*
X78638468Y-130059139D01*
X78618850Y-130036537D01*
X78613373Y-129991297D01*
X78610415Y-129899780D01*
X78610231Y-129776286D01*
X78612223Y-129665236D01*
X78616666Y-129519851D01*
X78622542Y-129424198D01*
X78632303Y-129367398D01*
X78648400Y-129338573D01*
X78673284Y-129326841D01*
X78689081Y-129324085D01*
X78744766Y-129331513D01*
X78757280Y-129363692D01*
X78762576Y-129395565D01*
X78789242Y-129389324D01*
X78824644Y-129365800D01*
X78928476Y-129322662D01*
X79032561Y-129339669D01*
G37*
G36*
X81182338Y-129323809D02*
G01*
X81200479Y-129347626D01*
X81209391Y-129402421D01*
X81212250Y-129500548D01*
X81212411Y-129554354D01*
X81221556Y-129722552D01*
X81250347Y-129837314D01*
X81300814Y-129903210D01*
X81374990Y-129924809D01*
X81377125Y-129924821D01*
X81436943Y-129914997D01*
X81477421Y-129879203D01*
X81502653Y-129807959D01*
X81516732Y-129691784D01*
X81521767Y-129589898D01*
X81527245Y-129464937D01*
X81535436Y-129388145D01*
X81549950Y-129347075D01*
X81574397Y-129329284D01*
X81598867Y-129324085D01*
X81627052Y-129321988D01*
X81646154Y-129331570D01*
X81657940Y-129362449D01*
X81664176Y-129424240D01*
X81666629Y-129526561D01*
X81667064Y-129679028D01*
X81667065Y-129695386D01*
X81666356Y-129853731D01*
X81663305Y-129961166D01*
X81656521Y-130027394D01*
X81644614Y-130062118D01*
X81626196Y-130075041D01*
X81612506Y-130076372D01*
X81547357Y-130059093D01*
X81524830Y-130043254D01*
X81477832Y-130025729D01*
X81429829Y-130043254D01*
X81339935Y-130073352D01*
X81253484Y-130054465D01*
X81227566Y-130041372D01*
X81167664Y-130001484D01*
X81128118Y-129951545D01*
X81104884Y-129878938D01*
X81093916Y-129771044D01*
X81091170Y-129615925D01*
X81092032Y-129479536D01*
X81096125Y-129392684D01*
X81105705Y-129344298D01*
X81123032Y-129323301D01*
X81150363Y-129318620D01*
X81151790Y-129318616D01*
X81182338Y-129323809D01*
G37*
G36*
X79914737Y-130506185D02*
G01*
X79951204Y-130520667D01*
X79980797Y-130559764D01*
X80009686Y-130635350D01*
X80041843Y-130750776D01*
X80072582Y-130860070D01*
X80100353Y-130942280D01*
X80120280Y-130983424D01*
X80123787Y-130985680D01*
X80141842Y-130958846D01*
X80171232Y-130887496D01*
X80206489Y-130785357D01*
X80217389Y-130750776D01*
X80258572Y-130627848D01*
X80292528Y-130554484D01*
X80324590Y-130520941D01*
X80346007Y-130515871D01*
X80378490Y-130529102D01*
X80410670Y-130575008D01*
X80447579Y-130662913D01*
X80485108Y-130773508D01*
X80524586Y-130893044D01*
X80553383Y-130960839D01*
X80577041Y-130975462D01*
X80601105Y-130935484D01*
X80631118Y-130839474D01*
X80661348Y-130728043D01*
X80695448Y-130613096D01*
X80725708Y-130545676D01*
X80758825Y-130513608D01*
X80783443Y-130506185D01*
X80818735Y-130504373D01*
X80838732Y-130517139D01*
X80842516Y-130552798D01*
X80829168Y-130619668D01*
X80797772Y-130726064D01*
X80747408Y-130880302D01*
X80739528Y-130903975D01*
X80690767Y-131046567D01*
X80654441Y-131140426D01*
X80625490Y-131194861D01*
X80598849Y-131219180D01*
X80569457Y-131222691D01*
X80566407Y-131222290D01*
X80528631Y-131205000D01*
X80495329Y-131157842D01*
X80460108Y-131069536D01*
X80434704Y-130989825D01*
X80400622Y-130881695D01*
X80371905Y-130798082D01*
X80353877Y-130754324D01*
X80352064Y-130751746D01*
X80337206Y-130771451D01*
X80310594Y-130836910D01*
X80277123Y-130935587D01*
X80264914Y-130974928D01*
X80224927Y-131097393D01*
X80191877Y-131172056D01*
X80159426Y-131210261D01*
X80126505Y-131222711D01*
X80069268Y-131214791D01*
X80047718Y-131192400D01*
X80033388Y-131147735D01*
X80005069Y-131059985D01*
X79967469Y-130943730D01*
X79941767Y-130864364D01*
X79893507Y-130712498D01*
X79864324Y-130609232D01*
X79853562Y-130545849D01*
X79860561Y-130513630D01*
X79884665Y-130503859D01*
X79914737Y-130506185D01*
G37*
G36*
X80351164Y-129583020D02*
G01*
X80362845Y-129513371D01*
X80391311Y-129462802D01*
X80443718Y-129410568D01*
X80447555Y-129407129D01*
X80558909Y-129335907D01*
X80672702Y-129323745D01*
X80783671Y-129361808D01*
X80875205Y-129440958D01*
X80926716Y-129563864D01*
X80939618Y-129697494D01*
X80920164Y-129857253D01*
X80861301Y-129971936D01*
X80783671Y-130033180D01*
X80668175Y-130071412D01*
X80556143Y-130057324D01*
X80530430Y-130047718D01*
X80436211Y-129989536D01*
X80378606Y-129901554D01*
X80352247Y-129773257D01*
X80349305Y-129697494D01*
X80484965Y-129697494D01*
X80493522Y-129788839D01*
X80514325Y-129862200D01*
X80516341Y-129866193D01*
X80570369Y-129911177D01*
X80649588Y-129924162D01*
X80726924Y-129903861D01*
X80759097Y-129877741D01*
X80783435Y-129819237D01*
X80797095Y-129729780D01*
X80798171Y-129697494D01*
X80783552Y-129574455D01*
X80737487Y-129500526D01*
X80656658Y-129471118D01*
X80633871Y-129470167D01*
X80551991Y-129492635D01*
X80503075Y-129562063D01*
X80485133Y-129681486D01*
X80484965Y-129697494D01*
X80349305Y-129697494D01*
X80349111Y-129692494D01*
X80351164Y-129583020D01*
G37*
G36*
X82999992Y-129512756D02*
G01*
X83028884Y-129462042D01*
X83081876Y-129409451D01*
X83084548Y-129407060D01*
X83195051Y-129335870D01*
X83307927Y-129322896D01*
X83407018Y-129353126D01*
X83480519Y-129414154D01*
X83540336Y-129512203D01*
X83573605Y-129623680D01*
X83576611Y-129664187D01*
X83574142Y-129704102D01*
X83558257Y-129727571D01*
X83516236Y-129738960D01*
X83435361Y-129742637D01*
X83347176Y-129742959D01*
X83231034Y-129743984D01*
X83163396Y-129749534D01*
X83132152Y-129763327D01*
X83125191Y-129789080D01*
X83127427Y-129810399D01*
X83164647Y-129881663D01*
X83238795Y-129924820D01*
X83328915Y-129929761D01*
X83357876Y-129921554D01*
X83435710Y-129906837D01*
X83505019Y-129916664D01*
X83543865Y-129946708D01*
X83546301Y-129958720D01*
X83520453Y-129989009D01*
X83457208Y-130024463D01*
X83378014Y-130055689D01*
X83304321Y-130073293D01*
X83282060Y-130074451D01*
X83208344Y-130061307D01*
X83167423Y-130047718D01*
X83072490Y-129989002D01*
X83014582Y-129900255D01*
X82988408Y-129771123D01*
X82985561Y-129691826D01*
X82987933Y-129583785D01*
X83122928Y-129583785D01*
X83171512Y-129611963D01*
X83273509Y-129621718D01*
X83369272Y-129616710D01*
X83415875Y-129599560D01*
X83425060Y-129576952D01*
X83401778Y-129529487D01*
X83349284Y-129482535D01*
X83289961Y-129450465D01*
X83243316Y-129455652D01*
X83197733Y-129482535D01*
X83131197Y-129539777D01*
X83122928Y-129583785D01*
X82987933Y-129583785D01*
X82987963Y-129582412D01*
X82999992Y-129512756D01*
G37*
G36*
X79166243Y-130665823D02*
G01*
X79192861Y-130612682D01*
X79228824Y-130572000D01*
X79326431Y-130513967D01*
X79448000Y-130511368D01*
X79552924Y-130544805D01*
X79582159Y-130551086D01*
X79598176Y-130529881D01*
X79604819Y-130469446D01*
X79605967Y-130382718D01*
X79608103Y-130280049D01*
X79617515Y-130224177D01*
X79638709Y-130201342D01*
X79666587Y-130197613D01*
X79688674Y-130200314D01*
X79704626Y-130214060D01*
X79715437Y-130247318D01*
X79722105Y-130308554D01*
X79725625Y-130406233D01*
X79726993Y-130548821D01*
X79727208Y-130712888D01*
X79726890Y-130900627D01*
X79725273Y-131036212D01*
X79721360Y-131128109D01*
X79714156Y-131184784D01*
X79702665Y-131214704D01*
X79685889Y-131226334D01*
X79666587Y-131228162D01*
X79617324Y-131216110D01*
X79605967Y-131199399D01*
X79581738Y-131191204D01*
X79521497Y-131206489D01*
X79500855Y-131214554D01*
X79430868Y-131242486D01*
X79390199Y-131256233D01*
X79387191Y-131256551D01*
X79355904Y-131245122D01*
X79313685Y-131228417D01*
X79231059Y-131173779D01*
X79179300Y-131084291D01*
X79154661Y-130951370D01*
X79151313Y-130856317D01*
X79151688Y-130841079D01*
X79304215Y-130841079D01*
X79307186Y-130941941D01*
X79320058Y-131027125D01*
X79339237Y-131070549D01*
X79409921Y-131103772D01*
X79492356Y-131095413D01*
X79549213Y-131056797D01*
X79575260Y-130993988D01*
X79588276Y-130899943D01*
X79587873Y-130798993D01*
X79573665Y-130715472D01*
X79555197Y-130680304D01*
X79494114Y-130651081D01*
X79415303Y-130647401D01*
X79348640Y-130668457D01*
X79330192Y-130686366D01*
X79311699Y-130748051D01*
X79304215Y-130841079D01*
X79151688Y-130841079D01*
X79154162Y-130740550D01*
X79166243Y-130665823D01*
G37*
G36*
X82290088Y-130571220D02*
G01*
X82388443Y-130513493D01*
X82470287Y-130500716D01*
X82591599Y-130528180D01*
X82687158Y-130602630D01*
X82745561Y-130712159D01*
X82758234Y-130801487D01*
X82758234Y-130925060D01*
X82530907Y-130925060D01*
X82409612Y-130927688D01*
X82338518Y-130936872D01*
X82307384Y-130954564D01*
X82303580Y-130968360D01*
X82330005Y-131036500D01*
X82396576Y-131084686D01*
X82484241Y-131106011D01*
X82573946Y-131093566D01*
X82605666Y-131077881D01*
X82662459Y-131070799D01*
X82712674Y-131102260D01*
X82727924Y-131142489D01*
X82702563Y-131170250D01*
X82641095Y-131205341D01*
X82565441Y-131237559D01*
X82497524Y-131256700D01*
X82478838Y-131258425D01*
X82427981Y-131245603D01*
X82351586Y-131213967D01*
X82333891Y-131205382D01*
X82238778Y-131129203D01*
X82182081Y-131024211D01*
X82161333Y-130903161D01*
X82174064Y-130778810D01*
X82176370Y-130772754D01*
X82308909Y-130772754D01*
X82364002Y-130796733D01*
X82469310Y-130803819D01*
X82563549Y-130802266D01*
X82609718Y-130793553D01*
X82620358Y-130771600D01*
X82609967Y-130735621D01*
X82557168Y-130664091D01*
X82478783Y-130631924D01*
X82396479Y-130645226D01*
X82365119Y-130666592D01*
X82309753Y-130729996D01*
X82308909Y-130772754D01*
X82176370Y-130772754D01*
X82217806Y-130663911D01*
X82290088Y-130571220D01*
G37*
G36*
X77944198Y-130881092D02*
G01*
X78044442Y-130826057D01*
X78191344Y-130804118D01*
X78213668Y-130803819D01*
X78292825Y-130798178D01*
X78327265Y-130776403D01*
X78332936Y-130746909D01*
X78308881Y-130671949D01*
X78237504Y-130633941D01*
X78119985Y-130633474D01*
X78108572Y-130635084D01*
X78011195Y-130639545D01*
X77954387Y-130621666D01*
X77944785Y-130586493D01*
X77985530Y-130541583D01*
X78073987Y-130507131D01*
X78186850Y-130502039D01*
X78301289Y-130523119D01*
X78394477Y-130567184D01*
X78430980Y-130603762D01*
X78440592Y-130646926D01*
X78448222Y-130735681D01*
X78452832Y-130855005D01*
X78453713Y-130932619D01*
X78454177Y-131228126D01*
X78355669Y-131222950D01*
X78259578Y-131225495D01*
X78181385Y-131237625D01*
X78096911Y-131239189D01*
X78010108Y-131215236D01*
X77927082Y-131154368D01*
X77894427Y-131081116D01*
X77893823Y-131020042D01*
X78009179Y-131020042D01*
X78029833Y-131061456D01*
X78085608Y-131094080D01*
X78166081Y-131106946D01*
X78246978Y-131100265D01*
X78304024Y-131074247D01*
X78314538Y-131058977D01*
X78333942Y-130982994D01*
X78312915Y-130941795D01*
X78243616Y-130926192D01*
X78200251Y-130925060D01*
X78093416Y-130937541D01*
X78027317Y-130971129D01*
X78009179Y-131020042D01*
X77893823Y-131020042D01*
X77893297Y-130966890D01*
X77944198Y-130881092D01*
G37*
G36*
X77186748Y-129511398D02*
G01*
X77191375Y-129425973D01*
X77198001Y-129370184D01*
X77206980Y-129337832D01*
X77218665Y-129322722D01*
X77233411Y-129318656D01*
X77235704Y-129318616D01*
X77300854Y-129335895D01*
X77323381Y-129351734D01*
X77370379Y-129369259D01*
X77418381Y-129351734D01*
X77527383Y-129320488D01*
X77627738Y-129349091D01*
X77682643Y-129393014D01*
X77721487Y-129438822D01*
X77743952Y-129491037D01*
X77754360Y-129567263D01*
X77757032Y-129685104D01*
X77757041Y-129696116D01*
X77754061Y-129822022D01*
X77742895Y-129903608D01*
X77720201Y-129956981D01*
X77697191Y-129984671D01*
X77596678Y-130051901D01*
X77490726Y-130064971D01*
X77408252Y-130033549D01*
X77332697Y-129984044D01*
X77332697Y-130273757D01*
X77333367Y-130407165D01*
X77336888Y-130489939D01*
X77345525Y-130532059D01*
X77361542Y-130543508D01*
X77387207Y-130534269D01*
X77391325Y-130532093D01*
X77506139Y-130501981D01*
X77618321Y-130528188D01*
X77682643Y-130575114D01*
X77717517Y-130614787D01*
X77739410Y-130658810D01*
X77751305Y-130721761D01*
X77756183Y-130818220D01*
X77757041Y-130938837D01*
X77756134Y-131073048D01*
X77751845Y-131157866D01*
X77741823Y-131204511D01*
X77723719Y-131224202D01*
X77696420Y-131228162D01*
X77664444Y-131222388D01*
X77646186Y-131196386D01*
X77637893Y-131137142D01*
X77635811Y-131031637D01*
X77635800Y-131017964D01*
X77631812Y-130899666D01*
X77621392Y-130796438D01*
X77607815Y-130734159D01*
X77554436Y-130663852D01*
X77476560Y-130642594D01*
X77395279Y-130672492D01*
X77364198Y-130701405D01*
X77345401Y-130744066D01*
X77335930Y-130814640D01*
X77332828Y-130927292D01*
X77332697Y-130972244D01*
X77331990Y-131096500D01*
X77327491Y-131172178D01*
X77315635Y-131211320D01*
X77292855Y-131225967D01*
X77256922Y-131228162D01*
X77181146Y-131228162D01*
X77181146Y-130273389D01*
X77181319Y-130007454D01*
X77182074Y-129795941D01*
X77183094Y-129697494D01*
X77332697Y-129697494D01*
X77342431Y-129817918D01*
X77375720Y-129889401D01*
X77438691Y-129921065D01*
X77485445Y-129924821D01*
X77560846Y-129902255D01*
X77600624Y-129847619D01*
X77634195Y-129703646D01*
X77608171Y-129553086D01*
X77606240Y-129547916D01*
X77564147Y-129487093D01*
X77491061Y-129470167D01*
X77407555Y-129483842D01*
X77357984Y-129531214D01*
X77335716Y-129621803D01*
X77332697Y-129697494D01*
X77183094Y-129697494D01*
X77183766Y-129632655D01*
X77186748Y-129511398D01*
G37*
G36*
X82796812Y-129354894D02*
G01*
X82807072Y-129359585D01*
X82884156Y-129404654D01*
X82905952Y-129445037D01*
X82876146Y-129490084D01*
X82863036Y-129501543D01*
X82814428Y-129524305D01*
X82781198Y-129505255D01*
X82728287Y-129480918D01*
X82648412Y-129470192D01*
X82644540Y-129470167D01*
X82573294Y-129478405D01*
X82529705Y-129514371D01*
X82497558Y-129578852D01*
X82474355Y-129681945D01*
X82482483Y-129785036D01*
X82517774Y-129867895D01*
X82565163Y-129906986D01*
X82658240Y-129924213D01*
X82744676Y-129911117D01*
X82782699Y-129888232D01*
X82822243Y-129868915D01*
X82865480Y-129897836D01*
X82894225Y-129937075D01*
X82878498Y-129972549D01*
X82853868Y-129996341D01*
X82767221Y-130043009D01*
X82655631Y-130064788D01*
X82551523Y-130056378D01*
X82530907Y-130049130D01*
X82434617Y-129987458D01*
X82376610Y-129896689D01*
X82351284Y-129765972D01*
X82349046Y-129696754D01*
X82353027Y-129582331D01*
X82368763Y-129507263D01*
X82401943Y-129450589D01*
X82422091Y-129427608D01*
X82532510Y-129351270D01*
X82663001Y-129326046D01*
X82796812Y-129354894D01*
G37*
G36*
X81778910Y-130516380D02*
G01*
X81794806Y-130535373D01*
X81818476Y-130554871D01*
X81871115Y-130535373D01*
X81952918Y-130507698D01*
X82036292Y-130502821D01*
X82096628Y-130521058D01*
X82107384Y-130532354D01*
X82109578Y-130581015D01*
X82066320Y-130622297D01*
X81992618Y-130644389D01*
X81963668Y-130645443D01*
X81886141Y-130655491D01*
X81834105Y-130696307D01*
X81803412Y-130776078D01*
X81789910Y-130902992D01*
X81788306Y-130991473D01*
X81786981Y-131110551D01*
X81780899Y-131181361D01*
X81766903Y-131216235D01*
X81741834Y-131227502D01*
X81727685Y-131228162D01*
X81702096Y-131224594D01*
X81684935Y-131207191D01*
X81674528Y-131165908D01*
X81669201Y-131090699D01*
X81667280Y-130971519D01*
X81667065Y-130864439D01*
X81667725Y-130710707D01*
X81670773Y-130607584D01*
X81677806Y-130545063D01*
X81690422Y-130513137D01*
X81710221Y-130501801D01*
X81725159Y-130500716D01*
X81778910Y-130516380D01*
G37*
G36*
X77997344Y-129390637D02*
G01*
X78094627Y-129335075D01*
X78201400Y-129324448D01*
X78305450Y-129356099D01*
X78394563Y-129427372D01*
X78456527Y-129535612D01*
X78475194Y-129614141D01*
X78492469Y-129742959D01*
X78259043Y-129742959D01*
X78141667Y-129743948D01*
X78072886Y-129749328D01*
X78040681Y-129762723D01*
X78033031Y-129787757D01*
X78035303Y-129810399D01*
X78072523Y-129881663D01*
X78146671Y-129924820D01*
X78236790Y-129929761D01*
X78265752Y-129921554D01*
X78343586Y-129906837D01*
X78412895Y-129916664D01*
X78451741Y-129946708D01*
X78454177Y-129958720D01*
X78428329Y-129989009D01*
X78365083Y-130024463D01*
X78285890Y-130055689D01*
X78212197Y-130073293D01*
X78189936Y-130074451D01*
X78116220Y-130061307D01*
X78075299Y-130047718D01*
X77979330Y-129978038D01*
X77913288Y-129869058D01*
X77881512Y-129736432D01*
X77888342Y-129595818D01*
X77892283Y-129583785D01*
X78030804Y-129583785D01*
X78079388Y-129611963D01*
X78181385Y-129621718D01*
X78277148Y-129616710D01*
X78323751Y-129599560D01*
X78332936Y-129576952D01*
X78309654Y-129529487D01*
X78257160Y-129482535D01*
X78197837Y-129450465D01*
X78151192Y-129455652D01*
X78105609Y-129482535D01*
X78039073Y-129539777D01*
X78030804Y-129583785D01*
X77892283Y-129583785D01*
X77921762Y-129493788D01*
X77997344Y-129390637D01*
G37*
G36*
X79860580Y-123745144D02*
G01*
X80008388Y-123748179D01*
X80378879Y-123756683D01*
X80454654Y-124134139D01*
X80530430Y-124511595D01*
X80757757Y-124610633D01*
X80871194Y-124657259D01*
X80968709Y-124692330D01*
X81032865Y-124709706D01*
X81041509Y-124710563D01*
X81088054Y-124694338D01*
X81171307Y-124649645D01*
X81278901Y-124583598D01*
X81382485Y-124514439D01*
X81497467Y-124436170D01*
X81594502Y-124372629D01*
X81662703Y-124330782D01*
X81690452Y-124317422D01*
X81720321Y-124337789D01*
X81781191Y-124391901D01*
X81862607Y-124469276D01*
X81954113Y-124559432D01*
X82045253Y-124651886D01*
X82125570Y-124736156D01*
X82184608Y-124801761D01*
X82211912Y-124838218D01*
X82212650Y-124840922D01*
X82196352Y-124873243D01*
X82152097Y-124944292D01*
X82086841Y-125043238D01*
X82015633Y-125147587D01*
X81937269Y-125262880D01*
X81873599Y-125360571D01*
X81831620Y-125429652D01*
X81818167Y-125458253D01*
X81828992Y-125496055D01*
X81858397Y-125575756D01*
X81901148Y-125683508D01*
X81926984Y-125746189D01*
X82036249Y-126008011D01*
X82773389Y-126151193D01*
X82782007Y-126497206D01*
X82783180Y-126665599D01*
X82777568Y-126789209D01*
X82765572Y-126861703D01*
X82758077Y-126876084D01*
X82716305Y-126894825D01*
X82628570Y-126919991D01*
X82508692Y-126947965D01*
X82400891Y-126969570D01*
X82076253Y-127030191D01*
X82009580Y-127166587D01*
X81957056Y-127280590D01*
X81902398Y-127408937D01*
X81882861Y-127457906D01*
X81822816Y-127612830D01*
X82017733Y-127904307D01*
X82094715Y-128021395D01*
X82157354Y-128120414D01*
X82198888Y-128190419D01*
X82212650Y-128219862D01*
X82192351Y-128249468D01*
X82137129Y-128312093D01*
X82055491Y-128398464D01*
X81959071Y-128496201D01*
X81705493Y-128748461D01*
X81403848Y-128547625D01*
X81102203Y-128346788D01*
X80960326Y-128426085D01*
X80877791Y-128470312D01*
X80832487Y-128485814D01*
X80809491Y-128474762D01*
X80797687Y-128449767D01*
X80779794Y-128405105D01*
X80742529Y-128314375D01*
X80689965Y-128187413D01*
X80626175Y-128034056D01*
X80555229Y-127864139D01*
X80555170Y-127863996D01*
X80485527Y-127695129D01*
X80424888Y-127543563D01*
X80376933Y-127418868D01*
X80345340Y-127330616D01*
X80333790Y-127288380D01*
X80333788Y-127288101D01*
X80357600Y-127243804D01*
X80416397Y-127190049D01*
X80437214Y-127175630D01*
X80580511Y-127049892D01*
X80694453Y-126883218D01*
X80742007Y-126774239D01*
X80782462Y-126574449D01*
X80767982Y-126376373D01*
X80703704Y-126189839D01*
X80594767Y-126024676D01*
X80446311Y-125890713D01*
X80263475Y-125797777D01*
X80225055Y-125785506D01*
X80017033Y-125754257D01*
X79816155Y-125778292D01*
X79631200Y-125852294D01*
X79470944Y-125970948D01*
X79344165Y-126128940D01*
X79259640Y-126320952D01*
X79244962Y-126379049D01*
X79231572Y-126579878D01*
X79272740Y-126778777D01*
X79363375Y-126963021D01*
X79498384Y-127119885D01*
X79561798Y-127170773D01*
X79634818Y-127229926D01*
X79679392Y-127279258D01*
X79686569Y-127301260D01*
X79628990Y-127447400D01*
X79562371Y-127610761D01*
X79490691Y-127782215D01*
X79417928Y-127952639D01*
X79348064Y-128112905D01*
X79285078Y-128253889D01*
X79232948Y-128366466D01*
X79195656Y-128441508D01*
X79177180Y-128469892D01*
X79176916Y-128469928D01*
X79134917Y-128457110D01*
X79061519Y-128424758D01*
X79025145Y-128406794D01*
X78901392Y-128343660D01*
X78639897Y-128523017D01*
X78528087Y-128599371D01*
X78433411Y-128663407D01*
X78367972Y-128706973D01*
X78345916Y-128720997D01*
X78313353Y-128707901D01*
X78248216Y-128658611D01*
X78159755Y-128580816D01*
X78057222Y-128482203D01*
X78050538Y-128475504D01*
X77787646Y-128211388D01*
X77986639Y-127913814D01*
X78185633Y-127616239D01*
X78069845Y-127324633D01*
X77954058Y-127033027D01*
X77256922Y-126905869D01*
X77248476Y-126526047D01*
X77240031Y-126146225D01*
X77609172Y-126072934D01*
X77978312Y-125999642D01*
X78095377Y-125728215D01*
X78212443Y-125456788D01*
X77779577Y-124826622D01*
X78032855Y-124572022D01*
X78134287Y-124472612D01*
X78221874Y-124391511D01*
X78286098Y-124337217D01*
X78317112Y-124318204D01*
X78353156Y-124334788D01*
X78427572Y-124379225D01*
X78529116Y-124444529D01*
X78634190Y-124515220D01*
X78751399Y-124593391D01*
X78852623Y-124656783D01*
X78926269Y-124698401D01*
X78959236Y-124711456D01*
X78999362Y-124701202D01*
X79078472Y-124674602D01*
X79179984Y-124637898D01*
X79287318Y-124597330D01*
X79383892Y-124559142D01*
X79453125Y-124529574D01*
X79477729Y-124516276D01*
X79486335Y-124485055D01*
X79503239Y-124406907D01*
X79525787Y-124294530D01*
X79545249Y-124193075D01*
X79571640Y-124054748D01*
X79595527Y-123932726D01*
X79613722Y-123843133D01*
X79621255Y-123808799D01*
X79630451Y-123779938D01*
X79648519Y-123760780D01*
X79685922Y-123749687D01*
X79753121Y-123745021D01*
X79860580Y-123745144D01*
G37*
G36*
X80042619Y-129331237D02*
G01*
X80136516Y-129360822D01*
X80187207Y-129402157D01*
X80187655Y-129447799D01*
X80170767Y-129466797D01*
X80116515Y-129486544D01*
X80042758Y-129469138D01*
X79944256Y-129447733D01*
X79867761Y-129460611D01*
X79826513Y-129503538D01*
X79823749Y-129539165D01*
X79840282Y-129581589D01*
X79884941Y-129607662D01*
X79973203Y-129625877D01*
X79984845Y-129627568D01*
X80109135Y-129665167D01*
X80195398Y-129729974D01*
X80240865Y-129810734D01*
X80242766Y-129896193D01*
X80198332Y-129975094D01*
X80104792Y-130036183D01*
X80087048Y-130042874D01*
X79957343Y-130072515D01*
X79839508Y-130058862D01*
X79768734Y-130032714D01*
X79681310Y-129984909D01*
X79651720Y-129941126D01*
X79677641Y-129897915D01*
X79677862Y-129897731D01*
X79723958Y-129881318D01*
X79796385Y-129897224D01*
X79834184Y-129911991D01*
X79940208Y-129938513D01*
X80026350Y-129927285D01*
X80079794Y-129882121D01*
X80090931Y-129835584D01*
X80080365Y-129797926D01*
X80039370Y-129774236D01*
X79954001Y-129757282D01*
X79934878Y-129754656D01*
X79793692Y-129718255D01*
X79703911Y-129654116D01*
X79667372Y-129563670D01*
X79666587Y-129545943D01*
X79693802Y-129449604D01*
X79767355Y-129376178D01*
X79875107Y-129332596D01*
X80004921Y-129325789D01*
X80042619Y-129331237D01*
G37*
G36*
X80932505Y-130906865D02*
G01*
X81004046Y-130848120D01*
X81116061Y-130812030D01*
X81210418Y-130803819D01*
X81289369Y-130799812D01*
X81324785Y-130780910D01*
X81333582Y-130736794D01*
X81333652Y-130728620D01*
X81308327Y-130664741D01*
X81243828Y-130629532D01*
X81157366Y-130629406D01*
X81109727Y-130645202D01*
X81040669Y-130657455D01*
X80976160Y-130641604D01*
X80940968Y-130604959D01*
X80939618Y-130595006D01*
X80966808Y-130561233D01*
X81036116Y-130530094D01*
X81129151Y-130507882D01*
X81215215Y-130500716D01*
X81325673Y-130517553D01*
X81410602Y-130574911D01*
X81410805Y-130575114D01*
X81445628Y-130614712D01*
X81467511Y-130658638D01*
X81479422Y-130721435D01*
X81484326Y-130817644D01*
X81485203Y-130939787D01*
X81485203Y-131230061D01*
X81386695Y-131225848D01*
X81283401Y-131228410D01*
X81197256Y-131238785D01*
X81116961Y-131245633D01*
X81060860Y-131238094D01*
X80973871Y-131177628D01*
X80919378Y-131088164D01*
X80912837Y-131043494D01*
X81035616Y-131043494D01*
X81042184Y-131063212D01*
X81074135Y-131094256D01*
X81145564Y-131103105D01*
X81189401Y-131101100D01*
X81271732Y-131090757D01*
X81311487Y-131067543D01*
X81326705Y-131019403D01*
X81328088Y-131008413D01*
X81330012Y-130957593D01*
X81310241Y-130933225D01*
X81253681Y-130925615D01*
X81198318Y-130925060D01*
X81091400Y-130937605D01*
X81037860Y-130976469D01*
X81035616Y-131043494D01*
X80912837Y-131043494D01*
X80904858Y-130988999D01*
X80932505Y-130906865D01*
G37*
G36*
X76456693Y-129578145D02*
G01*
X76470411Y-129506462D01*
X76501960Y-129451446D01*
X76546094Y-129403420D01*
X76613746Y-129344534D01*
X76675410Y-129322836D01*
X76762274Y-129327634D01*
X76765796Y-129328102D01*
X76890663Y-129364162D01*
X76973409Y-129436604D01*
X77018215Y-129551103D01*
X77029595Y-129686022D01*
X77022325Y-129826232D01*
X76996178Y-129921944D01*
X76944652Y-129988005D01*
X76878650Y-130030593D01*
X76765623Y-130070294D01*
X76658259Y-130061102D01*
X76616072Y-130046317D01*
X76530542Y-129987986D01*
X76478018Y-129891435D01*
X76455244Y-129749489D01*
X76454010Y-129700692D01*
X76574941Y-129700692D01*
X76594385Y-129807028D01*
X76644548Y-129883187D01*
X76713175Y-129922457D01*
X76788010Y-129918126D01*
X76856797Y-129863482D01*
X76861169Y-129857456D01*
X76903833Y-129757379D01*
X76905640Y-129652955D01*
X76872063Y-129559848D01*
X76808577Y-129493724D01*
X76725840Y-129470167D01*
X76643711Y-129491538D01*
X76594435Y-129558343D01*
X76575369Y-129674621D01*
X76574941Y-129700692D01*
X76454010Y-129700692D01*
X76453700Y-129688418D01*
X76456693Y-129578145D01*
G37*
%TD*%
D11*
%TO.C,R8*%
X86240000Y-84525000D03*
X87260000Y-84525000D03*
%TD*%
D12*
%TO.C,R14*%
X72060000Y-67700000D03*
X71040000Y-67700000D03*
%TD*%
D13*
%TO.C,U2*%
X88637500Y-87975000D03*
X88637500Y-87025000D03*
X88637500Y-86075000D03*
X86362500Y-86075000D03*
X86362500Y-87975000D03*
%TD*%
D14*
%TO.C,C5*%
X87225000Y-89750000D03*
X88775000Y-89750000D03*
%TD*%
D15*
%TO.C,C8*%
X118200000Y-86375000D03*
X118200000Y-84825000D03*
%TD*%
D16*
%TO.C,J2*%
X130125000Y-61500000D03*
X130125000Y-62500000D03*
X130125000Y-63500000D03*
X130125000Y-64500000D03*
X130125000Y-65500000D03*
X130125000Y-66500000D03*
D17*
X132650000Y-60200000D03*
X132650000Y-67800000D03*
%TD*%
D18*
%TO.C,Q1*%
X84155000Y-71990000D03*
X86055000Y-71990000D03*
X85105000Y-70115000D03*
%TD*%
D19*
%TO.C,BZ1*%
X117925000Y-55500000D03*
X117925000Y-56500000D03*
D20*
X120450000Y-54200000D03*
X120450000Y-57800000D03*
%TD*%
D21*
%TO.C,R5*%
X87605000Y-69480000D03*
X87605000Y-70500000D03*
%TD*%
D16*
%TO.C,J3*%
X117925000Y-61500000D03*
X117925000Y-62500000D03*
X117925000Y-63500000D03*
X117925000Y-64500000D03*
X117925000Y-65500000D03*
X117925000Y-66500000D03*
D17*
X120450000Y-60200000D03*
X120450000Y-67800000D03*
%TD*%
D22*
%TO.C,J7*%
X72350000Y-102000000D03*
X72350000Y-104000000D03*
X72350000Y-106000000D03*
X72350000Y-108000000D03*
D23*
X66600000Y-110350000D03*
X66600000Y-99650000D03*
%TD*%
D24*
%TO.C,C12*%
X67740000Y-67600000D03*
X66780000Y-67600000D03*
%TD*%
D25*
%TO.C,H2*%
X137409010Y-58590990D03*
X141250000Y-57000000D03*
X140590990Y-58590990D03*
D26*
X139000000Y-57000000D03*
D25*
X139000000Y-59250000D03*
X139000000Y-54750000D03*
X140590990Y-55409010D03*
X137409010Y-55409010D03*
X136750000Y-57000000D03*
%TD*%
D27*
%TO.C,D1*%
X123100000Y-122000000D03*
X125900000Y-122000000D03*
%TD*%
D12*
%TO.C,R16*%
X69110000Y-60000000D03*
X68090000Y-60000000D03*
%TD*%
D28*
%TO.C,R4*%
X82605000Y-72500000D03*
X82605000Y-71480000D03*
%TD*%
D29*
%TO.C,C6*%
X84250000Y-86500000D03*
X84250000Y-88050000D03*
%TD*%
D28*
%TO.C,R1*%
X66250000Y-55260000D03*
X66250000Y-54240000D03*
%TD*%
D26*
%TO.C,H1*%
X61000000Y-57000000D03*
D25*
X59409010Y-58590990D03*
X62590990Y-58590990D03*
X58750000Y-57000000D03*
X59409010Y-55409010D03*
X62590990Y-55409010D03*
X61000000Y-54750000D03*
X63250000Y-57000000D03*
X61000000Y-59250000D03*
%TD*%
D22*
%TO.C,J4*%
X70150000Y-117100000D03*
X70150000Y-119100000D03*
D30*
X76000000Y-114750000D03*
X76000000Y-121450000D03*
%TD*%
D21*
%TO.C,R3*%
X79000000Y-70029088D03*
X79000000Y-71049088D03*
%TD*%
D24*
%TO.C,C1*%
X90230000Y-62750000D03*
X89270000Y-62750000D03*
%TD*%
D22*
%TO.C,J6*%
X72350000Y-88000000D03*
X72350000Y-90000000D03*
X72350000Y-92000000D03*
X72350000Y-94000000D03*
D23*
X66600000Y-96350000D03*
X66600000Y-85650000D03*
%TD*%
D31*
%TO.C,U4*%
X69550000Y-64300000D03*
D32*
X71500000Y-65550000D03*
X71500000Y-65050000D03*
X71500000Y-64550000D03*
X71500000Y-64050000D03*
X71500000Y-63550000D03*
X71500000Y-63050000D03*
D33*
X70800000Y-62350000D03*
X70300000Y-62350000D03*
X69800000Y-62350000D03*
X69300000Y-62350000D03*
X68800000Y-62350000D03*
X68300000Y-62350000D03*
D32*
X67600000Y-63050000D03*
X67600000Y-63550000D03*
X67600000Y-64050000D03*
X67600000Y-64550000D03*
X67600000Y-65050000D03*
X67600000Y-65550000D03*
D33*
X68300000Y-66250000D03*
X68800000Y-66250000D03*
X69300000Y-66250000D03*
X69800000Y-66250000D03*
X70300000Y-66250000D03*
X70800000Y-66250000D03*
%TD*%
D34*
%TO.C,U1*%
X92500000Y-62665000D03*
X92500000Y-63935000D03*
X92500000Y-65205000D03*
D35*
X92500000Y-66475000D03*
D34*
X92500000Y-67745000D03*
X92500000Y-69015000D03*
X92500000Y-70285000D03*
D35*
X92500000Y-71555000D03*
D34*
X92500000Y-72825000D03*
X92500000Y-74095000D03*
X92500000Y-75365000D03*
D35*
X92500000Y-76635000D03*
D34*
X92500000Y-77905000D03*
X92500000Y-79175000D03*
X92500000Y-80445000D03*
D35*
X92500000Y-81715000D03*
D34*
X92500000Y-82985000D03*
X92500000Y-84255000D03*
X92500000Y-85525000D03*
D35*
X92500000Y-86795000D03*
D34*
X92500000Y-88065000D03*
X92500000Y-89335000D03*
X108500000Y-89335000D03*
X108500000Y-88065000D03*
D35*
X108500000Y-86795000D03*
D34*
X108500000Y-85525000D03*
X108500000Y-84225000D03*
X108500000Y-82985000D03*
D35*
X108500000Y-81715000D03*
D34*
X108500000Y-80445000D03*
X108500000Y-79175000D03*
X108500000Y-77905000D03*
D35*
X108500000Y-76635000D03*
D34*
X108500000Y-75365000D03*
X108500000Y-74095000D03*
X108500000Y-72825000D03*
D35*
X108500000Y-71555000D03*
D34*
X108500000Y-70283000D03*
X108500000Y-69015000D03*
X108500000Y-67745000D03*
D35*
X108500000Y-66475000D03*
D34*
X108500000Y-65205000D03*
X108500000Y-63935000D03*
X108500000Y-62665000D03*
D36*
X100500000Y-67584239D03*
X100500000Y-65745761D03*
X101419239Y-66665000D03*
X99580761Y-66665000D03*
%TD*%
D24*
%TO.C,C11*%
X69080000Y-61000000D03*
X68120000Y-61000000D03*
%TD*%
D11*
%TO.C,R13*%
X69040000Y-67700000D03*
X70060000Y-67700000D03*
%TD*%
D37*
%TO.C,C9*%
X70520000Y-61000000D03*
X71480000Y-61000000D03*
%TD*%
D38*
%TO.C,C2*%
X110750000Y-66130000D03*
X110750000Y-65170000D03*
%TD*%
%TO.C,C4*%
X82655000Y-70470000D03*
X82655000Y-69510000D03*
%TD*%
D39*
%TO.C,C3*%
X89600000Y-71520000D03*
X89600000Y-72480000D03*
%TD*%
D12*
%TO.C,R12*%
X69010000Y-69500000D03*
X67990000Y-69500000D03*
%TD*%
D25*
%TO.C,H4*%
X140590990Y-123409010D03*
X140590990Y-126590990D03*
X139000000Y-122750000D03*
X136750000Y-125000000D03*
X139000000Y-127250000D03*
X137409010Y-126590990D03*
X137409010Y-123409010D03*
D26*
X139000000Y-125000000D03*
D25*
X141250000Y-125000000D03*
%TD*%
D39*
%TO.C,C10*%
X66260000Y-63120000D03*
X66260000Y-64080000D03*
%TD*%
D40*
%TO.C,SW3*%
X134060000Y-51500000D03*
X118940000Y-51500000D03*
%TD*%
D12*
%TO.C,R15*%
X69110000Y-59000000D03*
X68090000Y-59000000D03*
%TD*%
D22*
%TO.C,J5*%
X72350000Y-74000000D03*
X72350000Y-76000000D03*
X72350000Y-78000000D03*
X72350000Y-80000000D03*
D23*
X66600000Y-71650000D03*
X66600000Y-82350000D03*
%TD*%
D41*
%TO.C,J10*%
X127650000Y-108000000D03*
X127650000Y-106000000D03*
X127650000Y-104000000D03*
X127650000Y-102000000D03*
D42*
X133400000Y-110350000D03*
X133400000Y-99650000D03*
%TD*%
D41*
%TO.C,J8*%
X127650000Y-80000000D03*
X127650000Y-78000000D03*
X127650000Y-76000000D03*
X127650000Y-74000000D03*
D42*
X133400000Y-71650000D03*
X133400000Y-82350000D03*
%TD*%
D12*
%TO.C,R7*%
X89260000Y-84550000D03*
X88240000Y-84550000D03*
%TD*%
D41*
%TO.C,J9*%
X127650000Y-94000000D03*
X127650000Y-92000000D03*
X127650000Y-90000000D03*
X127650000Y-88000000D03*
D42*
X133400000Y-85650000D03*
X133400000Y-96350000D03*
%TD*%
D12*
%TO.C,R10*%
X116372500Y-88200000D03*
X115352500Y-88200000D03*
%TD*%
D21*
%TO.C,R6*%
X87605000Y-71480000D03*
X87605000Y-72500000D03*
%TD*%
D29*
%TO.C,D2*%
X79000000Y-72472500D03*
X79000000Y-74022500D03*
%TD*%
D43*
%TO.C,U3*%
X113725000Y-84850000D03*
X113725000Y-85800000D03*
X113725000Y-86750000D03*
X116000000Y-86750000D03*
X116000000Y-84850000D03*
%TD*%
D25*
%TO.C,H3*%
X63250000Y-125000000D03*
X62590990Y-123409010D03*
X59409010Y-123409010D03*
X62590990Y-126590990D03*
X61000000Y-122750000D03*
X58750000Y-125000000D03*
X61000000Y-127250000D03*
X59409010Y-126590990D03*
D26*
X61000000Y-125000000D03*
%TD*%
D11*
%TO.C,R9*%
X113290000Y-88200000D03*
X114310000Y-88200000D03*
%TD*%
D28*
%TO.C,R17*%
X124500000Y-92020000D03*
X124500000Y-91000000D03*
%TD*%
D40*
%TO.C,SW2*%
X81060000Y-51500000D03*
X65940000Y-51500000D03*
%TD*%
D44*
%TO.C,SW1*%
X118070000Y-121650000D03*
D45*
X119170000Y-116500000D03*
D44*
X118070000Y-114350000D03*
D45*
X119170000Y-119500000D03*
D44*
X120280000Y-114350000D03*
X120280000Y-121650000D03*
D46*
X120930000Y-115750000D03*
X120930000Y-118750000D03*
X120930000Y-120250000D03*
%TD*%
D28*
%TO.C,R2*%
X116150000Y-56510000D03*
X116150000Y-55490000D03*
%TD*%
D19*
%TO.C,J1*%
X78175000Y-62500000D03*
X78175000Y-63500000D03*
X78175000Y-64500000D03*
X78175000Y-65500000D03*
D20*
X80700000Y-61200000D03*
X80700000Y-66800000D03*
%TD*%
D12*
%TO.C,R11*%
X71510000Y-60000000D03*
X70490000Y-60000000D03*
%TD*%
D29*
%TO.C,C7*%
X111500000Y-83425000D03*
X111500000Y-84975000D03*
%TD*%
D47*
%TO.C,BT1*%
X74500000Y-118105000D03*
X74500000Y-62495000D03*
D48*
X74500000Y-126750000D03*
D49*
X74500000Y-54750000D03*
%TD*%
D47*
%TO.C,BT2*%
X125500000Y-118105000D03*
X125500000Y-62495000D03*
D48*
X125500000Y-126750000D03*
D49*
X125500000Y-54750000D03*
%TD*%
M02*
