%TF.GenerationSoftware,KiCad,Pcbnew,(6.0.7)*%
%TF.CreationDate,2022-10-18T10:08:25+03:00*%
%TF.ProjectId,TL-Node Rev.0,544c2d4e-6f64-4652-9052-65762e302e6b,rev?*%
%TF.SameCoordinates,Original*%
%TF.FileFunction,Copper,L1,Top*%
%TF.FilePolarity,Positive*%
%FSLAX46Y46*%
G04 Gerber Fmt 4.6, Leading zero omitted, Abs format (unit mm)*
G04 Created by KiCad (PCBNEW (6.0.7)) date 2022-10-18 10:08:25*
%MOMM*%
%LPD*%
G01*
G04 APERTURE LIST*
G04 Aperture macros list*
%AMRoundRect*
0 Rectangle with rounded corners*
0 $1 Rounding radius*
0 $2 $3 $4 $5 $6 $7 $8 $9 X,Y pos of 4 corners*
0 Add a 4 corners polygon primitive as box body*
4,1,4,$2,$3,$4,$5,$6,$7,$8,$9,$2,$3,0*
0 Add four circle primitives for the rounded corners*
1,1,$1+$1,$2,$3*
1,1,$1+$1,$4,$5*
1,1,$1+$1,$6,$7*
1,1,$1+$1,$8,$9*
0 Add four rect primitives between the rounded corners*
20,1,$1+$1,$2,$3,$4,$5,0*
20,1,$1+$1,$4,$5,$6,$7,0*
20,1,$1+$1,$6,$7,$8,$9,0*
20,1,$1+$1,$8,$9,$2,$3,0*%
G04 Aperture macros list end*
%ADD10C,0.200000*%
%TA.AperFunction,NonConductor*%
%ADD11C,0.200000*%
%TD*%
%TA.AperFunction,SMDPad,CuDef*%
%ADD12RoundRect,0.135000X-0.135000X-0.185000X0.135000X-0.185000X0.135000X0.185000X-0.135000X0.185000X0*%
%TD*%
%TA.AperFunction,SMDPad,CuDef*%
%ADD13RoundRect,0.135000X0.135000X0.185000X-0.135000X0.185000X-0.135000X-0.185000X0.135000X-0.185000X0*%
%TD*%
%TA.AperFunction,SMDPad,CuDef*%
%ADD14RoundRect,0.060000X0.602500X0.240000X-0.602500X0.240000X-0.602500X-0.240000X0.602500X-0.240000X0*%
%TD*%
%TA.AperFunction,SMDPad,CuDef*%
%ADD15RoundRect,0.225000X-0.225000X-0.250000X0.225000X-0.250000X0.225000X0.250000X-0.225000X0.250000X0*%
%TD*%
%TA.AperFunction,SMDPad,CuDef*%
%ADD16RoundRect,0.225000X0.250000X-0.225000X0.250000X0.225000X-0.250000X0.225000X-0.250000X-0.225000X0*%
%TD*%
%TA.AperFunction,SMDPad,CuDef*%
%ADD17RoundRect,0.060000X-0.715000X0.240000X-0.715000X-0.240000X0.715000X-0.240000X0.715000X0.240000X0*%
%TD*%
%TA.AperFunction,SMDPad,CuDef*%
%ADD18RoundRect,0.120000X-0.780000X0.480000X-0.780000X-0.480000X0.780000X-0.480000X0.780000X0.480000X0*%
%TD*%
%TA.AperFunction,SMDPad,CuDef*%
%ADD19RoundRect,0.150000X0.150000X-0.587500X0.150000X0.587500X-0.150000X0.587500X-0.150000X-0.587500X0*%
%TD*%
%TA.AperFunction,SMDPad,CuDef*%
%ADD20RoundRect,0.150000X-0.625000X0.150000X-0.625000X-0.150000X0.625000X-0.150000X0.625000X0.150000X0*%
%TD*%
%TA.AperFunction,SMDPad,CuDef*%
%ADD21RoundRect,0.250000X-0.650000X0.350000X-0.650000X-0.350000X0.650000X-0.350000X0.650000X0.350000X0*%
%TD*%
%TA.AperFunction,SMDPad,CuDef*%
%ADD22RoundRect,0.135000X-0.185000X0.135000X-0.185000X-0.135000X0.185000X-0.135000X0.185000X0.135000X0*%
%TD*%
%TA.AperFunction,SMDPad,CuDef*%
%ADD23RoundRect,0.250000X-1.500000X0.250000X-1.500000X-0.250000X1.500000X-0.250000X1.500000X0.250000X0*%
%TD*%
%TA.AperFunction,SMDPad,CuDef*%
%ADD24RoundRect,0.250001X-1.449999X0.499999X-1.449999X-0.499999X1.449999X-0.499999X1.449999X0.499999X0*%
%TD*%
%TA.AperFunction,SMDPad,CuDef*%
%ADD25RoundRect,0.140000X0.140000X0.170000X-0.140000X0.170000X-0.140000X-0.170000X0.140000X-0.170000X0*%
%TD*%
%TA.AperFunction,ComponentPad*%
%ADD26C,0.800000*%
%TD*%
%TA.AperFunction,ComponentPad*%
%ADD27C,6.000000*%
%TD*%
%TA.AperFunction,SMDPad,CuDef*%
%ADD28R,1.100000X1.100000*%
%TD*%
%TA.AperFunction,SMDPad,CuDef*%
%ADD29RoundRect,0.135000X0.185000X-0.135000X0.185000X0.135000X-0.185000X0.135000X-0.185000X-0.135000X0*%
%TD*%
%TA.AperFunction,SMDPad,CuDef*%
%ADD30RoundRect,0.225000X-0.250000X0.225000X-0.250000X-0.225000X0.250000X-0.225000X0.250000X0.225000X0*%
%TD*%
%TA.AperFunction,SMDPad,CuDef*%
%ADD31RoundRect,0.234375X-1.465625X0.515625X-1.465625X-0.515625X1.465625X-0.515625X1.465625X0.515625X0*%
%TD*%
%TA.AperFunction,SMDPad,CuDef*%
%ADD32RoundRect,0.075000X0.350000X0.075000X-0.350000X0.075000X-0.350000X-0.075000X0.350000X-0.075000X0*%
%TD*%
%TA.AperFunction,SMDPad,CuDef*%
%ADD33RoundRect,0.075000X-0.075000X0.350000X-0.075000X-0.350000X0.075000X-0.350000X0.075000X0.350000X0*%
%TD*%
%TA.AperFunction,SMDPad,CuDef*%
%ADD34RoundRect,0.090000X-0.660000X-0.360000X0.660000X-0.360000X0.660000X0.360000X-0.660000X0.360000X0*%
%TD*%
%TA.AperFunction,SMDPad,CuDef*%
%ADD35RoundRect,0.090500X-0.659500X-0.362000X0.659500X-0.362000X0.659500X0.362000X-0.659500X0.362000X0*%
%TD*%
%TA.AperFunction,SMDPad,CuDef*%
%ADD36RoundRect,0.100000X0.000000X-0.565685X0.565685X0.000000X0.000000X0.565685X-0.565685X0.000000X0*%
%TD*%
%TA.AperFunction,SMDPad,CuDef*%
%ADD37RoundRect,0.140000X-0.140000X-0.170000X0.140000X-0.170000X0.140000X0.170000X-0.140000X0.170000X0*%
%TD*%
%TA.AperFunction,SMDPad,CuDef*%
%ADD38RoundRect,0.140000X0.170000X-0.140000X0.170000X0.140000X-0.170000X0.140000X-0.170000X-0.140000X0*%
%TD*%
%TA.AperFunction,SMDPad,CuDef*%
%ADD39RoundRect,0.140000X-0.170000X0.140000X-0.170000X-0.140000X0.170000X-0.140000X0.170000X0.140000X0*%
%TD*%
%TA.AperFunction,ComponentPad*%
%ADD40R,2.000000X2.000000*%
%TD*%
%TA.AperFunction,SMDPad,CuDef*%
%ADD41RoundRect,0.250000X1.500000X-0.250000X1.500000X0.250000X-1.500000X0.250000X-1.500000X-0.250000X0*%
%TD*%
%TA.AperFunction,SMDPad,CuDef*%
%ADD42RoundRect,0.250001X1.449999X-0.499999X1.449999X0.499999X-1.449999X0.499999X-1.449999X-0.499999X0*%
%TD*%
%TA.AperFunction,SMDPad,CuDef*%
%ADD43RoundRect,0.060000X-0.602500X-0.240000X0.602500X-0.240000X0.602500X0.240000X-0.602500X0.240000X0*%
%TD*%
%TA.AperFunction,SMDPad,CuDef*%
%ADD44R,0.800000X1.000000*%
%TD*%
%TA.AperFunction,SMDPad,CuDef*%
%ADD45R,1.500000X0.700000*%
%TD*%
%TA.AperFunction,ComponentPad*%
%ADD46R,3.500000X3.500000*%
%TD*%
%TA.AperFunction,ComponentPad*%
%ADD47C,3.500000*%
%TD*%
%TA.AperFunction,ViaPad*%
%ADD48C,0.800000*%
%TD*%
%TA.AperFunction,Conductor*%
%ADD49C,0.600000*%
%TD*%
%TA.AperFunction,Conductor*%
%ADD50C,0.300000*%
%TD*%
%TA.AperFunction,Conductor*%
%ADD51C,0.250000*%
%TD*%
%TA.AperFunction,Conductor*%
%ADD52C,0.500000*%
%TD*%
%TA.AperFunction,Conductor*%
%ADD53C,0.750000*%
%TD*%
%TA.AperFunction,Conductor*%
%ADD54C,1.000000*%
%TD*%
G04 APERTURE END LIST*
D10*
D11*
X122535714Y-129565476D02*
X123250000Y-129565476D01*
X122892857Y-130815476D02*
X122892857Y-129565476D01*
X124261904Y-130815476D02*
X123666666Y-130815476D01*
X123666666Y-129565476D01*
X124678571Y-130339285D02*
X125630952Y-130339285D01*
X126226190Y-130815476D02*
X126226190Y-129565476D01*
X126940476Y-130815476D01*
X126940476Y-129565476D01*
X127714285Y-130815476D02*
X127595238Y-130755952D01*
X127535714Y-130696428D01*
X127476190Y-130577380D01*
X127476190Y-130220238D01*
X127535714Y-130101190D01*
X127595238Y-130041666D01*
X127714285Y-129982142D01*
X127892857Y-129982142D01*
X128011904Y-130041666D01*
X128071428Y-130101190D01*
X128130952Y-130220238D01*
X128130952Y-130577380D01*
X128071428Y-130696428D01*
X128011904Y-130755952D01*
X127892857Y-130815476D01*
X127714285Y-130815476D01*
X129202380Y-130815476D02*
X129202380Y-129565476D01*
X129202380Y-130755952D02*
X129083333Y-130815476D01*
X128845238Y-130815476D01*
X128726190Y-130755952D01*
X128666666Y-130696428D01*
X128607142Y-130577380D01*
X128607142Y-130220238D01*
X128666666Y-130101190D01*
X128726190Y-130041666D01*
X128845238Y-129982142D01*
X129083333Y-129982142D01*
X129202380Y-130041666D01*
X130273809Y-130755952D02*
X130154761Y-130815476D01*
X129916666Y-130815476D01*
X129797619Y-130755952D01*
X129738095Y-130636904D01*
X129738095Y-130160714D01*
X129797619Y-130041666D01*
X129916666Y-129982142D01*
X130154761Y-129982142D01*
X130273809Y-130041666D01*
X130333333Y-130160714D01*
X130333333Y-130279761D01*
X129738095Y-130398809D01*
X132535714Y-130815476D02*
X132119047Y-130220238D01*
X131821428Y-130815476D02*
X131821428Y-129565476D01*
X132297619Y-129565476D01*
X132416666Y-129625000D01*
X132476190Y-129684523D01*
X132535714Y-129803571D01*
X132535714Y-129982142D01*
X132476190Y-130101190D01*
X132416666Y-130160714D01*
X132297619Y-130220238D01*
X131821428Y-130220238D01*
X133547619Y-130755952D02*
X133428571Y-130815476D01*
X133190476Y-130815476D01*
X133071428Y-130755952D01*
X133011904Y-130636904D01*
X133011904Y-130160714D01*
X133071428Y-130041666D01*
X133190476Y-129982142D01*
X133428571Y-129982142D01*
X133547619Y-130041666D01*
X133607142Y-130160714D01*
X133607142Y-130279761D01*
X133011904Y-130398809D01*
X134023809Y-129982142D02*
X134321428Y-130815476D01*
X134619047Y-129982142D01*
X135095238Y-130696428D02*
X135154761Y-130755952D01*
X135095238Y-130815476D01*
X135035714Y-130755952D01*
X135095238Y-130696428D01*
X135095238Y-130815476D01*
X135928571Y-129565476D02*
X136047619Y-129565476D01*
X136166666Y-129625000D01*
X136226190Y-129684523D01*
X136285714Y-129803571D01*
X136345238Y-130041666D01*
X136345238Y-130339285D01*
X136285714Y-130577380D01*
X136226190Y-130696428D01*
X136166666Y-130755952D01*
X136047619Y-130815476D01*
X135928571Y-130815476D01*
X135809523Y-130755952D01*
X135750000Y-130696428D01*
X135690476Y-130577380D01*
X135630952Y-130339285D01*
X135630952Y-130041666D01*
X135690476Y-129803571D01*
X135750000Y-129684523D01*
X135809523Y-129625000D01*
X135928571Y-129565476D01*
%TO.C,G\u002A\u002A\u002A*%
G36*
X77997344Y-129390637D02*
G01*
X78094627Y-129335075D01*
X78201400Y-129324448D01*
X78305450Y-129356099D01*
X78394563Y-129427372D01*
X78456527Y-129535612D01*
X78475194Y-129614141D01*
X78492469Y-129742959D01*
X78259043Y-129742959D01*
X78141667Y-129743948D01*
X78072886Y-129749328D01*
X78040681Y-129762723D01*
X78033031Y-129787757D01*
X78035303Y-129810399D01*
X78072523Y-129881663D01*
X78146671Y-129924820D01*
X78236790Y-129929761D01*
X78265752Y-129921554D01*
X78343586Y-129906837D01*
X78412895Y-129916664D01*
X78451741Y-129946708D01*
X78454177Y-129958720D01*
X78428329Y-129989009D01*
X78365083Y-130024463D01*
X78285890Y-130055689D01*
X78212197Y-130073293D01*
X78189936Y-130074451D01*
X78116220Y-130061307D01*
X78075299Y-130047718D01*
X77979330Y-129978038D01*
X77913288Y-129869058D01*
X77881512Y-129736432D01*
X77888342Y-129595818D01*
X77892283Y-129583785D01*
X78030804Y-129583785D01*
X78079388Y-129611963D01*
X78181385Y-129621718D01*
X78277148Y-129616710D01*
X78323751Y-129599560D01*
X78332936Y-129576952D01*
X78309654Y-129529487D01*
X78257160Y-129482535D01*
X78197837Y-129450465D01*
X78151192Y-129455652D01*
X78105609Y-129482535D01*
X78039073Y-129539777D01*
X78030804Y-129583785D01*
X77892283Y-129583785D01*
X77921762Y-129493788D01*
X77997344Y-129390637D01*
G37*
G36*
X79914737Y-130506185D02*
G01*
X79951204Y-130520667D01*
X79980797Y-130559764D01*
X80009686Y-130635350D01*
X80041843Y-130750776D01*
X80072582Y-130860070D01*
X80100353Y-130942280D01*
X80120280Y-130983424D01*
X80123787Y-130985680D01*
X80141842Y-130958846D01*
X80171232Y-130887496D01*
X80206489Y-130785357D01*
X80217389Y-130750776D01*
X80258572Y-130627848D01*
X80292528Y-130554484D01*
X80324590Y-130520941D01*
X80346007Y-130515871D01*
X80378490Y-130529102D01*
X80410670Y-130575008D01*
X80447579Y-130662913D01*
X80485108Y-130773508D01*
X80524586Y-130893044D01*
X80553383Y-130960839D01*
X80577041Y-130975462D01*
X80601105Y-130935484D01*
X80631118Y-130839474D01*
X80661348Y-130728043D01*
X80695448Y-130613096D01*
X80725708Y-130545676D01*
X80758825Y-130513608D01*
X80783443Y-130506185D01*
X80818735Y-130504373D01*
X80838732Y-130517139D01*
X80842516Y-130552798D01*
X80829168Y-130619668D01*
X80797772Y-130726064D01*
X80747408Y-130880302D01*
X80739528Y-130903975D01*
X80690767Y-131046567D01*
X80654441Y-131140426D01*
X80625490Y-131194861D01*
X80598849Y-131219180D01*
X80569457Y-131222691D01*
X80566407Y-131222290D01*
X80528631Y-131205000D01*
X80495329Y-131157842D01*
X80460108Y-131069536D01*
X80434704Y-130989825D01*
X80400622Y-130881695D01*
X80371905Y-130798082D01*
X80353877Y-130754324D01*
X80352064Y-130751746D01*
X80337206Y-130771451D01*
X80310594Y-130836910D01*
X80277123Y-130935587D01*
X80264914Y-130974928D01*
X80224927Y-131097393D01*
X80191877Y-131172056D01*
X80159426Y-131210261D01*
X80126505Y-131222711D01*
X80069268Y-131214791D01*
X80047718Y-131192400D01*
X80033388Y-131147735D01*
X80005069Y-131059985D01*
X79967469Y-130943730D01*
X79941767Y-130864364D01*
X79893507Y-130712498D01*
X79864324Y-130609232D01*
X79853562Y-130545849D01*
X79860561Y-130513630D01*
X79884665Y-130503859D01*
X79914737Y-130506185D01*
G37*
G36*
X77944198Y-130881092D02*
G01*
X78044442Y-130826057D01*
X78191344Y-130804118D01*
X78213668Y-130803819D01*
X78292825Y-130798178D01*
X78327265Y-130776403D01*
X78332936Y-130746909D01*
X78308881Y-130671949D01*
X78237504Y-130633941D01*
X78119985Y-130633474D01*
X78108572Y-130635084D01*
X78011195Y-130639545D01*
X77954387Y-130621666D01*
X77944785Y-130586493D01*
X77985530Y-130541583D01*
X78073987Y-130507131D01*
X78186850Y-130502039D01*
X78301289Y-130523119D01*
X78394477Y-130567184D01*
X78430980Y-130603762D01*
X78440592Y-130646926D01*
X78448222Y-130735681D01*
X78452832Y-130855005D01*
X78453713Y-130932619D01*
X78454177Y-131228126D01*
X78355669Y-131222950D01*
X78259578Y-131225495D01*
X78181385Y-131237625D01*
X78096911Y-131239189D01*
X78010108Y-131215236D01*
X77927082Y-131154368D01*
X77894427Y-131081116D01*
X77893823Y-131020042D01*
X78009179Y-131020042D01*
X78029833Y-131061456D01*
X78085608Y-131094080D01*
X78166081Y-131106946D01*
X78246978Y-131100265D01*
X78304024Y-131074247D01*
X78314538Y-131058977D01*
X78333942Y-130982994D01*
X78312915Y-130941795D01*
X78243616Y-130926192D01*
X78200251Y-130925060D01*
X78093416Y-130937541D01*
X78027317Y-130971129D01*
X78009179Y-131020042D01*
X77893823Y-131020042D01*
X77893297Y-130966890D01*
X77944198Y-130881092D01*
G37*
G36*
X81960772Y-129334280D02*
G01*
X81976668Y-129353272D01*
X82000338Y-129372770D01*
X82052977Y-129353272D01*
X82142298Y-129322267D01*
X82220462Y-129322837D01*
X82273855Y-129350279D01*
X82288862Y-129399894D01*
X82278016Y-129430990D01*
X82229634Y-129475744D01*
X82161223Y-129479441D01*
X82085849Y-129476667D01*
X82034804Y-129497556D01*
X82002833Y-129551209D01*
X81984681Y-129646727D01*
X81975094Y-129793212D01*
X81974729Y-129802455D01*
X81968439Y-129932949D01*
X81959976Y-130014183D01*
X81946511Y-130057517D01*
X81925217Y-130074309D01*
X81906531Y-130076372D01*
X81882589Y-130072239D01*
X81866373Y-130053306D01*
X81856392Y-130009770D01*
X81851156Y-129931829D01*
X81849175Y-129809680D01*
X81848926Y-129697494D01*
X81849542Y-129540069D01*
X81852391Y-129433448D01*
X81858978Y-129367822D01*
X81870808Y-129333377D01*
X81889384Y-129320305D01*
X81907021Y-129318616D01*
X81960772Y-129334280D01*
G37*
G36*
X82999992Y-129512756D02*
G01*
X83028884Y-129462042D01*
X83081876Y-129409451D01*
X83084548Y-129407060D01*
X83195051Y-129335870D01*
X83307927Y-129322896D01*
X83407018Y-129353126D01*
X83480519Y-129414154D01*
X83540336Y-129512203D01*
X83573605Y-129623680D01*
X83576611Y-129664187D01*
X83574142Y-129704102D01*
X83558257Y-129727571D01*
X83516236Y-129738960D01*
X83435361Y-129742637D01*
X83347176Y-129742959D01*
X83231034Y-129743984D01*
X83163396Y-129749534D01*
X83132152Y-129763327D01*
X83125191Y-129789080D01*
X83127427Y-129810399D01*
X83164647Y-129881663D01*
X83238795Y-129924820D01*
X83328915Y-129929761D01*
X83357876Y-129921554D01*
X83435710Y-129906837D01*
X83505019Y-129916664D01*
X83543865Y-129946708D01*
X83546301Y-129958720D01*
X83520453Y-129989009D01*
X83457208Y-130024463D01*
X83378014Y-130055689D01*
X83304321Y-130073293D01*
X83282060Y-130074451D01*
X83208344Y-130061307D01*
X83167423Y-130047718D01*
X83072490Y-129989002D01*
X83014582Y-129900255D01*
X82988408Y-129771123D01*
X82985561Y-129691826D01*
X82987933Y-129583785D01*
X83122928Y-129583785D01*
X83171512Y-129611963D01*
X83273509Y-129621718D01*
X83369272Y-129616710D01*
X83415875Y-129599560D01*
X83425060Y-129576952D01*
X83401778Y-129529487D01*
X83349284Y-129482535D01*
X83289961Y-129450465D01*
X83243316Y-129455652D01*
X83197733Y-129482535D01*
X83131197Y-129539777D01*
X83122928Y-129583785D01*
X82987933Y-129583785D01*
X82987963Y-129582412D01*
X82999992Y-129512756D01*
G37*
G36*
X78770929Y-130514592D02*
G01*
X78796430Y-130538604D01*
X78816670Y-130561292D01*
X78850484Y-130538604D01*
X78919131Y-130507721D01*
X79009581Y-130504177D01*
X79088743Y-130529180D01*
X79112949Y-130567200D01*
X79091528Y-130607783D01*
X79037519Y-130638226D01*
X78968604Y-130646237D01*
X78888973Y-130649654D01*
X78835939Y-130680180D01*
X78804646Y-130746613D01*
X78790237Y-130857754D01*
X78787590Y-130974236D01*
X78786869Y-131097906D01*
X78782300Y-131173045D01*
X78770277Y-131211742D01*
X78747192Y-131226084D01*
X78711814Y-131228162D01*
X78636039Y-131228162D01*
X78636039Y-130500716D01*
X78709288Y-130500716D01*
X78770929Y-130514592D01*
G37*
G36*
X81182338Y-129323809D02*
G01*
X81200479Y-129347626D01*
X81209391Y-129402421D01*
X81212250Y-129500548D01*
X81212411Y-129554354D01*
X81221556Y-129722552D01*
X81250347Y-129837314D01*
X81300814Y-129903210D01*
X81374990Y-129924809D01*
X81377125Y-129924821D01*
X81436943Y-129914997D01*
X81477421Y-129879203D01*
X81502653Y-129807959D01*
X81516732Y-129691784D01*
X81521767Y-129589898D01*
X81527245Y-129464937D01*
X81535436Y-129388145D01*
X81549950Y-129347075D01*
X81574397Y-129329284D01*
X81598867Y-129324085D01*
X81627052Y-129321988D01*
X81646154Y-129331570D01*
X81657940Y-129362449D01*
X81664176Y-129424240D01*
X81666629Y-129526561D01*
X81667064Y-129679028D01*
X81667065Y-129695386D01*
X81666356Y-129853731D01*
X81663305Y-129961166D01*
X81656521Y-130027394D01*
X81644614Y-130062118D01*
X81626196Y-130075041D01*
X81612506Y-130076372D01*
X81547357Y-130059093D01*
X81524830Y-130043254D01*
X81477832Y-130025729D01*
X81429829Y-130043254D01*
X81339935Y-130073352D01*
X81253484Y-130054465D01*
X81227566Y-130041372D01*
X81167664Y-130001484D01*
X81128118Y-129951545D01*
X81104884Y-129878938D01*
X81093916Y-129771044D01*
X81091170Y-129615925D01*
X81092032Y-129479536D01*
X81096125Y-129392684D01*
X81105705Y-129344298D01*
X81123032Y-129323301D01*
X81150363Y-129318620D01*
X81151790Y-129318616D01*
X81182338Y-129323809D01*
G37*
G36*
X80042619Y-129331237D02*
G01*
X80136516Y-129360822D01*
X80187207Y-129402157D01*
X80187655Y-129447799D01*
X80170767Y-129466797D01*
X80116515Y-129486544D01*
X80042758Y-129469138D01*
X79944256Y-129447733D01*
X79867761Y-129460611D01*
X79826513Y-129503538D01*
X79823749Y-129539165D01*
X79840282Y-129581589D01*
X79884941Y-129607662D01*
X79973203Y-129625877D01*
X79984845Y-129627568D01*
X80109135Y-129665167D01*
X80195398Y-129729974D01*
X80240865Y-129810734D01*
X80242766Y-129896193D01*
X80198332Y-129975094D01*
X80104792Y-130036183D01*
X80087048Y-130042874D01*
X79957343Y-130072515D01*
X79839508Y-130058862D01*
X79768734Y-130032714D01*
X79681310Y-129984909D01*
X79651720Y-129941126D01*
X79677641Y-129897915D01*
X79677862Y-129897731D01*
X79723958Y-129881318D01*
X79796385Y-129897224D01*
X79834184Y-129911991D01*
X79940208Y-129938513D01*
X80026350Y-129927285D01*
X80079794Y-129882121D01*
X80090931Y-129835584D01*
X80080365Y-129797926D01*
X80039370Y-129774236D01*
X79954001Y-129757282D01*
X79934878Y-129754656D01*
X79793692Y-129718255D01*
X79703911Y-129654116D01*
X79667372Y-129563670D01*
X79666587Y-129545943D01*
X79693802Y-129449604D01*
X79767355Y-129376178D01*
X79875107Y-129332596D01*
X80004921Y-129325789D01*
X80042619Y-129331237D01*
G37*
G36*
X82796812Y-129354894D02*
G01*
X82807072Y-129359585D01*
X82884156Y-129404654D01*
X82905952Y-129445037D01*
X82876146Y-129490084D01*
X82863036Y-129501543D01*
X82814428Y-129524305D01*
X82781198Y-129505255D01*
X82728287Y-129480918D01*
X82648412Y-129470192D01*
X82644540Y-129470167D01*
X82573294Y-129478405D01*
X82529705Y-129514371D01*
X82497558Y-129578852D01*
X82474355Y-129681945D01*
X82482483Y-129785036D01*
X82517774Y-129867895D01*
X82565163Y-129906986D01*
X82658240Y-129924213D01*
X82744676Y-129911117D01*
X82782699Y-129888232D01*
X82822243Y-129868915D01*
X82865480Y-129897836D01*
X82894225Y-129937075D01*
X82878498Y-129972549D01*
X82853868Y-129996341D01*
X82767221Y-130043009D01*
X82655631Y-130064788D01*
X82551523Y-130056378D01*
X82530907Y-130049130D01*
X82434617Y-129987458D01*
X82376610Y-129896689D01*
X82351284Y-129765972D01*
X82349046Y-129696754D01*
X82353027Y-129582331D01*
X82368763Y-129507263D01*
X82401943Y-129450589D01*
X82422091Y-129427608D01*
X82532510Y-129351270D01*
X82663001Y-129326046D01*
X82796812Y-129354894D01*
G37*
G36*
X82290088Y-130571220D02*
G01*
X82388443Y-130513493D01*
X82470287Y-130500716D01*
X82591599Y-130528180D01*
X82687158Y-130602630D01*
X82745561Y-130712159D01*
X82758234Y-130801487D01*
X82758234Y-130925060D01*
X82530907Y-130925060D01*
X82409612Y-130927688D01*
X82338518Y-130936872D01*
X82307384Y-130954564D01*
X82303580Y-130968360D01*
X82330005Y-131036500D01*
X82396576Y-131084686D01*
X82484241Y-131106011D01*
X82573946Y-131093566D01*
X82605666Y-131077881D01*
X82662459Y-131070799D01*
X82712674Y-131102260D01*
X82727924Y-131142489D01*
X82702563Y-131170250D01*
X82641095Y-131205341D01*
X82565441Y-131237559D01*
X82497524Y-131256700D01*
X82478838Y-131258425D01*
X82427981Y-131245603D01*
X82351586Y-131213967D01*
X82333891Y-131205382D01*
X82238778Y-131129203D01*
X82182081Y-131024211D01*
X82161333Y-130903161D01*
X82174064Y-130778810D01*
X82176370Y-130772754D01*
X82308909Y-130772754D01*
X82364002Y-130796733D01*
X82469310Y-130803819D01*
X82563549Y-130802266D01*
X82609718Y-130793553D01*
X82620358Y-130771600D01*
X82609967Y-130735621D01*
X82557168Y-130664091D01*
X82478783Y-130631924D01*
X82396479Y-130645226D01*
X82365119Y-130666592D01*
X82309753Y-130729996D01*
X82308909Y-130772754D01*
X82176370Y-130772754D01*
X82217806Y-130663911D01*
X82290088Y-130571220D01*
G37*
G36*
X79166243Y-130665823D02*
G01*
X79192861Y-130612682D01*
X79228824Y-130572000D01*
X79326431Y-130513967D01*
X79448000Y-130511368D01*
X79552924Y-130544805D01*
X79582159Y-130551086D01*
X79598176Y-130529881D01*
X79604819Y-130469446D01*
X79605967Y-130382718D01*
X79608103Y-130280049D01*
X79617515Y-130224177D01*
X79638709Y-130201342D01*
X79666587Y-130197613D01*
X79688674Y-130200314D01*
X79704626Y-130214060D01*
X79715437Y-130247318D01*
X79722105Y-130308554D01*
X79725625Y-130406233D01*
X79726993Y-130548821D01*
X79727208Y-130712888D01*
X79726890Y-130900627D01*
X79725273Y-131036212D01*
X79721360Y-131128109D01*
X79714156Y-131184784D01*
X79702665Y-131214704D01*
X79685889Y-131226334D01*
X79666587Y-131228162D01*
X79617324Y-131216110D01*
X79605967Y-131199399D01*
X79581738Y-131191204D01*
X79521497Y-131206489D01*
X79500855Y-131214554D01*
X79430868Y-131242486D01*
X79390199Y-131256233D01*
X79387191Y-131256551D01*
X79355904Y-131245122D01*
X79313685Y-131228417D01*
X79231059Y-131173779D01*
X79179300Y-131084291D01*
X79154661Y-130951370D01*
X79151313Y-130856317D01*
X79151688Y-130841079D01*
X79304215Y-130841079D01*
X79307186Y-130941941D01*
X79320058Y-131027125D01*
X79339237Y-131070549D01*
X79409921Y-131103772D01*
X79492356Y-131095413D01*
X79549213Y-131056797D01*
X79575260Y-130993988D01*
X79588276Y-130899943D01*
X79587873Y-130798993D01*
X79573665Y-130715472D01*
X79555197Y-130680304D01*
X79494114Y-130651081D01*
X79415303Y-130647401D01*
X79348640Y-130668457D01*
X79330192Y-130686366D01*
X79311699Y-130748051D01*
X79304215Y-130841079D01*
X79151688Y-130841079D01*
X79154162Y-130740550D01*
X79166243Y-130665823D01*
G37*
G36*
X80932505Y-130906865D02*
G01*
X81004046Y-130848120D01*
X81116061Y-130812030D01*
X81210418Y-130803819D01*
X81289369Y-130799812D01*
X81324785Y-130780910D01*
X81333582Y-130736794D01*
X81333652Y-130728620D01*
X81308327Y-130664741D01*
X81243828Y-130629532D01*
X81157366Y-130629406D01*
X81109727Y-130645202D01*
X81040669Y-130657455D01*
X80976160Y-130641604D01*
X80940968Y-130604959D01*
X80939618Y-130595006D01*
X80966808Y-130561233D01*
X81036116Y-130530094D01*
X81129151Y-130507882D01*
X81215215Y-130500716D01*
X81325673Y-130517553D01*
X81410602Y-130574911D01*
X81410805Y-130575114D01*
X81445628Y-130614712D01*
X81467511Y-130658638D01*
X81479422Y-130721435D01*
X81484326Y-130817644D01*
X81485203Y-130939787D01*
X81485203Y-131230061D01*
X81386695Y-131225848D01*
X81283401Y-131228410D01*
X81197256Y-131238785D01*
X81116961Y-131245633D01*
X81060860Y-131238094D01*
X80973871Y-131177628D01*
X80919378Y-131088164D01*
X80912837Y-131043494D01*
X81035616Y-131043494D01*
X81042184Y-131063212D01*
X81074135Y-131094256D01*
X81145564Y-131103105D01*
X81189401Y-131101100D01*
X81271732Y-131090757D01*
X81311487Y-131067543D01*
X81326705Y-131019403D01*
X81328088Y-131008413D01*
X81330012Y-130957593D01*
X81310241Y-130933225D01*
X81253681Y-130925615D01*
X81198318Y-130925060D01*
X81091400Y-130937605D01*
X81037860Y-130976469D01*
X81035616Y-131043494D01*
X80912837Y-131043494D01*
X80904858Y-130988999D01*
X80932505Y-130906865D01*
G37*
G36*
X80351164Y-129583020D02*
G01*
X80362845Y-129513371D01*
X80391311Y-129462802D01*
X80443718Y-129410568D01*
X80447555Y-129407129D01*
X80558909Y-129335907D01*
X80672702Y-129323745D01*
X80783671Y-129361808D01*
X80875205Y-129440958D01*
X80926716Y-129563864D01*
X80939618Y-129697494D01*
X80920164Y-129857253D01*
X80861301Y-129971936D01*
X80783671Y-130033180D01*
X80668175Y-130071412D01*
X80556143Y-130057324D01*
X80530430Y-130047718D01*
X80436211Y-129989536D01*
X80378606Y-129901554D01*
X80352247Y-129773257D01*
X80349305Y-129697494D01*
X80484965Y-129697494D01*
X80493522Y-129788839D01*
X80514325Y-129862200D01*
X80516341Y-129866193D01*
X80570369Y-129911177D01*
X80649588Y-129924162D01*
X80726924Y-129903861D01*
X80759097Y-129877741D01*
X80783435Y-129819237D01*
X80797095Y-129729780D01*
X80798171Y-129697494D01*
X80783552Y-129574455D01*
X80737487Y-129500526D01*
X80656658Y-129471118D01*
X80633871Y-129470167D01*
X80551991Y-129492635D01*
X80503075Y-129562063D01*
X80485133Y-129681486D01*
X80484965Y-129697494D01*
X80349305Y-129697494D01*
X80349111Y-129692494D01*
X80351164Y-129583020D01*
G37*
G36*
X77186748Y-129511398D02*
G01*
X77191375Y-129425973D01*
X77198001Y-129370184D01*
X77206980Y-129337832D01*
X77218665Y-129322722D01*
X77233411Y-129318656D01*
X77235704Y-129318616D01*
X77300854Y-129335895D01*
X77323381Y-129351734D01*
X77370379Y-129369259D01*
X77418381Y-129351734D01*
X77527383Y-129320488D01*
X77627738Y-129349091D01*
X77682643Y-129393014D01*
X77721487Y-129438822D01*
X77743952Y-129491037D01*
X77754360Y-129567263D01*
X77757032Y-129685104D01*
X77757041Y-129696116D01*
X77754061Y-129822022D01*
X77742895Y-129903608D01*
X77720201Y-129956981D01*
X77697191Y-129984671D01*
X77596678Y-130051901D01*
X77490726Y-130064971D01*
X77408252Y-130033549D01*
X77332697Y-129984044D01*
X77332697Y-130273757D01*
X77333367Y-130407165D01*
X77336888Y-130489939D01*
X77345525Y-130532059D01*
X77361542Y-130543508D01*
X77387207Y-130534269D01*
X77391325Y-130532093D01*
X77506139Y-130501981D01*
X77618321Y-130528188D01*
X77682643Y-130575114D01*
X77717517Y-130614787D01*
X77739410Y-130658810D01*
X77751305Y-130721761D01*
X77756183Y-130818220D01*
X77757041Y-130938837D01*
X77756134Y-131073048D01*
X77751845Y-131157866D01*
X77741823Y-131204511D01*
X77723719Y-131224202D01*
X77696420Y-131228162D01*
X77664444Y-131222388D01*
X77646186Y-131196386D01*
X77637893Y-131137142D01*
X77635811Y-131031637D01*
X77635800Y-131017964D01*
X77631812Y-130899666D01*
X77621392Y-130796438D01*
X77607815Y-130734159D01*
X77554436Y-130663852D01*
X77476560Y-130642594D01*
X77395279Y-130672492D01*
X77364198Y-130701405D01*
X77345401Y-130744066D01*
X77335930Y-130814640D01*
X77332828Y-130927292D01*
X77332697Y-130972244D01*
X77331990Y-131096500D01*
X77327491Y-131172178D01*
X77315635Y-131211320D01*
X77292855Y-131225967D01*
X77256922Y-131228162D01*
X77181146Y-131228162D01*
X77181146Y-130273389D01*
X77181319Y-130007454D01*
X77182074Y-129795941D01*
X77183094Y-129697494D01*
X77332697Y-129697494D01*
X77342431Y-129817918D01*
X77375720Y-129889401D01*
X77438691Y-129921065D01*
X77485445Y-129924821D01*
X77560846Y-129902255D01*
X77600624Y-129847619D01*
X77634195Y-129703646D01*
X77608171Y-129553086D01*
X77606240Y-129547916D01*
X77564147Y-129487093D01*
X77491061Y-129470167D01*
X77407555Y-129483842D01*
X77357984Y-129531214D01*
X77335716Y-129621803D01*
X77332697Y-129697494D01*
X77183094Y-129697494D01*
X77183766Y-129632655D01*
X77186748Y-129511398D01*
G37*
G36*
X81778910Y-130516380D02*
G01*
X81794806Y-130535373D01*
X81818476Y-130554871D01*
X81871115Y-130535373D01*
X81952918Y-130507698D01*
X82036292Y-130502821D01*
X82096628Y-130521058D01*
X82107384Y-130532354D01*
X82109578Y-130581015D01*
X82066320Y-130622297D01*
X81992618Y-130644389D01*
X81963668Y-130645443D01*
X81886141Y-130655491D01*
X81834105Y-130696307D01*
X81803412Y-130776078D01*
X81789910Y-130902992D01*
X81788306Y-130991473D01*
X81786981Y-131110551D01*
X81780899Y-131181361D01*
X81766903Y-131216235D01*
X81741834Y-131227502D01*
X81727685Y-131228162D01*
X81702096Y-131224594D01*
X81684935Y-131207191D01*
X81674528Y-131165908D01*
X81669201Y-131090699D01*
X81667280Y-130971519D01*
X81667065Y-130864439D01*
X81667725Y-130710707D01*
X81670773Y-130607584D01*
X81677806Y-130545063D01*
X81690422Y-130513137D01*
X81710221Y-130501801D01*
X81725159Y-130500716D01*
X81778910Y-130516380D01*
G37*
G36*
X76456693Y-129578145D02*
G01*
X76470411Y-129506462D01*
X76501960Y-129451446D01*
X76546094Y-129403420D01*
X76613746Y-129344534D01*
X76675410Y-129322836D01*
X76762274Y-129327634D01*
X76765796Y-129328102D01*
X76890663Y-129364162D01*
X76973409Y-129436604D01*
X77018215Y-129551103D01*
X77029595Y-129686022D01*
X77022325Y-129826232D01*
X76996178Y-129921944D01*
X76944652Y-129988005D01*
X76878650Y-130030593D01*
X76765623Y-130070294D01*
X76658259Y-130061102D01*
X76616072Y-130046317D01*
X76530542Y-129987986D01*
X76478018Y-129891435D01*
X76455244Y-129749489D01*
X76454010Y-129700692D01*
X76574941Y-129700692D01*
X76594385Y-129807028D01*
X76644548Y-129883187D01*
X76713175Y-129922457D01*
X76788010Y-129918126D01*
X76856797Y-129863482D01*
X76861169Y-129857456D01*
X76903833Y-129757379D01*
X76905640Y-129652955D01*
X76872063Y-129559848D01*
X76808577Y-129493724D01*
X76725840Y-129470167D01*
X76643711Y-129491538D01*
X76594435Y-129558343D01*
X76575369Y-129674621D01*
X76574941Y-129700692D01*
X76454010Y-129700692D01*
X76453700Y-129688418D01*
X76456693Y-129578145D01*
G37*
G36*
X79032561Y-129339669D02*
G01*
X79111735Y-129391703D01*
X79150728Y-129428076D01*
X79175511Y-129465480D01*
X79189299Y-129517951D01*
X79195309Y-129599526D01*
X79196754Y-129724240D01*
X79196778Y-129763003D01*
X79196049Y-129899544D01*
X79192160Y-129986980D01*
X79182563Y-130036821D01*
X79164706Y-130060581D01*
X79136041Y-130069771D01*
X79128580Y-130070903D01*
X79096108Y-130072682D01*
X79076025Y-130059224D01*
X79065358Y-130019234D01*
X79061135Y-129941414D01*
X79060382Y-129814468D01*
X79060382Y-129811750D01*
X79056925Y-129662011D01*
X79043549Y-129562818D01*
X79015748Y-129504338D01*
X78969016Y-129476739D01*
X78903835Y-129470167D01*
X78839742Y-129482014D01*
X78796534Y-129523209D01*
X78770775Y-129602232D01*
X78759030Y-129727561D01*
X78757280Y-129831898D01*
X78756069Y-129953231D01*
X78750392Y-130026133D01*
X78737185Y-130062773D01*
X78713381Y-130075325D01*
X78695708Y-130076372D01*
X78638468Y-130059139D01*
X78618850Y-130036537D01*
X78613373Y-129991297D01*
X78610415Y-129899780D01*
X78610231Y-129776286D01*
X78612223Y-129665236D01*
X78616666Y-129519851D01*
X78622542Y-129424198D01*
X78632303Y-129367398D01*
X78648400Y-129338573D01*
X78673284Y-129326841D01*
X78689081Y-129324085D01*
X78744766Y-129331513D01*
X78757280Y-129363692D01*
X78762576Y-129395565D01*
X78789242Y-129389324D01*
X78824644Y-129365800D01*
X78928476Y-129322662D01*
X79032561Y-129339669D01*
G37*
G36*
X79860580Y-123745144D02*
G01*
X80008388Y-123748179D01*
X80378879Y-123756683D01*
X80454654Y-124134139D01*
X80530430Y-124511595D01*
X80757757Y-124610633D01*
X80871194Y-124657259D01*
X80968709Y-124692330D01*
X81032865Y-124709706D01*
X81041509Y-124710563D01*
X81088054Y-124694338D01*
X81171307Y-124649645D01*
X81278901Y-124583598D01*
X81382485Y-124514439D01*
X81497467Y-124436170D01*
X81594502Y-124372629D01*
X81662703Y-124330782D01*
X81690452Y-124317422D01*
X81720321Y-124337789D01*
X81781191Y-124391901D01*
X81862607Y-124469276D01*
X81954113Y-124559432D01*
X82045253Y-124651886D01*
X82125570Y-124736156D01*
X82184608Y-124801761D01*
X82211912Y-124838218D01*
X82212650Y-124840922D01*
X82196352Y-124873243D01*
X82152097Y-124944292D01*
X82086841Y-125043238D01*
X82015633Y-125147587D01*
X81937269Y-125262880D01*
X81873599Y-125360571D01*
X81831620Y-125429652D01*
X81818167Y-125458253D01*
X81828992Y-125496055D01*
X81858397Y-125575756D01*
X81901148Y-125683508D01*
X81926984Y-125746189D01*
X82036249Y-126008011D01*
X82773389Y-126151193D01*
X82782007Y-126497206D01*
X82783180Y-126665599D01*
X82777568Y-126789209D01*
X82765572Y-126861703D01*
X82758077Y-126876084D01*
X82716305Y-126894825D01*
X82628570Y-126919991D01*
X82508692Y-126947965D01*
X82400891Y-126969570D01*
X82076253Y-127030191D01*
X82009580Y-127166587D01*
X81957056Y-127280590D01*
X81902398Y-127408937D01*
X81882861Y-127457906D01*
X81822816Y-127612830D01*
X82017733Y-127904307D01*
X82094715Y-128021395D01*
X82157354Y-128120414D01*
X82198888Y-128190419D01*
X82212650Y-128219862D01*
X82192351Y-128249468D01*
X82137129Y-128312093D01*
X82055491Y-128398464D01*
X81959071Y-128496201D01*
X81705493Y-128748461D01*
X81403848Y-128547625D01*
X81102203Y-128346788D01*
X80960326Y-128426085D01*
X80877791Y-128470312D01*
X80832487Y-128485814D01*
X80809491Y-128474762D01*
X80797687Y-128449767D01*
X80779794Y-128405105D01*
X80742529Y-128314375D01*
X80689965Y-128187413D01*
X80626175Y-128034056D01*
X80555229Y-127864139D01*
X80555170Y-127863996D01*
X80485527Y-127695129D01*
X80424888Y-127543563D01*
X80376933Y-127418868D01*
X80345340Y-127330616D01*
X80333790Y-127288380D01*
X80333788Y-127288101D01*
X80357600Y-127243804D01*
X80416397Y-127190049D01*
X80437214Y-127175630D01*
X80580511Y-127049892D01*
X80694453Y-126883218D01*
X80742007Y-126774239D01*
X80782462Y-126574449D01*
X80767982Y-126376373D01*
X80703704Y-126189839D01*
X80594767Y-126024676D01*
X80446311Y-125890713D01*
X80263475Y-125797777D01*
X80225055Y-125785506D01*
X80017033Y-125754257D01*
X79816155Y-125778292D01*
X79631200Y-125852294D01*
X79470944Y-125970948D01*
X79344165Y-126128940D01*
X79259640Y-126320952D01*
X79244962Y-126379049D01*
X79231572Y-126579878D01*
X79272740Y-126778777D01*
X79363375Y-126963021D01*
X79498384Y-127119885D01*
X79561798Y-127170773D01*
X79634818Y-127229926D01*
X79679392Y-127279258D01*
X79686569Y-127301260D01*
X79628990Y-127447400D01*
X79562371Y-127610761D01*
X79490691Y-127782215D01*
X79417928Y-127952639D01*
X79348064Y-128112905D01*
X79285078Y-128253889D01*
X79232948Y-128366466D01*
X79195656Y-128441508D01*
X79177180Y-128469892D01*
X79176916Y-128469928D01*
X79134917Y-128457110D01*
X79061519Y-128424758D01*
X79025145Y-128406794D01*
X78901392Y-128343660D01*
X78639897Y-128523017D01*
X78528087Y-128599371D01*
X78433411Y-128663407D01*
X78367972Y-128706973D01*
X78345916Y-128720997D01*
X78313353Y-128707901D01*
X78248216Y-128658611D01*
X78159755Y-128580816D01*
X78057222Y-128482203D01*
X78050538Y-128475504D01*
X77787646Y-128211388D01*
X77986639Y-127913814D01*
X78185633Y-127616239D01*
X78069845Y-127324633D01*
X77954058Y-127033027D01*
X77256922Y-126905869D01*
X77248476Y-126526047D01*
X77240031Y-126146225D01*
X77609172Y-126072934D01*
X77978312Y-125999642D01*
X78095377Y-125728215D01*
X78212443Y-125456788D01*
X77779577Y-124826622D01*
X78032855Y-124572022D01*
X78134287Y-124472612D01*
X78221874Y-124391511D01*
X78286098Y-124337217D01*
X78317112Y-124318204D01*
X78353156Y-124334788D01*
X78427572Y-124379225D01*
X78529116Y-124444529D01*
X78634190Y-124515220D01*
X78751399Y-124593391D01*
X78852623Y-124656783D01*
X78926269Y-124698401D01*
X78959236Y-124711456D01*
X78999362Y-124701202D01*
X79078472Y-124674602D01*
X79179984Y-124637898D01*
X79287318Y-124597330D01*
X79383892Y-124559142D01*
X79453125Y-124529574D01*
X79477729Y-124516276D01*
X79486335Y-124485055D01*
X79503239Y-124406907D01*
X79525787Y-124294530D01*
X79545249Y-124193075D01*
X79571640Y-124054748D01*
X79595527Y-123932726D01*
X79613722Y-123843133D01*
X79621255Y-123808799D01*
X79630451Y-123779938D01*
X79648519Y-123760780D01*
X79685922Y-123749687D01*
X79753121Y-123745021D01*
X79860580Y-123745144D01*
G37*
%TD*%
D12*
%TO.P,R8,1*%
%TO.N,GND*%
X86240000Y-84525000D03*
%TO.P,R8,2*%
%TO.N,Net-(R7-Pad2)*%
X87260000Y-84525000D03*
%TD*%
D13*
%TO.P,R14,1*%
%TO.N,/3V3_MPU*%
X72060000Y-67700000D03*
%TO.P,R14,2*%
%TO.N,/SDA*%
X71040000Y-67700000D03*
%TD*%
D14*
%TO.P,U2,1,VIN*%
%TO.N,VBUS*%
X88637500Y-87975000D03*
%TO.P,U2,2,GND*%
%TO.N,GND*%
X88637500Y-87025000D03*
%TO.P,U2,3,CE*%
%TO.N,Net-(R7-Pad2)*%
X88637500Y-86075000D03*
%TO.P,U2,4,NC*%
%TO.N,unconnected-(U2-Pad4)*%
X86362500Y-86075000D03*
%TO.P,U2,5,VOUT*%
%TO.N,/3V3_LDO1*%
X86362500Y-87975000D03*
%TD*%
D15*
%TO.P,C5,1*%
%TO.N,GND*%
X87225000Y-89750000D03*
%TO.P,C5,2*%
%TO.N,VBUS*%
X88775000Y-89750000D03*
%TD*%
D16*
%TO.P,C8,1*%
%TO.N,GND*%
X118200000Y-86375000D03*
%TO.P,C8,2*%
%TO.N,/3V3_LDO2*%
X118200000Y-84825000D03*
%TD*%
D17*
%TO.P,J2,1,Pin_1*%
%TO.N,GND*%
X130125000Y-61500000D03*
%TO.P,J2,2,Pin_2*%
%TO.N,+3.3V*%
X130125000Y-62500000D03*
%TO.P,J2,3,Pin_3*%
%TO.N,/MTMS_CS*%
X130125000Y-63500000D03*
%TO.P,J2,4,Pin_4*%
%TO.N,/MTDI_MOSI*%
X130125000Y-64500000D03*
%TO.P,J2,5,Pin_5*%
%TO.N,/MTDO_MISO*%
X130125000Y-65500000D03*
%TO.P,J2,6,Pin_6*%
%TO.N,/MTCK_SCK*%
X130125000Y-66500000D03*
D18*
%TO.P,J2,MP*%
%TO.N,N/C*%
X132650000Y-60200000D03*
X132650000Y-67800000D03*
%TD*%
D19*
%TO.P,Q1,1,G*%
%TO.N,Net-(C4-Pad1)*%
X84155000Y-71990000D03*
%TO.P,Q1,2,S*%
%TO.N,VBUS*%
X86055000Y-71990000D03*
%TO.P,Q1,3,D*%
%TO.N,Net-(Q1-Pad3)*%
X85105000Y-70115000D03*
%TD*%
D20*
%TO.P,BZ1,1,-*%
%TO.N,Net-(BZ1-Pad1)*%
X117925000Y-55500000D03*
%TO.P,BZ1,2,+*%
%TO.N,/REED2*%
X117925000Y-56500000D03*
D21*
%TO.P,BZ1,MP*%
%TO.N,N/C*%
X120450000Y-54200000D03*
X120450000Y-57800000D03*
%TD*%
D22*
%TO.P,R5,1*%
%TO.N,Net-(Q1-Pad3)*%
X87605000Y-69480000D03*
%TO.P,R5,2*%
%TO.N,/ADC_BATT*%
X87605000Y-70500000D03*
%TD*%
D17*
%TO.P,J3,1,Pin_1*%
%TO.N,GND*%
X117925000Y-61500000D03*
%TO.P,J3,2,Pin_2*%
%TO.N,+3.3V*%
X117925000Y-62500000D03*
%TO.P,J3,3,Pin_3*%
%TO.N,/I00*%
X117925000Y-63500000D03*
%TO.P,J3,4,Pin_4*%
%TO.N,/RST*%
X117925000Y-64500000D03*
%TO.P,J3,5,Pin_5*%
%TO.N,/RX*%
X117925000Y-65500000D03*
%TO.P,J3,6,Pin_6*%
%TO.N,/TX*%
X117925000Y-66500000D03*
D18*
%TO.P,J3,MP*%
%TO.N,N/C*%
X120450000Y-60200000D03*
X120450000Y-67800000D03*
%TD*%
D23*
%TO.P,J7,1,Pin_1*%
%TO.N,GND*%
X72350000Y-102000000D03*
%TO.P,J7,2,Pin_2*%
%TO.N,/3V3_LDO1*%
X72350000Y-104000000D03*
%TO.P,J7,3,Pin_3*%
%TO.N,/S3_TX*%
X72350000Y-106000000D03*
%TO.P,J7,4,Pin_4*%
%TO.N,/S3_RX*%
X72350000Y-108000000D03*
D24*
%TO.P,J7,MP*%
%TO.N,N/C*%
X66600000Y-110350000D03*
X66600000Y-99650000D03*
%TD*%
D25*
%TO.P,C12,1*%
%TO.N,/MPU_CPOUT*%
X67740000Y-67600000D03*
%TO.P,C12,2*%
%TO.N,GND*%
X66780000Y-67600000D03*
%TD*%
D26*
%TO.P,H2,1*%
%TO.N,N/C*%
X137409010Y-58590990D03*
X141250000Y-57000000D03*
X140590990Y-58590990D03*
D27*
X139000000Y-57000000D03*
D26*
X139000000Y-59250000D03*
X139000000Y-54750000D03*
X140590990Y-55409010D03*
X137409010Y-55409010D03*
X136750000Y-57000000D03*
%TD*%
D28*
%TO.P,D1,1,K*%
%TO.N,Net-(D1-Pad1)*%
X123100000Y-122000000D03*
%TO.P,D1,2,A*%
%TO.N,+BATT*%
X125900000Y-122000000D03*
%TD*%
D13*
%TO.P,R16,1*%
%TO.N,/MPU_AD0*%
X69110000Y-60000000D03*
%TO.P,R16,2*%
%TO.N,GND*%
X68090000Y-60000000D03*
%TD*%
D29*
%TO.P,R4,1*%
%TO.N,VBUS*%
X82605000Y-72500000D03*
%TO.P,R4,2*%
%TO.N,Net-(C4-Pad1)*%
X82605000Y-71480000D03*
%TD*%
D30*
%TO.P,C6,1*%
%TO.N,GND*%
X84250000Y-86500000D03*
%TO.P,C6,2*%
%TO.N,/3V3_LDO1*%
X84250000Y-88050000D03*
%TD*%
D29*
%TO.P,R1,1*%
%TO.N,/MPU_INT*%
X66250000Y-55260000D03*
%TO.P,R1,2*%
%TO.N,/REED1*%
X66250000Y-54240000D03*
%TD*%
D27*
%TO.P,H1,1*%
%TO.N,N/C*%
X61000000Y-57000000D03*
D26*
X59409010Y-58590990D03*
X62590990Y-58590990D03*
X58750000Y-57000000D03*
X59409010Y-55409010D03*
X62590990Y-55409010D03*
X61000000Y-54750000D03*
X63250000Y-57000000D03*
X61000000Y-59250000D03*
%TD*%
D23*
%TO.P,J4,1,Pin_1*%
%TO.N,+BATT*%
X70150000Y-117100000D03*
%TO.P,J4,2,Pin_2*%
%TO.N,GND*%
X70150000Y-119100000D03*
D31*
%TO.P,J4,MP*%
%TO.N,N/C*%
X76000000Y-114750000D03*
X76000000Y-121450000D03*
%TD*%
D22*
%TO.P,R3,1*%
%TO.N,GND*%
X79000000Y-70029088D03*
%TO.P,R3,2*%
%TO.N,Net-(D2-Pad1)*%
X79000000Y-71049088D03*
%TD*%
D25*
%TO.P,C1,1*%
%TO.N,GND*%
X90230000Y-62750000D03*
%TO.P,C1,2*%
%TO.N,/REED1*%
X89270000Y-62750000D03*
%TD*%
D23*
%TO.P,J6,1,Pin_1*%
%TO.N,GND*%
X72350000Y-88000000D03*
%TO.P,J6,2,Pin_2*%
%TO.N,/3V3_LDO1*%
X72350000Y-90000000D03*
%TO.P,J6,3,Pin_3*%
%TO.N,/S2_TX*%
X72350000Y-92000000D03*
%TO.P,J6,4,Pin_4*%
%TO.N,/S2_RX*%
X72350000Y-94000000D03*
D24*
%TO.P,J6,MP*%
%TO.N,N/C*%
X66600000Y-96350000D03*
X66600000Y-85650000D03*
%TD*%
D32*
%TO.P,U4,1,CLKIN*%
%TO.N,GND*%
X71500000Y-65550000D03*
%TO.P,U4,2,NC*%
%TO.N,unconnected-(U4-Pad2)*%
X71500000Y-65050000D03*
%TO.P,U4,3,NC*%
%TO.N,unconnected-(U4-Pad3)*%
X71500000Y-64550000D03*
%TO.P,U4,4,NC*%
%TO.N,unconnected-(U4-Pad4)*%
X71500000Y-64050000D03*
%TO.P,U4,5,NC*%
%TO.N,unconnected-(U4-Pad5)*%
X71500000Y-63550000D03*
%TO.P,U4,6,AUX_SDA*%
%TO.N,unconnected-(U4-Pad6)*%
X71500000Y-63050000D03*
D33*
%TO.P,U4,7,AUX_SCL*%
%TO.N,unconnected-(U4-Pad7)*%
X70800000Y-62350000D03*
%TO.P,U4,8,VDDIO*%
%TO.N,/3V3_MPU*%
X70300000Y-62350000D03*
%TO.P,U4,9,AD0*%
%TO.N,/MPU_AD0*%
X69800000Y-62350000D03*
%TO.P,U4,10,REGOUT*%
%TO.N,/MPU_REGOUT*%
X69300000Y-62350000D03*
%TO.P,U4,11,FSYNC*%
%TO.N,GND*%
X68800000Y-62350000D03*
%TO.P,U4,12,INT*%
%TO.N,/MPU_INT*%
X68300000Y-62350000D03*
D32*
%TO.P,U4,13,VDD*%
%TO.N,/3V3_MPU*%
X67600000Y-63050000D03*
%TO.P,U4,14,NC*%
%TO.N,unconnected-(U4-Pad14)*%
X67600000Y-63550000D03*
%TO.P,U4,15,NC*%
%TO.N,unconnected-(U4-Pad15)*%
X67600000Y-64050000D03*
%TO.P,U4,16,NC*%
%TO.N,unconnected-(U4-Pad16)*%
X67600000Y-64550000D03*
%TO.P,U4,17,NC*%
%TO.N,unconnected-(U4-Pad17)*%
X67600000Y-65050000D03*
%TO.P,U4,18,GND*%
%TO.N,GND*%
X67600000Y-65550000D03*
D33*
%TO.P,U4,19,NC*%
%TO.N,unconnected-(U4-Pad19)*%
X68300000Y-66250000D03*
%TO.P,U4,20,CPOUT*%
%TO.N,/MPU_CPOUT*%
X68800000Y-66250000D03*
%TO.P,U4,21,NC*%
%TO.N,unconnected-(U4-Pad21)*%
X69300000Y-66250000D03*
%TO.P,U4,22,NC*%
%TO.N,unconnected-(U4-Pad22)*%
X69800000Y-66250000D03*
%TO.P,U4,23,SCL*%
%TO.N,/SCL*%
X70300000Y-66250000D03*
%TO.P,U4,24,SDA*%
%TO.N,/SDA*%
X70800000Y-66250000D03*
%TD*%
D34*
%TO.P,U1,1,GND*%
%TO.N,GND*%
X92500000Y-62665000D03*
%TO.P,U1,2,3V3*%
%TO.N,+3.3V*%
X92500000Y-63935000D03*
%TO.P,U1,3,GPIO0*%
%TO.N,/I00*%
X92500000Y-65205000D03*
D35*
%TO.P,U1,4,GPIO1*%
%TO.N,/REED1*%
X92500000Y-66475000D03*
D34*
%TO.P,U1,5,GPIO2*%
%TO.N,/SDA*%
X92500000Y-67745000D03*
%TO.P,U1,6,GPIO3*%
%TO.N,/SCL*%
X92500000Y-69015000D03*
%TO.P,U1,7,GPIO4*%
%TO.N,/ADC_EN*%
X92500000Y-70285000D03*
D35*
%TO.P,U1,8,GPIO5*%
%TO.N,/ADC_BATT*%
X92500000Y-71555000D03*
D34*
%TO.P,U1,9,GPIO6*%
%TO.N,unconnected-(U1-Pad9)*%
X92500000Y-72825000D03*
%TO.P,U1,10,GPIO7*%
%TO.N,unconnected-(U1-Pad10)*%
X92500000Y-74095000D03*
%TO.P,U1,11,GPIO8*%
%TO.N,/LED*%
X92500000Y-75365000D03*
D35*
%TO.P,U1,12,GPIO9*%
%TO.N,/S1_TX*%
X92500000Y-76635000D03*
D34*
%TO.P,U1,13,GPIO10*%
%TO.N,/S1_RX*%
X92500000Y-77905000D03*
%TO.P,U1,14,GPIO11*%
%TO.N,/S2_TX*%
X92500000Y-79175000D03*
%TO.P,U1,15,GPIO12*%
%TO.N,/S2_RX*%
X92500000Y-80445000D03*
D35*
%TO.P,U1,16,GPIO13*%
%TO.N,/S3_TX*%
X92500000Y-81715000D03*
D34*
%TO.P,U1,17,GPIO14*%
%TO.N,/S3_RX*%
X92500000Y-82985000D03*
%TO.P,U1,18,GPIO15*%
%TO.N,unconnected-(U1-Pad18)*%
X92500000Y-84255000D03*
%TO.P,U1,19,GPIO16*%
%TO.N,/LDO1_EN*%
X92500000Y-85525000D03*
D35*
%TO.P,U1,20,GPIO17*%
%TO.N,unconnected-(U1-Pad20)*%
X92500000Y-86795000D03*
D34*
%TO.P,U1,21,GPIO18*%
%TO.N,unconnected-(U1-Pad21)*%
X92500000Y-88065000D03*
%TO.P,U1,22,GND*%
%TO.N,GND*%
X92500000Y-89335000D03*
%TO.P,U1,23,GND*%
X108500000Y-89335000D03*
%TO.P,U1,24,VBUS*%
%TO.N,VBUS*%
X108500000Y-88065000D03*
D35*
%TO.P,U1,25,USB_D-*%
%TO.N,unconnected-(U1-Pad25)*%
X108500000Y-86795000D03*
D34*
%TO.P,U1,26,USB_D+*%
%TO.N,unconnected-(U1-Pad26)*%
X108500000Y-85525000D03*
%TO.P,U1,27,GPIO21*%
%TO.N,/LDO2_EN*%
X108500000Y-84225000D03*
%TO.P,U1,28,GPIO26*%
%TO.N,unconnected-(U1-Pad28)*%
X108500000Y-82985000D03*
D35*
%TO.P,U1,29,GPIO33*%
%TO.N,/S6_TX*%
X108500000Y-81715000D03*
D34*
%TO.P,U1,30,GPIO34*%
%TO.N,/S6_RX*%
X108500000Y-80445000D03*
%TO.P,U1,31,GPIO35*%
%TO.N,/S5_TX*%
X108500000Y-79175000D03*
%TO.P,U1,32,GPIO36*%
%TO.N,/S5_RX*%
X108500000Y-77905000D03*
D35*
%TO.P,U1,33,GPIO37*%
%TO.N,/S4_TX*%
X108500000Y-76635000D03*
D34*
%TO.P,U1,34,GPIO38*%
%TO.N,/S4_RX*%
X108500000Y-75365000D03*
%TO.P,U1,35,GPIO39*%
%TO.N,/MTCK_SCK*%
X108500000Y-74095000D03*
%TO.P,U1,36,GPIO40*%
%TO.N,/MTDO_MISO*%
X108500000Y-72825000D03*
D35*
%TO.P,U1,37,GPIO41*%
%TO.N,/MTDI_MOSI*%
X108500000Y-71555000D03*
D34*
%TO.P,U1,38,GPIO42*%
%TO.N,/MTMS_CS*%
X108500000Y-70283000D03*
%TO.P,U1,39,TXD*%
%TO.N,/TX*%
X108500000Y-69015000D03*
%TO.P,U1,40,RXD*%
%TO.N,/RX*%
X108500000Y-67745000D03*
D35*
%TO.P,U1,41,GPIO45*%
%TO.N,unconnected-(U1-Pad41)*%
X108500000Y-66475000D03*
D34*
%TO.P,U1,42,GPIO46*%
%TO.N,/REED2*%
X108500000Y-65205000D03*
%TO.P,U1,43,RESET*%
%TO.N,/RST*%
X108500000Y-63935000D03*
%TO.P,U1,44,GND*%
%TO.N,GND*%
X108500000Y-62665000D03*
D36*
%TO.P,U1,45,PAD*%
X100500000Y-67584239D03*
X100500000Y-65745761D03*
X101419239Y-66665000D03*
X99580761Y-66665000D03*
%TD*%
D25*
%TO.P,C11,1*%
%TO.N,/MPU_REGOUT*%
X69080000Y-61000000D03*
%TO.P,C11,2*%
%TO.N,GND*%
X68120000Y-61000000D03*
%TD*%
D12*
%TO.P,R13,1*%
%TO.N,/3V3_MPU*%
X69040000Y-67700000D03*
%TO.P,R13,2*%
%TO.N,/SCL*%
X70060000Y-67700000D03*
%TD*%
D37*
%TO.P,C9,1*%
%TO.N,/3V3_MPU*%
X70520000Y-61000000D03*
%TO.P,C9,2*%
%TO.N,GND*%
X71480000Y-61000000D03*
%TD*%
D38*
%TO.P,C2,1*%
%TO.N,GND*%
X110750000Y-66130000D03*
%TO.P,C2,2*%
%TO.N,/REED2*%
X110750000Y-65170000D03*
%TD*%
%TO.P,C4,1*%
%TO.N,Net-(C4-Pad1)*%
X82655000Y-70470000D03*
%TO.P,C4,2*%
%TO.N,/ADC_EN*%
X82655000Y-69510000D03*
%TD*%
D39*
%TO.P,C3,1*%
%TO.N,/ADC_BATT*%
X89600000Y-71520000D03*
%TO.P,C3,2*%
%TO.N,GND*%
X89600000Y-72480000D03*
%TD*%
D13*
%TO.P,R12,1*%
%TO.N,/3V3_MPU*%
X69010000Y-69500000D03*
%TO.P,R12,2*%
%TO.N,/3V3_LDO1*%
X67990000Y-69500000D03*
%TD*%
D26*
%TO.P,H4,1*%
%TO.N,N/C*%
X140590990Y-123409010D03*
X140590990Y-126590990D03*
X139000000Y-122750000D03*
X136750000Y-125000000D03*
X139000000Y-127250000D03*
X137409010Y-126590990D03*
X137409010Y-123409010D03*
D27*
X139000000Y-125000000D03*
D26*
X141250000Y-125000000D03*
%TD*%
D39*
%TO.P,C10,1*%
%TO.N,/3V3_MPU*%
X66260000Y-63120000D03*
%TO.P,C10,2*%
%TO.N,GND*%
X66260000Y-64080000D03*
%TD*%
D40*
%TO.P,SW3,1,1*%
%TO.N,+3.3V*%
X134060000Y-51500000D03*
%TO.P,SW3,2,2*%
%TO.N,/REED2*%
X118940000Y-51500000D03*
%TD*%
D13*
%TO.P,R15,1*%
%TO.N,/MPU_AD0*%
X69110000Y-59000000D03*
%TO.P,R15,2*%
%TO.N,/3V3_MPU*%
X68090000Y-59000000D03*
%TD*%
D23*
%TO.P,J5,1,Pin_1*%
%TO.N,GND*%
X72350000Y-74000000D03*
%TO.P,J5,2,Pin_2*%
%TO.N,/3V3_LDO1*%
X72350000Y-76000000D03*
%TO.P,J5,3,Pin_3*%
%TO.N,/S1_TX*%
X72350000Y-78000000D03*
%TO.P,J5,4,Pin_4*%
%TO.N,/S1_RX*%
X72350000Y-80000000D03*
D24*
%TO.P,J5,MP*%
%TO.N,N/C*%
X66600000Y-71650000D03*
X66600000Y-82350000D03*
%TD*%
D41*
%TO.P,J10,1,Pin_1*%
%TO.N,GND*%
X127650000Y-108000000D03*
%TO.P,J10,2,Pin_2*%
%TO.N,/3V3_LDO2*%
X127650000Y-106000000D03*
%TO.P,J10,3,Pin_3*%
%TO.N,/S6_TX*%
X127650000Y-104000000D03*
%TO.P,J10,4,Pin_4*%
%TO.N,/S6_RX*%
X127650000Y-102000000D03*
D42*
%TO.P,J10,MP*%
%TO.N,N/C*%
X133400000Y-110350000D03*
X133400000Y-99650000D03*
%TD*%
D41*
%TO.P,J8,1,Pin_1*%
%TO.N,GND*%
X127650000Y-80000000D03*
%TO.P,J8,2,Pin_2*%
%TO.N,/3V3_LDO2*%
X127650000Y-78000000D03*
%TO.P,J8,3,Pin_3*%
%TO.N,/S4_TX*%
X127650000Y-76000000D03*
%TO.P,J8,4,Pin_4*%
%TO.N,/S4_RX*%
X127650000Y-74000000D03*
D42*
%TO.P,J8,MP*%
%TO.N,N/C*%
X133400000Y-71650000D03*
X133400000Y-82350000D03*
%TD*%
D13*
%TO.P,R7,1*%
%TO.N,/LDO1_EN*%
X89260000Y-84550000D03*
%TO.P,R7,2*%
%TO.N,Net-(R7-Pad2)*%
X88240000Y-84550000D03*
%TD*%
D41*
%TO.P,J9,1,Pin_1*%
%TO.N,GND*%
X127650000Y-94000000D03*
%TO.P,J9,2,Pin_2*%
%TO.N,/3V3_LDO2*%
X127650000Y-92000000D03*
%TO.P,J9,3,Pin_3*%
%TO.N,/S5_TX*%
X127650000Y-90000000D03*
%TO.P,J9,4,Pin_4*%
%TO.N,/S5_RX*%
X127650000Y-88000000D03*
D42*
%TO.P,J9,MP*%
%TO.N,N/C*%
X133400000Y-85650000D03*
X133400000Y-96350000D03*
%TD*%
D13*
%TO.P,R10,1*%
%TO.N,GND*%
X116372500Y-88200000D03*
%TO.P,R10,2*%
%TO.N,Net-(R10-Pad2)*%
X115352500Y-88200000D03*
%TD*%
D22*
%TO.P,R6,1*%
%TO.N,/ADC_BATT*%
X87605000Y-71480000D03*
%TO.P,R6,2*%
%TO.N,GND*%
X87605000Y-72500000D03*
%TD*%
D30*
%TO.P,D2,1,K*%
%TO.N,Net-(D2-Pad1)*%
X79000000Y-72472500D03*
%TO.P,D2,2,A*%
%TO.N,/LED*%
X79000000Y-74022500D03*
%TD*%
D43*
%TO.P,U3,1,VIN*%
%TO.N,VBUS*%
X113725000Y-84850000D03*
%TO.P,U3,2,GND*%
%TO.N,GND*%
X113725000Y-85800000D03*
%TO.P,U3,3,CE*%
%TO.N,Net-(R10-Pad2)*%
X113725000Y-86750000D03*
%TO.P,U3,4,NC*%
%TO.N,unconnected-(U3-Pad4)*%
X116000000Y-86750000D03*
%TO.P,U3,5,VOUT*%
%TO.N,/3V3_LDO2*%
X116000000Y-84850000D03*
%TD*%
D26*
%TO.P,H3,1*%
%TO.N,N/C*%
X63250000Y-125000000D03*
X62590990Y-123409010D03*
X59409010Y-123409010D03*
X62590990Y-126590990D03*
X61000000Y-122750000D03*
X58750000Y-125000000D03*
X61000000Y-127250000D03*
X59409010Y-126590990D03*
D27*
X61000000Y-125000000D03*
%TD*%
D12*
%TO.P,R9,1*%
%TO.N,/LDO2_EN*%
X113290000Y-88200000D03*
%TO.P,R9,2*%
%TO.N,Net-(R10-Pad2)*%
X114310000Y-88200000D03*
%TD*%
D29*
%TO.P,R17,1*%
%TO.N,/3V3_LDO2*%
X124500000Y-92020000D03*
%TO.P,R17,2*%
%TO.N,/S5_TX*%
X124500000Y-91000000D03*
%TD*%
D40*
%TO.P,SW2,1,1*%
%TO.N,+3.3V*%
X81060000Y-51500000D03*
%TO.P,SW2,2,2*%
%TO.N,/REED1*%
X65940000Y-51500000D03*
%TD*%
D44*
%TO.P,SW1,*%
%TO.N,*%
X118070000Y-121650000D03*
X118070000Y-114350000D03*
X120280000Y-114350000D03*
X120280000Y-121650000D03*
D45*
%TO.P,SW1,1,A*%
%TO.N,VBUS*%
X120930000Y-115750000D03*
%TO.P,SW1,2,B*%
%TO.N,Net-(D1-Pad1)*%
X120930000Y-118750000D03*
%TO.P,SW1,3,C*%
%TO.N,unconnected-(SW1-Pad3)*%
X120930000Y-120250000D03*
%TD*%
D29*
%TO.P,R2,1*%
%TO.N,GND*%
X116150000Y-56510000D03*
%TO.P,R2,2*%
%TO.N,Net-(BZ1-Pad1)*%
X116150000Y-55490000D03*
%TD*%
D20*
%TO.P,J1,1,Pin_1*%
%TO.N,GND*%
X78175000Y-62500000D03*
%TO.P,J1,2,Pin_2*%
%TO.N,+3.3V*%
X78175000Y-63500000D03*
%TO.P,J1,3,Pin_3*%
%TO.N,/SDA*%
X78175000Y-64500000D03*
%TO.P,J1,4,Pin_4*%
%TO.N,/SCL*%
X78175000Y-65500000D03*
D21*
%TO.P,J1,MP*%
%TO.N,N/C*%
X80700000Y-61200000D03*
X80700000Y-66800000D03*
%TD*%
D13*
%TO.P,R11,1*%
%TO.N,+3.3V*%
X71510000Y-60000000D03*
%TO.P,R11,2*%
%TO.N,/3V3_MPU*%
X70490000Y-60000000D03*
%TD*%
D30*
%TO.P,C7,1*%
%TO.N,GND*%
X111500000Y-83425000D03*
%TO.P,C7,2*%
%TO.N,VBUS*%
X111500000Y-84975000D03*
%TD*%
D46*
%TO.P,BT1,1,+*%
%TO.N,+BATT*%
X74500000Y-126750000D03*
D47*
%TO.P,BT1,2,-*%
%TO.N,GND*%
X74500000Y-54750000D03*
%TD*%
D46*
%TO.P,BT2,1,+*%
%TO.N,+BATT*%
X125500000Y-126750000D03*
D47*
%TO.P,BT2,2,-*%
%TO.N,GND*%
X125500000Y-54750000D03*
%TD*%
D48*
%TO.N,GND*%
X100500000Y-69300000D03*
X100500000Y-63900000D03*
X103200000Y-66600000D03*
X97700000Y-66600000D03*
X86050000Y-89750000D03*
X66300000Y-64900000D03*
X112800000Y-83400000D03*
X67200000Y-66300000D03*
X81700000Y-74100000D03*
X106750000Y-76250000D03*
X116150000Y-57500000D03*
X110000000Y-89400000D03*
X111700000Y-62700000D03*
X94000000Y-89400000D03*
X94400000Y-66600000D03*
X130100000Y-60400000D03*
X128600000Y-95200000D03*
X90900000Y-72600000D03*
X106500000Y-66600000D03*
X84000000Y-89600000D03*
X67250000Y-61000000D03*
X94400000Y-75000000D03*
X71325000Y-72600000D03*
X107000000Y-89400000D03*
X90250000Y-63750000D03*
X126600000Y-81200000D03*
X71325000Y-86600000D03*
X88750000Y-70500000D03*
X81200000Y-69300000D03*
X85250000Y-63000000D03*
X117250000Y-88250000D03*
X73325000Y-86600000D03*
X94000000Y-62670000D03*
X71400000Y-100600000D03*
X85250000Y-84525000D03*
X103500000Y-62900000D03*
X87250000Y-87025000D03*
X90300000Y-61600000D03*
X79000000Y-69039088D03*
X73400000Y-100600000D03*
X88600000Y-72500000D03*
X84250000Y-85275000D03*
X118250000Y-87500000D03*
X128600000Y-109200000D03*
X119400000Y-61400000D03*
X72650000Y-65550000D03*
X115000000Y-85800000D03*
X106500000Y-86500000D03*
X73325000Y-72600000D03*
X110000000Y-62700000D03*
X90500000Y-86500000D03*
X86700000Y-67300000D03*
X69200000Y-120400000D03*
X98250000Y-86500000D03*
X126600000Y-95200000D03*
X72350000Y-61000000D03*
X67250000Y-60000000D03*
X66300000Y-66750000D03*
X71000000Y-120400000D03*
X98750000Y-63000000D03*
X86000000Y-74500000D03*
X128600000Y-81200000D03*
X131700000Y-61600000D03*
X110300000Y-83300000D03*
X94300000Y-72200000D03*
X126800000Y-109200000D03*
X87000000Y-61250000D03*
X118000000Y-60400000D03*
X94500000Y-86400000D03*
X78250000Y-61500000D03*
X96500000Y-61500000D03*
X69000000Y-63750000D03*
X81200000Y-71500000D03*
X111700000Y-66150000D03*
X107000000Y-62700000D03*
X91000000Y-89400000D03*
X83100000Y-67300000D03*
X75100000Y-102100000D03*
X92500000Y-61600000D03*
%TO.N,/REED2*%
X105250000Y-58750000D03*
X105250000Y-63250000D03*
%TO.N,+3.3V*%
X85750000Y-60250000D03*
X84250000Y-61750000D03*
%TO.N,VBUS*%
X94200000Y-73600000D03*
X90600000Y-88000000D03*
X94500000Y-88000000D03*
X90000000Y-73600000D03*
%TO.N,/LDO2_EN*%
X110200000Y-86750000D03*
X112600000Y-87600000D03*
%TO.N,/MPU_INT*%
X66250000Y-59250000D03*
X66250000Y-57250000D03*
%TO.N,/3V3_MPU*%
X69040000Y-68580500D03*
X73000000Y-67750000D03*
%TD*%
D49*
%TO.N,GND*%
X117164644Y-88200000D02*
X116372500Y-88200000D01*
X73325000Y-87475000D02*
X73325000Y-86600000D01*
X93217500Y-89335000D02*
X92545962Y-89335000D01*
D50*
X112800000Y-83400000D02*
X112787500Y-83412500D01*
D51*
X86050000Y-74550000D02*
X86000000Y-74500000D01*
D49*
X93967500Y-89367500D02*
X94000000Y-89400000D01*
X109409437Y-62665000D02*
X109232499Y-62665000D01*
X109763313Y-62665000D02*
X109409437Y-62665000D01*
X126600000Y-80525000D02*
X126600000Y-81200000D01*
X107614614Y-89335000D02*
X107278845Y-89335000D01*
X127162500Y-94000000D02*
X127137500Y-94000000D01*
X107059748Y-62665000D02*
X107236686Y-62665000D01*
X93721153Y-89335000D02*
X93889038Y-89335000D01*
X128087500Y-108000000D02*
X128075000Y-108000000D01*
X71325000Y-72600000D02*
X71325000Y-73525000D01*
X115000000Y-85800000D02*
X113725000Y-85800000D01*
X69200000Y-119575000D02*
X69200000Y-120400000D01*
X109982500Y-62682500D02*
X110000000Y-62700000D01*
X85250000Y-84525000D02*
X86240000Y-84525000D01*
D51*
X111680000Y-66130000D02*
X111700000Y-66150000D01*
D49*
X127175000Y-94000000D02*
X127162500Y-94000000D01*
X73325000Y-72600000D02*
X73325000Y-73475000D01*
X69725000Y-119100000D02*
X69712500Y-119100000D01*
X71800000Y-74000000D02*
X72700000Y-74000000D01*
D51*
X90643676Y-72542138D02*
X90585814Y-72484276D01*
D49*
X107767500Y-62665000D02*
X107590562Y-62665000D01*
X91614614Y-89335000D02*
X91278845Y-89335000D01*
X127175000Y-80000000D02*
X127162500Y-80000000D01*
X72750000Y-88000000D02*
X72700000Y-88000000D01*
X78175000Y-61628033D02*
X78175000Y-62500000D01*
D50*
X72213292Y-60999766D02*
X72213409Y-60999883D01*
D49*
X72750000Y-74000000D02*
X72700000Y-74000000D01*
X91278845Y-89335000D02*
X91110961Y-89335000D01*
X109232499Y-62665000D02*
X108524748Y-62665000D01*
X109409437Y-62665000D02*
X109763313Y-62665000D01*
D50*
X66300000Y-66775714D02*
X66300000Y-66750000D01*
D49*
X112037500Y-83425000D02*
X110962500Y-83425000D01*
D50*
X67200000Y-66300000D02*
X67388918Y-66111081D01*
D49*
X109721153Y-89335000D02*
X109385384Y-89335000D01*
X89099143Y-87025000D02*
X88175857Y-87025000D01*
X93991464Y-62665000D02*
X93032500Y-62665000D01*
X73400000Y-100600000D02*
X73400000Y-101475000D01*
X79000000Y-69039088D02*
X79000000Y-70029088D01*
X72762500Y-74000000D02*
X72750000Y-74000000D01*
X128600000Y-95200000D02*
X128600000Y-94475000D01*
X109763313Y-62665000D02*
X111640251Y-62665000D01*
X127125000Y-80000000D02*
X127137500Y-80000000D01*
X110962500Y-83425000D02*
X110513388Y-83425000D01*
X72875000Y-102000000D02*
X72862500Y-102000000D01*
X127125000Y-94000000D02*
X127137500Y-94000000D01*
X71325000Y-87525000D02*
X71325000Y-86600000D01*
D51*
X81900000Y-74300000D02*
X81700000Y-74100000D01*
D49*
X130125000Y-60442677D02*
X130125000Y-60971338D01*
X72787500Y-88000000D02*
X72800000Y-88000000D01*
X92454038Y-89335000D02*
X91782499Y-89335000D01*
X127225000Y-80000000D02*
X127175000Y-80000000D01*
D51*
X90900000Y-72858578D02*
X90900000Y-72600000D01*
D49*
X131700000Y-61600000D02*
X131650000Y-61550000D01*
X111700000Y-62700000D02*
X111682500Y-62682500D01*
D50*
X71500000Y-65550000D02*
X72650000Y-65550000D01*
D49*
X72700000Y-88000000D02*
X71800000Y-88000000D01*
X127162500Y-80000000D02*
X127137500Y-80000000D01*
X117250000Y-88250000D02*
X117225000Y-88225000D01*
X72762500Y-88000000D02*
X72750000Y-88000000D01*
D51*
X88577928Y-72490000D02*
X88400000Y-72490000D01*
D49*
X128600000Y-80475000D02*
X128600000Y-81200000D01*
X93217500Y-89335000D02*
X93385384Y-89335000D01*
X93997500Y-62667500D02*
X94000000Y-62670000D01*
X92500000Y-62132500D02*
X92500000Y-61600000D01*
X72775000Y-102000000D02*
X71875000Y-102000000D01*
X91782499Y-89335000D02*
X91614614Y-89335000D01*
D50*
X68090000Y-60000000D02*
X67250000Y-60000000D01*
D49*
X86050000Y-89750000D02*
X87225000Y-89750000D01*
X108475252Y-62665000D02*
X107767500Y-62665000D01*
X72787500Y-88000000D02*
X72762500Y-88000000D01*
X93721153Y-89335000D02*
X93385384Y-89335000D01*
X107000000Y-89400000D02*
X107032500Y-89367500D01*
X72837500Y-102000000D02*
X72825000Y-102000000D01*
X72862500Y-102000000D02*
X72837500Y-102000000D01*
D50*
X67499767Y-65686707D02*
X67499767Y-65843470D01*
D49*
X69675000Y-119100000D02*
X69687500Y-119100000D01*
X126600000Y-94525000D02*
X126600000Y-95200000D01*
D50*
X66260000Y-64712218D02*
X66260000Y-64080000D01*
D49*
X130100000Y-60400000D02*
X130112500Y-60412500D01*
X118000000Y-60400000D02*
X117962500Y-60437500D01*
D50*
X68120000Y-61000000D02*
X67250000Y-61000000D01*
X66780000Y-67440000D02*
X66780000Y-67600000D01*
D49*
X109217500Y-89335000D02*
X108545962Y-89335000D01*
X91000000Y-89400000D02*
X91032500Y-89367500D01*
D50*
X67550000Y-65600000D02*
X67600000Y-65550000D01*
D49*
X72787500Y-74000000D02*
X72762500Y-74000000D01*
X117925000Y-60528033D02*
X117925000Y-61014016D01*
X127225000Y-94000000D02*
X128125000Y-94000000D01*
X69775000Y-119100000D02*
X70575000Y-119100000D01*
X128025000Y-108000000D02*
X127225000Y-108000000D01*
X72800000Y-74000000D02*
X72787500Y-74000000D01*
X89560786Y-87025000D02*
X89099143Y-87025000D01*
X84250000Y-85275000D02*
X84250000Y-86500000D01*
X107017500Y-62682500D02*
X107000000Y-62700000D01*
D51*
X90783367Y-72600000D02*
X90900000Y-72600000D01*
D50*
X66702013Y-67203442D02*
X66318182Y-66819611D01*
D51*
X106600000Y-62300000D02*
X107000000Y-62700000D01*
D49*
X90230000Y-63715857D02*
X90230000Y-62750000D01*
D51*
X81553553Y-67946446D02*
X81881801Y-67618198D01*
D50*
X68800000Y-62350000D02*
X68800000Y-63414644D01*
D49*
X128112500Y-108000000D02*
X128087500Y-108000000D01*
D51*
X88600000Y-72500000D02*
X88620000Y-72480000D01*
D49*
X92454038Y-89335000D02*
X92545962Y-89335000D01*
X87250000Y-87025000D02*
X88175857Y-87025000D01*
X118200000Y-87414644D02*
X118200000Y-86375000D01*
X109967500Y-89367500D02*
X110000000Y-89400000D01*
D51*
X81200000Y-73246446D02*
X81200000Y-69300000D01*
D49*
X128600000Y-108475000D02*
X128600000Y-109200000D01*
X126800000Y-108425000D02*
X126800000Y-109200000D01*
D51*
X91100000Y-73341421D02*
X91100000Y-73917157D01*
D49*
X107278845Y-89335000D02*
X107110961Y-89335000D01*
D50*
X72179289Y-61000000D02*
X71340000Y-61000000D01*
D49*
X109217500Y-89335000D02*
X109385384Y-89335000D01*
X112037500Y-83425000D02*
X112757322Y-83425000D01*
D50*
X116150000Y-57500000D02*
X116150000Y-56510000D01*
D49*
X128075000Y-108000000D02*
X128025000Y-108000000D01*
X131529289Y-61500000D02*
X130653661Y-61500000D01*
D51*
X83100000Y-67300000D02*
X82650000Y-67300000D01*
D49*
X108475252Y-62665000D02*
X108524748Y-62665000D01*
X107782499Y-89335000D02*
X107614614Y-89335000D01*
X109763313Y-62665000D02*
X109940251Y-62665000D01*
X108454038Y-89335000D02*
X108545962Y-89335000D01*
X127225000Y-94000000D02*
X127175000Y-94000000D01*
X118250000Y-87500000D02*
X118225000Y-87475000D01*
X109889038Y-89335000D02*
X109721153Y-89335000D01*
X72825000Y-102000000D02*
X72775000Y-102000000D01*
D50*
X90250000Y-63750000D02*
X90240000Y-63740000D01*
D49*
X119229289Y-61500000D02*
X118410983Y-61500000D01*
X128125000Y-80000000D02*
X127225000Y-80000000D01*
X69712500Y-119100000D02*
X69687500Y-119100000D01*
X90500000Y-86500000D02*
X90267893Y-86732107D01*
X110300000Y-83300000D02*
X110362500Y-83362500D01*
D51*
X82382842Y-74500000D02*
X86000000Y-74500000D01*
X81200000Y-68800000D02*
X81200000Y-69300000D01*
X104100000Y-62300000D02*
X106600000Y-62300000D01*
D52*
X90565857Y-72480000D02*
X89600000Y-72480000D01*
D49*
X71000000Y-120400000D02*
X71000000Y-119525000D01*
X110750000Y-66130000D02*
X111680000Y-66130000D01*
D51*
X81450000Y-73850000D02*
X81700000Y-74100000D01*
D49*
X71400000Y-101525000D02*
X71400000Y-100600000D01*
D50*
X66259637Y-64749498D02*
X66279818Y-64769679D01*
D51*
X83100000Y-67300000D02*
X86700000Y-67300000D01*
D49*
X108454038Y-89335000D02*
X107782499Y-89335000D01*
D50*
X66300000Y-64818401D02*
X66300000Y-64900000D01*
D49*
X128125000Y-108000000D02*
X128112500Y-108000000D01*
D51*
X103500000Y-62900000D02*
X104100000Y-62300000D01*
D50*
X69000000Y-63750000D02*
X69000000Y-63675814D01*
D49*
X107590562Y-62665000D02*
X107236686Y-62665000D01*
D50*
X72350000Y-61000000D02*
X72213691Y-61000000D01*
D49*
X78250000Y-61500000D02*
X78212500Y-61537500D01*
X119400000Y-61400000D02*
X119350000Y-61450000D01*
D52*
X88587928Y-72500000D02*
X87605000Y-72500000D01*
D49*
X69775000Y-119100000D02*
X69725000Y-119100000D01*
D51*
X86170710Y-74600000D02*
X90417157Y-74600000D01*
D49*
X128600000Y-80475000D02*
G75*
G03*
X128125000Y-80000000I-475000J0D01*
G01*
X72800000Y-88000000D02*
G75*
G03*
X73325000Y-87475000I0J525000D01*
G01*
D50*
X66702013Y-67203442D02*
G75*
G02*
X66779999Y-67440000I-331313J-240358D01*
G01*
X66259635Y-64749498D02*
G75*
G02*
X66260000Y-64712218I239165J16298D01*
G01*
D49*
X109889038Y-89334985D02*
G75*
G02*
X109967499Y-89367501I-38J-111015D01*
G01*
X69675000Y-119100000D02*
G75*
G03*
X69200000Y-119575000I0J-475000D01*
G01*
X118410983Y-61500000D02*
G75*
G02*
X117925000Y-61014016I17J486000D01*
G01*
X90267900Y-86732114D02*
G75*
G02*
X89560786Y-87025000I-707100J707114D01*
G01*
D51*
X90900033Y-74400033D02*
G75*
G03*
X91100000Y-73917157I-482933J482833D01*
G01*
D50*
X72213691Y-61000005D02*
G75*
G02*
X72213410Y-60999882I9J405D01*
G01*
D49*
X127225000Y-108000000D02*
G75*
G03*
X126800000Y-108425000I0J-425000D01*
G01*
D51*
X88587929Y-72500069D02*
G75*
G03*
X88589999Y-72495001I-29J2969D01*
G01*
D49*
X117164644Y-88199982D02*
G75*
G02*
X117225000Y-88225000I-44J-85418D01*
G01*
D50*
X66318185Y-66819608D02*
G75*
G02*
X66300000Y-66775714I43915J43908D01*
G01*
D49*
X126600000Y-80525000D02*
G75*
G02*
X127125000Y-80000000I525000J0D01*
G01*
D51*
X81449984Y-73850016D02*
G75*
G02*
X81200000Y-73246446I603516J603516D01*
G01*
D49*
X110513388Y-83425004D02*
G75*
G02*
X110362501Y-83362499I12J213404D01*
G01*
X91032511Y-89367511D02*
G75*
G02*
X91110961Y-89335000I78489J-78489D01*
G01*
X92500000Y-62132500D02*
G75*
G03*
X93032500Y-62665000I532500J0D01*
G01*
X128125000Y-94000000D02*
G75*
G02*
X128600000Y-94475000I0J-475000D01*
G01*
X126600000Y-94525000D02*
G75*
G02*
X127125000Y-94000000I525000J0D01*
G01*
X90239988Y-63740012D02*
G75*
G02*
X90230000Y-63715857I24112J24112D01*
G01*
X70575000Y-119100000D02*
G75*
G02*
X71000000Y-119525000I0J-425000D01*
G01*
D51*
X81199998Y-68800000D02*
G75*
G02*
X81553553Y-67946446I1207102J0D01*
G01*
D49*
X119350003Y-61450003D02*
G75*
G02*
X119229289Y-61500000I-120703J120703D01*
G01*
X71875000Y-102000000D02*
G75*
G02*
X71400000Y-101525000I0J475000D01*
G01*
D51*
X88577928Y-72489989D02*
G75*
G02*
X88589999Y-72495001I-28J-17111D01*
G01*
D49*
X93991464Y-62665015D02*
G75*
G02*
X93997500Y-62667500I36J-8485D01*
G01*
X117962490Y-60437490D02*
G75*
G03*
X117925000Y-60528033I90510J-90510D01*
G01*
X71800000Y-74000000D02*
G75*
G02*
X71325000Y-73525000I0J475000D01*
G01*
X131650003Y-61549997D02*
G75*
G03*
X131529289Y-61500000I-120703J-120703D01*
G01*
X109763313Y-62665000D02*
G75*
G02*
X109763313Y-62665000I0J0D01*
G01*
D51*
X82382842Y-74499982D02*
G75*
G02*
X81900000Y-74300000I-42J682782D01*
G01*
D49*
X128600000Y-108475000D02*
G75*
G03*
X128125000Y-108000000I-475000J0D01*
G01*
D51*
X91099991Y-73341421D02*
G75*
G03*
X91000000Y-73100000I-341391J21D01*
G01*
D49*
X130112493Y-60412507D02*
G75*
G02*
X130125000Y-60442677I-30193J-30193D01*
G01*
X118225013Y-87474987D02*
G75*
G02*
X118200000Y-87414644I60387J60387D01*
G01*
D51*
X86170710Y-74599995D02*
G75*
G02*
X86050000Y-74550000I-10J170695D01*
G01*
X90417157Y-74599953D02*
G75*
G03*
X90900000Y-74400000I43J682853D01*
G01*
X81881801Y-67618198D02*
G75*
G02*
X82650000Y-67300000I768199J-768202D01*
G01*
X90783367Y-72600009D02*
G75*
G02*
X90643676Y-72542138I33J197609D01*
G01*
D49*
X107110961Y-89334985D02*
G75*
G03*
X107032501Y-89367501I39J-111015D01*
G01*
D51*
X90585810Y-72484288D02*
G75*
G03*
X90565857Y-72480000I-27010J-77112D01*
G01*
D50*
X67388935Y-66111098D02*
G75*
G03*
X67499767Y-65843470I-267635J267598D01*
G01*
D49*
X130653661Y-61500000D02*
G75*
G02*
X130125000Y-60971338I39J528700D01*
G01*
D50*
X67550010Y-65600010D02*
G75*
G03*
X67499767Y-65686707I164590J-153290D01*
G01*
D49*
X71325000Y-87525000D02*
G75*
G03*
X71800000Y-88000000I475000J0D01*
G01*
D50*
X66299999Y-64818401D02*
G75*
G03*
X66279817Y-64769680I-68899J1D01*
G01*
D51*
X90999994Y-73100006D02*
G75*
G02*
X90900000Y-72858578I241406J241406D01*
G01*
D49*
X107059748Y-62665021D02*
G75*
G03*
X107017501Y-62682501I-48J-59679D01*
G01*
X109982514Y-62682486D02*
G75*
G03*
X109940251Y-62665000I-42214J-42214D01*
G01*
X111640251Y-62665021D02*
G75*
G02*
X111682499Y-62682501I49J-59679D01*
G01*
X93889038Y-89334985D02*
G75*
G02*
X93967499Y-89367501I-38J-111015D01*
G01*
X73325000Y-73475000D02*
G75*
G02*
X72800000Y-74000000I-525000J0D01*
G01*
D50*
X112757322Y-83425009D02*
G75*
G03*
X112787500Y-83412500I-22J42709D01*
G01*
D49*
X78212490Y-61537490D02*
G75*
G03*
X78175000Y-61628033I90510J-90510D01*
G01*
D50*
X72213291Y-60999758D02*
G75*
G02*
X72179289Y-60999999I-18091J153558D01*
G01*
D49*
X73400000Y-101475000D02*
G75*
G02*
X72875000Y-102000000I-525000J0D01*
G01*
D50*
%TO.N,/REED2*%
X117925000Y-56500000D02*
X119200480Y-56500000D01*
X105250000Y-63250000D02*
X105250000Y-64227500D01*
X119200480Y-56513397D02*
X119200480Y-51760480D01*
X105250000Y-58750000D02*
X116963877Y-58750000D01*
X106227500Y-65205000D02*
X107120000Y-65205000D01*
X110665000Y-65205000D02*
X110750000Y-65290000D01*
X107120000Y-65205000D02*
X110665000Y-65205000D01*
X119200480Y-51760480D02*
X118940000Y-51500000D01*
X106227500Y-65205000D02*
G75*
G02*
X105250000Y-64227500I0J977500D01*
G01*
X119200500Y-56513397D02*
G75*
G02*
X116963877Y-58750000I-2236600J-3D01*
G01*
%TO.N,/REED1*%
X89270000Y-63510000D02*
X89270000Y-62750000D01*
X65940000Y-51500000D02*
X73246036Y-51500000D01*
X91689984Y-66475000D02*
X92500000Y-66475000D01*
X66250000Y-51810000D02*
X65940000Y-51500000D01*
X88010000Y-62750000D02*
X89270000Y-62750000D01*
X66250000Y-54240000D02*
X66250000Y-51810000D01*
X91322984Y-66322984D02*
X89807401Y-64807401D01*
X85859045Y-61859045D02*
X77093792Y-53093792D01*
X73246036Y-51499990D02*
G75*
G02*
X77093791Y-53093793I-36J-5441610D01*
G01*
X89807401Y-64807401D02*
G75*
G02*
X89270000Y-63510000I1297399J1297401D01*
G01*
X91322996Y-66322972D02*
G75*
G03*
X91689984Y-66475000I367004J366972D01*
G01*
X85859047Y-61859043D02*
G75*
G03*
X88010000Y-62750000I2150953J2150943D01*
G01*
D53*
%TO.N,+BATT*%
X74999994Y-112250000D02*
X74091252Y-112250001D01*
D54*
X68250000Y-126750000D02*
X74500000Y-126750000D01*
D53*
X75029399Y-112250000D02*
X74999994Y-112250000D01*
D54*
X68250000Y-117100000D02*
X70150000Y-117100000D01*
X66250000Y-124750000D02*
X66250000Y-119100000D01*
D53*
X70150000Y-117100000D02*
X70150000Y-116191258D01*
D51*
X125700000Y-126550000D02*
X125500000Y-126750000D01*
D53*
X125900000Y-126067157D02*
X125900000Y-122000000D01*
X116750000Y-123250000D02*
X116750000Y-94700000D01*
X125411611Y-126750000D02*
X120250000Y-126750000D01*
X83250000Y-94700000D02*
X83250000Y-104029407D01*
X113250000Y-91200000D02*
X86750000Y-91200000D01*
D49*
X125374996Y-126536611D02*
G75*
G03*
X125437501Y-126687499I213404J11D01*
G01*
D53*
X75029399Y-112250000D02*
G75*
G03*
X83250000Y-104029407I1J8220600D01*
G01*
X125700033Y-126550033D02*
G75*
G03*
X125900000Y-126067157I-482933J482833D01*
G01*
X70150001Y-116191258D02*
G75*
G02*
X74091252Y-112250001I3941299J-42D01*
G01*
X116750000Y-123250000D02*
G75*
G03*
X120250000Y-126750000I3500000J0D01*
G01*
D54*
X68250000Y-126750000D02*
G75*
G02*
X66250000Y-124750000I0J2000000D01*
G01*
D53*
X113250000Y-91200000D02*
G75*
G02*
X116750000Y-94700000I0J-3500000D01*
G01*
D50*
X125437480Y-126687520D02*
G75*
G02*
X125411611Y-126750000I-25880J-25880D01*
G01*
D54*
X68250000Y-117100000D02*
G75*
G03*
X66250000Y-119100000I0J-2000000D01*
G01*
D53*
X83250000Y-94700000D02*
G75*
G02*
X86750000Y-91200000I3500000J0D01*
G01*
D50*
%TO.N,/ADC_BATT*%
X87642500Y-71517500D02*
X87605000Y-71480000D01*
X87605000Y-71555000D02*
X87605000Y-70500000D01*
X87733033Y-71555000D02*
X92500000Y-71555000D01*
X87733033Y-71554986D02*
G75*
G02*
X87642500Y-71517500I-33J127986D01*
G01*
%TO.N,/ADC_EN*%
X83405000Y-68490000D02*
X87346407Y-68490000D01*
X82655000Y-69240000D02*
X82655000Y-69510000D01*
X91680002Y-70285000D02*
X92500000Y-70285000D01*
X87346407Y-68490007D02*
G75*
G02*
X88359735Y-68909735I-7J-1433093D01*
G01*
X83405000Y-68490000D02*
G75*
G03*
X82655000Y-69240000I0J-750000D01*
G01*
X91680002Y-70284984D02*
G75*
G02*
X88359735Y-68909735I-2J4695684D01*
G01*
D52*
%TO.N,+3.3V*%
X127765536Y-60000000D02*
X127549999Y-60000000D01*
X127118926Y-60000000D02*
X127549999Y-59999999D01*
X127765536Y-59999999D02*
X127549999Y-59999999D01*
X84875000Y-57875000D02*
X85825000Y-58825000D01*
X117012500Y-62500000D02*
X117468750Y-62500000D01*
D50*
X82116116Y-63000000D02*
X79800398Y-63000000D01*
D52*
X128500000Y-61278128D02*
X128500000Y-61693761D01*
X93875000Y-63935000D02*
X92500000Y-63935000D01*
X81060000Y-52780000D02*
X81060000Y-51500000D01*
D50*
X79207107Y-63292893D02*
X79156155Y-63343845D01*
D52*
X119050000Y-62500000D02*
X118381250Y-62500000D01*
X132611945Y-51500000D02*
X134060000Y-51500000D01*
X81965096Y-54965096D02*
X84875000Y-57875000D01*
X128500000Y-60778110D02*
X128500000Y-61014055D01*
D50*
X77050480Y-62700482D02*
X77050480Y-62487157D01*
X78175000Y-63500000D02*
X77849998Y-63500000D01*
D52*
X127549999Y-60000000D02*
X127118926Y-60000000D01*
X127765536Y-60000000D02*
X128021890Y-60000000D01*
X88593476Y-60250000D02*
X112259009Y-60250000D01*
X127765536Y-59999999D02*
X127981073Y-59999999D01*
X95250000Y-62560000D02*
X95250000Y-60250000D01*
X114975000Y-61375000D02*
X115454765Y-61854765D01*
D50*
X79207107Y-63292893D02*
X79287585Y-63212415D01*
D52*
X120450000Y-62500000D02*
X121150000Y-62500000D01*
X128500000Y-61278128D02*
X128500000Y-61014055D01*
X129098422Y-62500000D02*
X130125000Y-62500000D01*
X128500000Y-55611945D02*
X128500000Y-61014055D01*
X128500000Y-61278128D02*
X128500000Y-61014055D01*
D50*
X84250000Y-61750000D02*
X83625000Y-62375000D01*
X74563323Y-60000000D02*
X71510000Y-60000000D01*
X78779127Y-63500000D02*
X78175000Y-63500000D01*
D52*
X128500000Y-61693761D02*
X128500000Y-61278128D01*
X120450000Y-62500000D02*
X119050000Y-62500000D01*
X128499999Y-58965536D02*
X128500000Y-58534463D01*
X123650000Y-60000000D02*
X127118926Y-60000000D01*
X86300000Y-59300000D02*
X85825000Y-58825000D01*
X118381250Y-62500000D02*
X117468750Y-62500000D01*
D50*
X85750000Y-60250000D02*
X86500000Y-59500000D01*
D52*
X128500000Y-61901578D02*
X128500000Y-61693761D01*
X128500000Y-61014055D02*
G75*
G02*
X128500000Y-61014055I0J0D01*
G01*
X128499999Y-59181073D02*
G75*
G02*
X127681073Y-59999999I-818899J-27D01*
G01*
X127549999Y-59999999D02*
G75*
G03*
X127549999Y-59999999I0J0D01*
G01*
D50*
X82116116Y-63000006D02*
G75*
G03*
X83624999Y-62374999I-16J2133906D01*
G01*
D52*
X129098422Y-62500000D02*
G75*
G02*
X128500000Y-61901578I-22J598400D01*
G01*
X81965095Y-54965097D02*
G75*
G02*
X81060000Y-52780000I2185105J2185097D01*
G01*
X122400000Y-61250000D02*
G75*
G02*
X123650000Y-60000000I1250000J0D01*
G01*
X121150000Y-62500000D02*
G75*
G03*
X122400000Y-61250000I0J1250000D01*
G01*
X115454759Y-61854771D02*
G75*
G03*
X117012500Y-62500000I1557741J1557771D01*
G01*
X127721890Y-60000000D02*
G75*
G02*
X128500000Y-60778110I10J-778100D01*
G01*
D50*
X78779127Y-63500029D02*
G75*
G03*
X79156155Y-63343845I-27J533229D01*
G01*
D52*
X128500000Y-55611945D02*
G75*
G02*
X132611945Y-51500000I4111900J45D01*
G01*
X127765536Y-59999999D02*
G75*
G03*
X127765536Y-59999999I0J0D01*
G01*
X88593476Y-60250028D02*
G75*
G02*
X86300000Y-59300000I24J3243428D01*
G01*
X128500000Y-61278128D02*
G75*
G02*
X128500000Y-61278128I0J0D01*
G01*
D50*
X79287591Y-63212421D02*
G75*
G02*
X79800398Y-63000000I512809J-512779D01*
G01*
X74563323Y-60000000D02*
G75*
G02*
X77050480Y-62487157I-3J-2487160D01*
G01*
X77849998Y-63500020D02*
G75*
G02*
X77050480Y-62700482I2J799520D01*
G01*
D52*
X93875000Y-63935000D02*
G75*
G03*
X95250000Y-62560000I0J1375000D01*
G01*
X112259009Y-60249996D02*
G75*
G02*
X114975000Y-61375000I-9J-3841004D01*
G01*
D50*
%TO.N,Net-(C4-Pad1)*%
X83900000Y-71480000D02*
X83067322Y-71480000D01*
X82605000Y-70555355D02*
X82605000Y-71017677D01*
D51*
X84155000Y-71735000D02*
X84155000Y-71990000D01*
X82630000Y-70495000D02*
X82655000Y-70470000D01*
D50*
X83067322Y-71480000D02*
G75*
G02*
X82605000Y-71017677I-22J462300D01*
G01*
D51*
X82604982Y-70555355D02*
G75*
G02*
X82630000Y-70495000I85418J-45D01*
G01*
X83900000Y-71480000D02*
G75*
G02*
X84155000Y-71735000I0J-255000D01*
G01*
D50*
%TO.N,/MPU_REGOUT*%
X69300000Y-61800000D02*
X69080000Y-61580000D01*
X69080000Y-61580000D02*
X69080000Y-61000000D01*
X69300000Y-62350000D02*
X69300000Y-61800000D01*
D51*
%TO.N,Net-(D2-Pad1)*%
X79000000Y-72514088D02*
X79000000Y-71049088D01*
D49*
%TO.N,VBUS*%
X111500000Y-88065000D02*
X108500000Y-88065000D01*
D50*
X86131819Y-73600000D02*
X86068180Y-73600000D01*
D49*
X123000000Y-114661819D02*
X123000000Y-112742641D01*
X122121320Y-110621320D02*
X120193792Y-108693792D01*
D50*
X86055000Y-73523180D02*
X86055000Y-71990000D01*
D49*
X120930000Y-115750000D02*
X121911819Y-115750000D01*
D50*
X83270514Y-73600000D02*
X86068180Y-73600000D01*
D49*
X90587500Y-87987500D02*
X90600000Y-88000000D01*
D50*
X94500000Y-88000000D02*
X94565000Y-88065000D01*
D49*
X118600000Y-104846036D02*
X118600000Y-94784902D01*
X113065098Y-89250000D02*
X112825193Y-89250000D01*
X94500000Y-88000000D02*
X108389038Y-88000000D01*
D50*
X86131819Y-73600000D02*
X90000000Y-73600000D01*
D49*
X88775000Y-88209727D02*
X88775000Y-89750000D01*
D50*
X94800000Y-73600000D02*
X94200000Y-73600000D01*
D49*
X88734727Y-87975000D02*
X90557322Y-87975000D01*
D50*
X82605000Y-72934486D02*
X82605000Y-72500000D01*
D49*
X113725000Y-84850000D02*
X111500000Y-84850000D01*
X111499999Y-87924806D02*
X111500000Y-84975000D01*
D50*
X96800000Y-75600000D02*
X96800000Y-88065000D01*
D49*
X90557322Y-87974991D02*
G75*
G02*
X90587500Y-87987500I-22J-42709D01*
G01*
X113065098Y-89250000D02*
G75*
G02*
X118600000Y-94784902I2J-5534900D01*
G01*
D50*
X86068180Y-73599952D02*
G75*
G03*
X86077500Y-73577500I20J13152D01*
G01*
D49*
X118599990Y-104846036D02*
G75*
G03*
X120193793Y-108693791I5441610J36D01*
G01*
X121911819Y-115750000D02*
G75*
G03*
X123000000Y-114661819I-19J1088200D01*
G01*
X88706204Y-88043796D02*
G75*
G02*
X88734727Y-87975000I28496J28496D01*
G01*
D52*
X108545961Y-88065015D02*
G75*
G02*
X108467501Y-88032499I39J111015D01*
G01*
D50*
X86055009Y-73523180D02*
G75*
G03*
X86077501Y-73577499I76791J-20D01*
G01*
X86077494Y-73577506D02*
G75*
G03*
X86131819Y-73600000I54306J54306D01*
G01*
X83270514Y-73600000D02*
G75*
G02*
X82605000Y-72934486I-14J665500D01*
G01*
X96800000Y-75600000D02*
G75*
G03*
X94800000Y-73600000I-2000000J0D01*
G01*
D49*
X88774988Y-88209727D02*
G75*
G03*
X88706249Y-88043751I-234688J27D01*
G01*
X122121340Y-110621300D02*
G75*
G02*
X123000000Y-112742641I-2121340J-2121300D01*
G01*
D52*
X108389038Y-87999985D02*
G75*
G02*
X108467499Y-88032501I-38J-111015D01*
G01*
D49*
X111500000Y-87924806D02*
G75*
G03*
X112825193Y-89250000I1325200J6D01*
G01*
D50*
%TO.N,/S1_TX*%
X78580164Y-76635000D02*
X92500000Y-76635000D01*
X75284784Y-78000000D02*
X72350000Y-78000000D01*
X78580164Y-76634972D02*
G75*
G03*
X76932501Y-77317501I36J-2330128D01*
G01*
X75284784Y-77999999D02*
G75*
G03*
X76932500Y-77317500I16J2330199D01*
G01*
%TO.N,/S1_RX*%
X80676388Y-77905000D02*
X92500000Y-77905000D01*
X75618611Y-80000000D02*
X72350000Y-80000000D01*
X78147497Y-78952497D02*
G75*
G02*
X75618611Y-80000000I-2528897J2528897D01*
G01*
X78147503Y-78952503D02*
G75*
G02*
X80676388Y-77905000I2528897J-2528897D01*
G01*
%TO.N,/S2_TX*%
X75600000Y-88555194D02*
X75600000Y-90665919D01*
X74265919Y-92000000D02*
X72350000Y-92000000D01*
X86790405Y-79175000D02*
X92500000Y-79175000D01*
X77972500Y-82827487D02*
G75*
G03*
X75600000Y-88555194I5727700J-5727713D01*
G01*
X75600000Y-90665919D02*
G75*
G02*
X74265919Y-92000000I-1334100J19D01*
G01*
X77972502Y-82827489D02*
G75*
G02*
X86790405Y-79175000I8817898J-8817911D01*
G01*
%TO.N,/S2_RX*%
X76900000Y-91331110D02*
X76900000Y-88880670D01*
X86918194Y-80445000D02*
X92500000Y-80445000D01*
X74231110Y-94000000D02*
X72350000Y-94000000D01*
X76899983Y-88880670D02*
G75*
G02*
X79042980Y-83707019I7316717J-30D01*
G01*
X79042991Y-83707030D02*
G75*
G02*
X86918194Y-80445000I7875209J-7875170D01*
G01*
X74231110Y-94000000D02*
G75*
G03*
X76900000Y-91331110I-10J2668900D01*
G01*
%TO.N,/S3_RX*%
X81254826Y-85745164D02*
X82102654Y-84897344D01*
X86719459Y-82985000D02*
X92500000Y-82985000D01*
X79600000Y-102586485D02*
X79600000Y-89740240D01*
X74186485Y-108000000D02*
X72350000Y-108000000D01*
X82102684Y-84897374D02*
G75*
G02*
X86719459Y-82985000I4616816J-4616726D01*
G01*
X74186485Y-108000000D02*
G75*
G03*
X79600000Y-102586485I15J5413500D01*
G01*
X79600040Y-89740240D02*
G75*
G02*
X81254827Y-85745165I5649860J40D01*
G01*
%TO.N,/S4_TX*%
X125182500Y-76317500D02*
X125298171Y-76201828D01*
X125785424Y-76000000D02*
X127650000Y-76000000D01*
X124415987Y-76635000D02*
X108500000Y-76635000D01*
X124415987Y-76634994D02*
G75*
G03*
X125182500Y-76317500I13J1083994D01*
G01*
X125298154Y-76201811D02*
G75*
G02*
X125785424Y-76000000I487246J-487289D01*
G01*
%TO.N,/S4_RX*%
X124441198Y-74558802D02*
X124317500Y-74682500D01*
X122669799Y-75365000D02*
X108500000Y-75365000D01*
X125790259Y-74000000D02*
X127650000Y-74000000D01*
X122669799Y-75364999D02*
G75*
G03*
X124317500Y-74682500I1J2330199D01*
G01*
X125790259Y-73999985D02*
G75*
G03*
X124441198Y-74558802I41J-1907915D01*
G01*
%TO.N,/MTMS_CS*%
X126000207Y-64822543D02*
X122133543Y-68689207D01*
X129193108Y-63500000D02*
X130125000Y-63500000D01*
X108500000Y-70283000D02*
X118285787Y-70283000D01*
X118285787Y-70282975D02*
G75*
G03*
X122133543Y-68689207I13J5441575D01*
G01*
X126000212Y-64822548D02*
G75*
G02*
X129193108Y-63500000I3192888J-3192852D01*
G01*
%TO.N,/MTDI_MOSI*%
X122798995Y-69701004D02*
X127165153Y-65334846D01*
X118323052Y-71555000D02*
X108500000Y-71555000D01*
X129180648Y-64500000D02*
X130125000Y-64500000D01*
X118323052Y-71554977D02*
G75*
G03*
X122798994Y-69701003I48J6329877D01*
G01*
X127165137Y-65334830D02*
G75*
G02*
X129180648Y-64500000I2015463J-2015470D01*
G01*
%TO.N,/MTCK_SCK*%
X118254923Y-74095000D02*
X108500000Y-74095000D01*
X128631303Y-67118696D02*
X124059215Y-71690784D01*
X128631311Y-67118704D02*
G75*
G02*
X130125000Y-66500000I1493689J-1493696D01*
G01*
X118254923Y-74095019D02*
G75*
G03*
X124059215Y-71690784I-23J8208519D01*
G01*
%TO.N,/MTDO_MISO*%
X129254241Y-65592032D02*
X129407967Y-65592032D01*
X129500000Y-65500000D02*
X130125000Y-65500000D01*
X118303182Y-72825000D02*
X108500000Y-72825000D01*
X128022948Y-66102051D02*
X123419068Y-70705931D01*
X118303182Y-72824974D02*
G75*
G03*
X123419068Y-70705931I18J7234974D01*
G01*
X128022936Y-66102039D02*
G75*
G02*
X129254241Y-65592032I1231264J-1231261D01*
G01*
%TO.N,/RST*%
X112910484Y-63935000D02*
X108500000Y-63935000D01*
X114274515Y-64500000D02*
X117925000Y-64500000D01*
X113592504Y-64217496D02*
G75*
G03*
X112910484Y-63935000I-682004J-682004D01*
G01*
X114274515Y-64499993D02*
G75*
G02*
X113592500Y-64217500I-15J964493D01*
G01*
%TO.N,/RX*%
X114304244Y-66445755D02*
X114127500Y-66622500D01*
X111417545Y-67745000D02*
X108500000Y-67745000D01*
X116587500Y-65500000D02*
X117925000Y-65500000D01*
X114127487Y-66622487D02*
G75*
G02*
X111417545Y-67745000I-2709987J2709987D01*
G01*
X116587500Y-65499997D02*
G75*
G03*
X114304245Y-66445756I0J-3229003D01*
G01*
%TO.N,/TX*%
X115319409Y-67180590D02*
X114742500Y-67757500D01*
X111706626Y-69015000D02*
X108500000Y-69015000D01*
X116962500Y-66500000D02*
X117925000Y-66500000D01*
X116962500Y-66500005D02*
G75*
G03*
X115319409Y-67180590I0J-2323695D01*
G01*
X111706626Y-69015010D02*
G75*
G03*
X114742499Y-67757499I-26J4293410D01*
G01*
%TO.N,/SCL*%
X79646447Y-65646447D02*
X79704034Y-65704034D01*
X70060000Y-67869705D02*
X70060000Y-68725000D01*
X76000000Y-67188689D02*
X76000000Y-66777154D01*
X88229160Y-66729160D02*
X89636321Y-68136321D01*
X70300000Y-66250000D02*
X70300000Y-67290294D01*
X77277154Y-65500000D02*
X78766163Y-65500000D01*
X71085000Y-69750000D02*
X73438689Y-69750000D01*
X91757641Y-69015000D02*
X92500000Y-69015000D01*
X79292893Y-65500000D02*
X78175000Y-65500000D01*
X80057587Y-65850480D02*
X86107839Y-65850480D01*
X79292893Y-65500005D02*
G75*
G02*
X79646447Y-65646447I7J-499995D01*
G01*
X89636301Y-68136341D02*
G75*
G03*
X91757641Y-69015000I2121299J2121341D01*
G01*
X88229144Y-66729176D02*
G75*
G03*
X86107839Y-65850480I-2121344J-2121324D01*
G01*
X77277154Y-65500000D02*
G75*
G03*
X76000000Y-66777154I46J-1277200D01*
G01*
X71085000Y-69750000D02*
G75*
G02*
X70060000Y-68725000I0J1025000D01*
G01*
X70180002Y-67580002D02*
G75*
G03*
X70300000Y-67290294I-289702J289702D01*
G01*
X76000000Y-67188689D02*
G75*
G02*
X73438689Y-69750000I-2561300J-11D01*
G01*
X80057587Y-65850495D02*
G75*
G02*
X79704034Y-65704034I13J499995D01*
G01*
X70060003Y-67869705D02*
G75*
G02*
X70180000Y-67580000I409697J5D01*
G01*
%TO.N,/SDA*%
X88949098Y-65699098D02*
X90462902Y-67212902D01*
X71565000Y-68750000D02*
X73376249Y-68750000D01*
X75000000Y-67126251D02*
X75000000Y-66769999D01*
X91747500Y-67745000D02*
X92500000Y-67745000D01*
X79087499Y-64500000D02*
X86054220Y-64500000D01*
X75000000Y-66769999D02*
X75000000Y-66762501D01*
X77262500Y-64500000D02*
X79087499Y-64500000D01*
X70800000Y-66250000D02*
X70800000Y-67290294D01*
X71040000Y-67869705D02*
X71040000Y-68225000D01*
X75000000Y-67126251D02*
G75*
G02*
X73376249Y-68750000I-1623700J-49D01*
G01*
X71565000Y-68750000D02*
G75*
G02*
X71040000Y-68225000I0J525000D01*
G01*
X70919998Y-67580002D02*
G75*
G02*
X70800000Y-67290294I289702J289702D01*
G01*
X77262500Y-64500000D02*
G75*
G03*
X75000000Y-66762501I0J-2262500D01*
G01*
X86054220Y-64499994D02*
G75*
G02*
X88949097Y-65699099I-20J-4094006D01*
G01*
X91747500Y-67744998D02*
G75*
G02*
X90462903Y-67212901I0J1816698D01*
G01*
X71039997Y-67869705D02*
G75*
G03*
X70920000Y-67580000I-409697J5D01*
G01*
%TO.N,/MPU_CPOUT*%
X68800000Y-66591939D02*
X68800000Y-66250000D01*
X68628283Y-67006501D02*
X68243238Y-67391546D01*
X68800021Y-66591939D02*
G75*
G02*
X68628283Y-67006501I-586321J39D01*
G01*
X67740000Y-67599991D02*
G75*
G03*
X68243238Y-67391546I0J711691D01*
G01*
%TO.N,/I00*%
X95397500Y-65205000D02*
X92500000Y-65205000D01*
X116414213Y-63500000D02*
X117925000Y-63500000D01*
X99102500Y-61500000D02*
X111585786Y-61500000D01*
X111585786Y-61500006D02*
G75*
G02*
X114000000Y-62500000I14J-3414194D01*
G01*
X113999996Y-62500004D02*
G75*
G03*
X116414213Y-63500000I2414204J2414204D01*
G01*
X99102500Y-61500000D02*
G75*
G03*
X97250000Y-63352500I0J-1852500D01*
G01*
X95397500Y-65205000D02*
G75*
G03*
X97250000Y-63352500I0J1852500D01*
G01*
%TO.N,/S3_TX*%
X74214153Y-106000000D02*
X72350000Y-106000000D01*
X78300000Y-101914153D02*
X78300000Y-89267416D01*
X80851880Y-84148118D02*
X80115430Y-84884570D01*
X86725944Y-81715000D02*
X92500000Y-81715000D01*
X78300015Y-89267416D02*
G75*
G02*
X80115431Y-84884571I6198285J16D01*
G01*
X74214153Y-106000000D02*
G75*
G03*
X78300000Y-101914153I-3J4085850D01*
G01*
X86725944Y-81715038D02*
G75*
G03*
X80851880Y-84148118I-44J-8307162D01*
G01*
D49*
%TO.N,/3V3_LDO1*%
X72653741Y-76000000D02*
X72856237Y-76000000D01*
X69500000Y-102032796D02*
X69500000Y-102574999D01*
X71945008Y-76000000D02*
X71135027Y-76000000D01*
X73058733Y-76000000D02*
X73159981Y-76000000D01*
X84917110Y-87975000D02*
X84249999Y-87975000D01*
X69499999Y-105140244D02*
X69499999Y-105425000D01*
X70653898Y-103999999D02*
X70924999Y-103999999D01*
X69500000Y-91132318D02*
X69500000Y-91424999D01*
X69500000Y-76855295D02*
X69500000Y-87967630D01*
X70632318Y-90000000D02*
X70924999Y-90000000D01*
X70925000Y-89999999D02*
X71510362Y-90000000D01*
X70355284Y-76000000D02*
X71135027Y-76000000D01*
X70653898Y-103999999D02*
X70355488Y-103999999D01*
X70653898Y-104000000D02*
X70382797Y-104000000D01*
X72653741Y-76000000D02*
X72451246Y-76000000D01*
X69500000Y-102574999D02*
X69500000Y-102032796D01*
X69500000Y-102032796D02*
X69500000Y-92010362D01*
X69500000Y-102846101D02*
X69500000Y-103117203D01*
X84917110Y-87975000D02*
X86362500Y-87975000D01*
D50*
X67990000Y-69500000D02*
X67990000Y-69782893D01*
D49*
X71510362Y-90000000D02*
X72350000Y-90000000D01*
X69500000Y-105140243D02*
X69500000Y-105424999D01*
X72248751Y-76000000D02*
X72451246Y-76000000D01*
X69500000Y-91424999D02*
X69500000Y-92010362D01*
D50*
X69231957Y-75730600D02*
X69231957Y-75729243D01*
D49*
X69500000Y-108180095D02*
X69500000Y-105994512D01*
X72451246Y-76000000D02*
X72248752Y-76000000D01*
D50*
X69750000Y-76250000D02*
X69232916Y-75732916D01*
D49*
X70632319Y-89999999D02*
X70925000Y-89999999D01*
X69500000Y-105994512D02*
X69499999Y-105425000D01*
X71510362Y-90000000D02*
X70924999Y-90000000D01*
X73058733Y-76000000D02*
X72856237Y-76000000D01*
X69500000Y-91132318D02*
X69500000Y-88878685D01*
X70632319Y-89999999D02*
X70339638Y-89999999D01*
X84083221Y-87975000D02*
X83749666Y-87975000D01*
D50*
X70355284Y-76000000D02*
X72248752Y-76000000D01*
D49*
X69499999Y-104855488D02*
X69499999Y-105140244D01*
X69500000Y-88878685D02*
X69500000Y-88575000D01*
X74197379Y-109750000D02*
X71069905Y-109750000D01*
X70632318Y-90000000D02*
X70317630Y-90000000D01*
X69500000Y-102846101D02*
X69500000Y-102574999D01*
X81250000Y-90307891D02*
X81250000Y-102697379D01*
X84249999Y-87975000D02*
X84083221Y-87975000D01*
X69500000Y-105424999D02*
X69500000Y-105994512D01*
X69500000Y-88878685D02*
X69500000Y-88575000D01*
X71467202Y-104000000D02*
X72350000Y-104000000D01*
X69500000Y-88575000D02*
X69500000Y-87967630D01*
X69500000Y-89182370D02*
X69500000Y-88878685D01*
X70653898Y-104000000D02*
X70924999Y-104000000D01*
X71467202Y-104000000D02*
X70924999Y-104000000D01*
X69500000Y-87967630D02*
X69500000Y-88575000D01*
X69500000Y-102846101D02*
X69500000Y-102574999D01*
D50*
X69040000Y-75186611D02*
X69040000Y-71540832D01*
D49*
X70924999Y-103999999D02*
X71467202Y-104000000D01*
X83582889Y-87975000D02*
X83749666Y-87975000D01*
X71945008Y-76000000D02*
X72248751Y-76000000D01*
X69499999Y-90839638D02*
X69499999Y-91132319D01*
X69499999Y-91132319D02*
X69499999Y-91425000D01*
X69500000Y-102846101D02*
X69500000Y-105140243D01*
X69500000Y-92010362D02*
X69499999Y-91425000D01*
D50*
X68136447Y-70136447D02*
X68685903Y-70685903D01*
D49*
X70924999Y-104000000D02*
G75*
G02*
X70924999Y-104000000I0J0D01*
G01*
X69500000Y-108180095D02*
G75*
G03*
X71069905Y-109750000I1569900J-5D01*
G01*
X69500000Y-76855295D02*
G75*
G02*
X70355284Y-76000000I855300J-5D01*
G01*
X69500000Y-103117203D02*
G75*
G03*
X70382797Y-104000000I882800J3D01*
G01*
X69500000Y-91424999D02*
G75*
G03*
X69499999Y-91425000I0J-1D01*
G01*
D50*
X69040011Y-71540832D02*
G75*
G03*
X68685903Y-70685903I-1209011J32D01*
G01*
D49*
X69500000Y-102846101D02*
G75*
G02*
X69500000Y-102846101I0J0D01*
G01*
X70317630Y-90000000D02*
G75*
G02*
X69500000Y-89182370I-30J817600D01*
G01*
D50*
X69231948Y-75730600D02*
G75*
G03*
X69232917Y-75732915I3252J0D01*
G01*
D49*
X70355488Y-103999999D02*
G75*
G03*
X69499999Y-104855488I12J-855501D01*
G01*
D50*
X68136444Y-70136450D02*
G75*
G02*
X67990000Y-69782893I353556J353550D01*
G01*
D49*
X69500000Y-102574999D02*
G75*
G02*
X69500000Y-102574999I0J0D01*
G01*
X83582889Y-87975000D02*
G75*
G03*
X81250000Y-90307891I11J-2332900D01*
G01*
X69500000Y-105140243D02*
G75*
G03*
X69499999Y-105140244I0J-1D01*
G01*
X70339638Y-89999999D02*
G75*
G03*
X69499999Y-90839638I-38J-839601D01*
G01*
X81250000Y-102697379D02*
G75*
G02*
X74197379Y-109750000I-7052600J-21D01*
G01*
X69500000Y-88575000D02*
G75*
G02*
X69500000Y-88575000I0J0D01*
G01*
X69500000Y-105424999D02*
G75*
G03*
X69499999Y-105425000I0J-1D01*
G01*
X70653898Y-104000000D02*
G75*
G02*
X70653898Y-104000000I0J0D01*
G01*
X69500000Y-91132318D02*
G75*
G03*
X69499999Y-91132319I0J-1D01*
G01*
X69500000Y-88878685D02*
G75*
G02*
X69500000Y-88878685I0J0D01*
G01*
D50*
X69040021Y-75186611D02*
G75*
G03*
X69231957Y-75729243I872379J3311D01*
G01*
D49*
X70632319Y-89999999D02*
G75*
G03*
X70632318Y-90000000I0J-1D01*
G01*
D50*
X72248752Y-76000000D02*
G75*
G03*
X72248752Y-76000000I0J0D01*
G01*
D49*
X70925000Y-89999999D02*
G75*
G03*
X70924999Y-90000000I0J-1D01*
G01*
%TO.N,/3V3_LDO2*%
X126754112Y-106000000D02*
X129655642Y-106000000D01*
X127713639Y-92000000D02*
X127586360Y-92000000D01*
X129356605Y-92000000D02*
X129650929Y-92000000D01*
X129356605Y-92000000D02*
X129124999Y-92000000D01*
X130600000Y-93212035D02*
X130600000Y-92949071D01*
X130600000Y-90061788D02*
X130600000Y-90524999D01*
X126754112Y-106000000D02*
X126174999Y-106000000D01*
X130600000Y-79006736D02*
X130600000Y-90061788D01*
X130599999Y-90756605D02*
X130599999Y-90988210D01*
X126174999Y-106000000D02*
X126030221Y-106000000D01*
X130600000Y-93212035D02*
X130600000Y-90756605D01*
X125595887Y-106000000D02*
X125740665Y-106000000D01*
D51*
X127645000Y-92005000D02*
X127400000Y-92250000D01*
D49*
X130599999Y-90524999D02*
X130600000Y-90061788D01*
X127713639Y-92000000D02*
X128661788Y-92000000D01*
D50*
X127632928Y-92010000D02*
X124500000Y-92010000D01*
X127605000Y-91955000D02*
X127560000Y-91910000D01*
D49*
X129356605Y-91999999D02*
X129588210Y-91999999D01*
X128661788Y-92000000D02*
X129124999Y-91999999D01*
X130600000Y-93212035D02*
X130600000Y-93474999D01*
X129356605Y-91999999D02*
X129124999Y-91999999D01*
X130599999Y-90756605D02*
X130599999Y-90524999D01*
X129124999Y-92000000D02*
X128661788Y-92000000D01*
X129593264Y-78000000D02*
X127650000Y-78000000D01*
X130600000Y-90756605D02*
X130600000Y-90524999D01*
X130600000Y-93474999D02*
X130600000Y-94000928D01*
X130600000Y-93212035D02*
X130600000Y-93474999D01*
X130600000Y-94000928D02*
X130600000Y-93474999D01*
X120400000Y-86564955D02*
X120400000Y-100804113D01*
X130600000Y-105055642D02*
X130600000Y-94000928D01*
X126030221Y-106000000D02*
X125740665Y-106000000D01*
X118685045Y-84850000D02*
X116000000Y-84850000D01*
D51*
X127645000Y-92005000D02*
G75*
G02*
X127645000Y-92005000I0J0D01*
G01*
D49*
X118685045Y-84850000D02*
G75*
G02*
X120400000Y-86564955I-45J-1715000D01*
G01*
D50*
X127604988Y-91955012D02*
G75*
G03*
X127713639Y-92000000I108612J108612D01*
G01*
D49*
X130600000Y-93212035D02*
G75*
G02*
X130600000Y-93212035I0J0D01*
G01*
X130600000Y-90756605D02*
G75*
G02*
X130600000Y-90756605I0J0D01*
G01*
X130600000Y-90524999D02*
G75*
G02*
X130600000Y-90524999I0J0D01*
G01*
X129588210Y-91999999D02*
G75*
G03*
X130599999Y-90988210I-10J1011799D01*
G01*
D50*
X127605068Y-91954932D02*
G75*
G02*
X127586360Y-92000000I-18668J-18668D01*
G01*
D51*
X127632928Y-92010011D02*
G75*
G03*
X127644999Y-92004999I-28J17111D01*
G01*
D49*
X129593264Y-78000000D02*
G75*
G02*
X130600000Y-79006736I36J-1006700D01*
G01*
X130600000Y-93474999D02*
G75*
G02*
X130600000Y-93474999I0J0D01*
G01*
X129124999Y-91999999D02*
G75*
G03*
X129124999Y-91999999I0J0D01*
G01*
X129655642Y-106000000D02*
G75*
G03*
X130600000Y-105055642I-42J944400D01*
G01*
X129356605Y-91999999D02*
G75*
G03*
X129356605Y-91999999I0J0D01*
G01*
X129650929Y-92000000D02*
G75*
G02*
X130600000Y-92949071I-29J-949100D01*
G01*
X125595887Y-106000000D02*
G75*
G02*
X120400000Y-100804113I13J5195900D01*
G01*
D50*
%TO.N,Net-(Q1-Pad3)*%
X85567500Y-70115000D02*
X85155000Y-70115000D01*
X86271681Y-69823318D02*
X86297500Y-69797500D01*
X87064009Y-69480000D02*
X87605000Y-69480000D01*
X86297496Y-69797496D02*
G75*
G02*
X87064009Y-69480000I766504J-766504D01*
G01*
X85567500Y-70114988D02*
G75*
G03*
X86271681Y-69823318I0J995888D01*
G01*
D51*
%TO.N,/LDO1_EN*%
X89767500Y-84525000D02*
X89260000Y-84525000D01*
X90841897Y-85091897D02*
X90633856Y-84883856D01*
X91887500Y-85525000D02*
X92500000Y-85525000D01*
X90841898Y-85091896D02*
G75*
G03*
X91887500Y-85525000I1045602J1045596D01*
G01*
X89767500Y-84524997D02*
G75*
G02*
X90633855Y-84883857I0J-1225203D01*
G01*
D53*
%TO.N,Net-(D1-Pad1)*%
X123100000Y-120390128D02*
X123100000Y-122000000D01*
X121459872Y-118750000D02*
X120930000Y-118750000D01*
X123100000Y-120390128D02*
G75*
G03*
X121459872Y-118750000I-1640100J28D01*
G01*
D50*
%TO.N,/LDO2_EN*%
X109350000Y-84225000D02*
X108500000Y-84225000D01*
X112600000Y-87600000D02*
X113168180Y-88168180D01*
D51*
X113245000Y-88200000D02*
X113290000Y-88200000D01*
D50*
X110200000Y-85075000D02*
X110200000Y-86750000D01*
X113168188Y-88168172D02*
G75*
G03*
X113245000Y-88200000I76812J76772D01*
G01*
X109350000Y-84225000D02*
G75*
G02*
X110200000Y-85075000I0J-850000D01*
G01*
%TO.N,/MPU_INT*%
X66250000Y-60856041D02*
X66250000Y-59250000D01*
X66250000Y-57250000D02*
X66250000Y-55260000D01*
X68300000Y-62350000D02*
X67743959Y-62350000D01*
X67743959Y-62350000D02*
G75*
G02*
X66250000Y-60856041I41J1494000D01*
G01*
%TO.N,/S5_TX*%
X124399999Y-89354415D02*
X124399999Y-89555000D01*
X124400000Y-88063247D02*
X124400000Y-85922677D01*
X124400000Y-88063247D02*
X124399999Y-89354415D01*
X122474776Y-81274776D02*
X122347732Y-81147732D01*
X124399999Y-90819287D02*
X124399999Y-90444999D01*
X117585136Y-79175000D02*
X108500000Y-79175000D01*
X124449999Y-90939999D02*
X124500000Y-90990000D01*
X124844998Y-90000000D02*
X127650000Y-90000000D01*
X124399999Y-90444999D02*
X124399999Y-89555000D01*
X124400000Y-90444999D02*
G75*
G02*
X124844998Y-90000000I445000J-1D01*
G01*
X124400023Y-85922677D02*
G75*
G03*
X122474776Y-81274776I-6573123J-23D01*
G01*
X124449995Y-90940003D02*
G75*
G02*
X124399999Y-90819287I120705J120703D01*
G01*
X122347708Y-81147756D02*
G75*
G03*
X117585136Y-79175000I-4762608J-4762544D01*
G01*
X124844998Y-90000001D02*
G75*
G02*
X124399999Y-89555000I2J445001D01*
G01*
%TO.N,/S5_RX*%
X117548329Y-77905000D02*
X108500000Y-77905000D01*
X125584997Y-82384997D02*
X123619946Y-80419946D01*
X127650000Y-87370357D02*
X127650000Y-88000000D01*
X125584983Y-82385011D02*
G75*
G02*
X127650000Y-87370357I-4985383J-4985389D01*
G01*
X123619939Y-80419953D02*
G75*
G03*
X117548329Y-77905000I-6071639J-6071647D01*
G01*
%TO.N,/S6_TX*%
X117557800Y-81715000D02*
X108500000Y-81715000D01*
X125777719Y-104000000D02*
X127650000Y-104000000D01*
X121800000Y-100022281D02*
X121800000Y-85957129D01*
X120557509Y-82957491D02*
G75*
G03*
X117557800Y-81715000I-2999709J-2999809D01*
G01*
X120557518Y-82957482D02*
G75*
G02*
X121800000Y-85957129I-2999618J-2999618D01*
G01*
X125777719Y-104000000D02*
G75*
G02*
X121800000Y-100022281I-19J3977700D01*
G01*
%TO.N,/S6_RX*%
X123000000Y-99284690D02*
X123000000Y-85830923D01*
X125715310Y-102000000D02*
X127650000Y-102000000D01*
X117614058Y-80445000D02*
X108500000Y-80445000D01*
X121422506Y-82022494D02*
G75*
G02*
X123000000Y-85830923I-3808406J-3808406D01*
G01*
X117614058Y-80445039D02*
G75*
G02*
X121422500Y-82022500I42J-5385961D01*
G01*
X125715310Y-102000000D02*
G75*
G02*
X123000000Y-99284690I-10J2715300D01*
G01*
D51*
%TO.N,Net-(R7-Pad2)*%
X88232928Y-84525000D02*
X87260000Y-84525000D01*
X88250000Y-85756250D02*
X88250000Y-84542071D01*
X88568750Y-86075000D02*
X88887500Y-86075000D01*
X88250011Y-84542071D02*
G75*
G03*
X88244999Y-84530001I-17111J-29D01*
G01*
X88244992Y-84530008D02*
G75*
G03*
X88232928Y-84525000I-12092J-12092D01*
G01*
X88568750Y-86075000D02*
G75*
G02*
X88250000Y-85756250I-50J318700D01*
G01*
D50*
%TO.N,Net-(BZ1-Pad1)*%
X118070000Y-55495000D02*
X118075000Y-55500000D01*
X118057928Y-55490000D02*
X116150000Y-55490000D01*
X118057928Y-55489989D02*
G75*
G02*
X118069999Y-55495001I-28J-17111D01*
G01*
%TO.N,/LED*%
X79000000Y-74689125D02*
X79000000Y-74064088D01*
X79675875Y-75365000D02*
X92500000Y-75365000D01*
X79675875Y-75365000D02*
G75*
G02*
X79000000Y-74689125I25J675900D01*
G01*
%TO.N,/MPU_AD0*%
X69800000Y-62350000D02*
X69800480Y-62349520D01*
X69110000Y-60000000D02*
X69110000Y-59000000D01*
X69800480Y-62349520D02*
X69800480Y-61104694D01*
X69507587Y-60397587D02*
X69110000Y-60000000D01*
X69507580Y-60397594D02*
G75*
G02*
X69800480Y-61104694I-707080J-707106D01*
G01*
%TO.N,/3V3_MPU*%
X70500000Y-60980000D02*
X70500000Y-59250000D01*
X66250000Y-58250000D02*
X68000000Y-58250000D01*
X70300000Y-62350000D02*
X70300000Y-61824639D01*
X70300000Y-61824639D02*
X70520000Y-61604639D01*
X65290592Y-66938118D02*
X65290592Y-58958967D01*
X72914644Y-67700000D02*
X72063384Y-67700000D01*
X70520000Y-61604639D02*
X70520000Y-61000000D01*
X68090000Y-58340000D02*
X68000000Y-58250000D01*
X69010000Y-68610500D02*
X69040000Y-68580500D01*
X69010000Y-69500000D02*
X69010000Y-68610500D01*
X69500000Y-58250000D02*
X68000000Y-58250000D01*
X65250293Y-63120293D02*
X65250000Y-63120000D01*
X69040000Y-68580500D02*
X66932974Y-68580500D01*
X68090000Y-59000000D02*
X68090000Y-58340000D01*
X70520000Y-61000000D02*
X70500000Y-60980000D01*
X66234330Y-63120293D02*
X65250293Y-63120293D01*
X67600000Y-63050000D02*
X66379497Y-63050000D01*
X72062393Y-67697607D02*
X72064786Y-67695214D01*
X69040000Y-68663930D02*
X69040000Y-68580500D01*
X73000000Y-67750000D02*
X72975000Y-67725000D01*
X69040000Y-68663930D02*
X69040000Y-67700000D01*
X69500000Y-58250000D02*
G75*
G02*
X70500000Y-59250000I0J-1000000D01*
G01*
X65290600Y-66938118D02*
G75*
G03*
X66932974Y-68580500I1642400J18D01*
G01*
X72974987Y-67725013D02*
G75*
G03*
X72914644Y-67700000I-60387J-60387D01*
G01*
X66234331Y-63120295D02*
G75*
G03*
X66295000Y-63085000I-48231J152695D01*
G01*
X66250000Y-58249987D02*
G75*
G03*
X65290593Y-58958967I2200J-1006613D01*
G01*
X72063384Y-67700014D02*
G75*
G02*
X72062393Y-67697607I16J1414D01*
G01*
X66295001Y-63085001D02*
G75*
G02*
X66379497Y-63050000I84499J-84499D01*
G01*
%TO.N,Net-(R10-Pad2)*%
X114200000Y-86987500D02*
X114200000Y-88012218D01*
X114387781Y-88200000D02*
X115352500Y-88200000D01*
X113962500Y-86750000D02*
X113725000Y-86750000D01*
X113962500Y-86750000D02*
G75*
G02*
X114200000Y-86987500I0J-237500D01*
G01*
X114199993Y-88012218D02*
G75*
G03*
X114255000Y-88145000I187807J18D01*
G01*
X114387781Y-88200007D02*
G75*
G02*
X114255000Y-88145000I19J187807D01*
G01*
%TD*%
%TA.AperFunction,Conductor*%
%TO.N,+BATT*%
G36*
X126272037Y-123293427D02*
G01*
X126275454Y-123301227D01*
X126290122Y-123663651D01*
X126292795Y-123729704D01*
X126342417Y-124095660D01*
X126418217Y-124404517D01*
X126514546Y-124672918D01*
X126514642Y-124673130D01*
X126514644Y-124673134D01*
X126577503Y-124811383D01*
X126625757Y-124917512D01*
X126625823Y-124917642D01*
X126746179Y-125154903D01*
X126746200Y-125154944D01*
X126870106Y-125401616D01*
X126870334Y-125402096D01*
X126992024Y-125674525D01*
X126992343Y-125675317D01*
X127106280Y-125990261D01*
X127106577Y-125991203D01*
X127205134Y-126357758D01*
X127203973Y-126366637D01*
X127200200Y-126370613D01*
X125300702Y-127602000D01*
X124140144Y-125648506D01*
X124361461Y-125394033D01*
X124572506Y-125178508D01*
X124572767Y-125178250D01*
X124770551Y-124988547D01*
X124843279Y-124917642D01*
X124952130Y-124811520D01*
X125114271Y-124634297D01*
X125253875Y-124443870D01*
X125367847Y-124227233D01*
X125453089Y-123971379D01*
X125506506Y-123663304D01*
X125524449Y-123301121D01*
X125528281Y-123293028D01*
X125536135Y-123290000D01*
X126263764Y-123290000D01*
X126272037Y-123293427D01*
G37*
%TD.AperFunction*%
%TD*%
%TA.AperFunction,Conductor*%
%TO.N,GND*%
G36*
X68859065Y-63156892D02*
G01*
X68876705Y-63168229D01*
X68903908Y-63189103D01*
X68945775Y-63246442D01*
X68948099Y-63253567D01*
X68954044Y-63273813D01*
X68967583Y-63275842D01*
X69027194Y-63267994D01*
X69027427Y-63269765D01*
X69072507Y-63269766D01*
X69072676Y-63268481D01*
X69182669Y-63282962D01*
X69182670Y-63282962D01*
X69186756Y-63283500D01*
X69413244Y-63283500D01*
X69417330Y-63282962D01*
X69417331Y-63282962D01*
X69527324Y-63268481D01*
X69527527Y-63270026D01*
X69572473Y-63270026D01*
X69572676Y-63268481D01*
X69682669Y-63282962D01*
X69682670Y-63282962D01*
X69686756Y-63283500D01*
X69913244Y-63283500D01*
X69917330Y-63282962D01*
X69917331Y-63282962D01*
X70027324Y-63268481D01*
X70027527Y-63270026D01*
X70072473Y-63270026D01*
X70072676Y-63268481D01*
X70182669Y-63282962D01*
X70182670Y-63282962D01*
X70186756Y-63283500D01*
X70413244Y-63283500D01*
X70417337Y-63282961D01*
X70417339Y-63282961D01*
X70426937Y-63281698D01*
X70497085Y-63292639D01*
X70550183Y-63339768D01*
X70569371Y-63408122D01*
X70568302Y-63423063D01*
X70567039Y-63432661D01*
X70566500Y-63436756D01*
X70566500Y-63663244D01*
X70567038Y-63667330D01*
X70567038Y-63667331D01*
X70581519Y-63777324D01*
X70579974Y-63777527D01*
X70579974Y-63822473D01*
X70581519Y-63822676D01*
X70566500Y-63936756D01*
X70566500Y-64163244D01*
X70567038Y-64167330D01*
X70567038Y-64167331D01*
X70581519Y-64277324D01*
X70579974Y-64277527D01*
X70579974Y-64322473D01*
X70581519Y-64322676D01*
X70566500Y-64436756D01*
X70566500Y-64663244D01*
X70567038Y-64667330D01*
X70567038Y-64667331D01*
X70581519Y-64777324D01*
X70579974Y-64777527D01*
X70579974Y-64822473D01*
X70581519Y-64822676D01*
X70566500Y-64936756D01*
X70566500Y-65163244D01*
X70567039Y-65167337D01*
X70567039Y-65167339D01*
X70568302Y-65176937D01*
X70557361Y-65247085D01*
X70510232Y-65300183D01*
X70441878Y-65319371D01*
X70426937Y-65318302D01*
X70417339Y-65317039D01*
X70417337Y-65317039D01*
X70413244Y-65316500D01*
X70186756Y-65316500D01*
X70182670Y-65317038D01*
X70182669Y-65317038D01*
X70072676Y-65331519D01*
X70072473Y-65329974D01*
X70027527Y-65329974D01*
X70027324Y-65331519D01*
X69917331Y-65317038D01*
X69917330Y-65317038D01*
X69913244Y-65316500D01*
X69686756Y-65316500D01*
X69682670Y-65317038D01*
X69682669Y-65317038D01*
X69572676Y-65331519D01*
X69572473Y-65329974D01*
X69527527Y-65329974D01*
X69527324Y-65331519D01*
X69417331Y-65317038D01*
X69417330Y-65317038D01*
X69413244Y-65316500D01*
X69186756Y-65316500D01*
X69182670Y-65317038D01*
X69182669Y-65317038D01*
X69072676Y-65331519D01*
X69072473Y-65329974D01*
X69027527Y-65329974D01*
X69027324Y-65331519D01*
X68917331Y-65317038D01*
X68917330Y-65317038D01*
X68913244Y-65316500D01*
X68686756Y-65316500D01*
X68682663Y-65317039D01*
X68682661Y-65317039D01*
X68673063Y-65318302D01*
X68602915Y-65307361D01*
X68549817Y-65260232D01*
X68530629Y-65191878D01*
X68531698Y-65176937D01*
X68532961Y-65167339D01*
X68532961Y-65167337D01*
X68533500Y-65163244D01*
X68533500Y-64936756D01*
X68518481Y-64822676D01*
X68520026Y-64822473D01*
X68520026Y-64777527D01*
X68518481Y-64777324D01*
X68532962Y-64667331D01*
X68532962Y-64667330D01*
X68533500Y-64663244D01*
X68533500Y-64436756D01*
X68518481Y-64322676D01*
X68520026Y-64322473D01*
X68520026Y-64277527D01*
X68518481Y-64277324D01*
X68532962Y-64167331D01*
X68532962Y-64167330D01*
X68533500Y-64163244D01*
X68533500Y-63936756D01*
X68518481Y-63822676D01*
X68520026Y-63822473D01*
X68520026Y-63777527D01*
X68518481Y-63777324D01*
X68532962Y-63667331D01*
X68532962Y-63667330D01*
X68533500Y-63663244D01*
X68533500Y-63436756D01*
X68530777Y-63416072D01*
X68541717Y-63345923D01*
X68588845Y-63292825D01*
X68636284Y-63275131D01*
X68646222Y-63273581D01*
X68651783Y-63254216D01*
X68689811Y-63194263D01*
X68696184Y-63189033D01*
X68723296Y-63168229D01*
X68789516Y-63142628D01*
X68859065Y-63156892D01*
G37*
%TD.AperFunction*%
%TD*%
%TA.AperFunction,Conductor*%
%TO.N,+BATT*%
G36*
X126375000Y-126750000D02*
G01*
X125878194Y-127227755D01*
X125878192Y-127227756D01*
X124743317Y-128319111D01*
X124734978Y-128322376D01*
X124729699Y-128321000D01*
X124415204Y-128153114D01*
X124414459Y-128152681D01*
X124143869Y-127981514D01*
X124143354Y-127981169D01*
X123908427Y-127814513D01*
X123908256Y-127814389D01*
X123693919Y-127656429D01*
X123693917Y-127656427D01*
X123693866Y-127656390D01*
X123484937Y-127511276D01*
X123471702Y-127503524D01*
X123266658Y-127383431D01*
X123266650Y-127383427D01*
X123266365Y-127383260D01*
X123022949Y-127276483D01*
X123022572Y-127276375D01*
X123022570Y-127276374D01*
X122739847Y-127195190D01*
X122739848Y-127195190D01*
X122739485Y-127195086D01*
X122739112Y-127195029D01*
X122739108Y-127195028D01*
X122581021Y-127170817D01*
X122400773Y-127143211D01*
X122002790Y-127125498D01*
X121994678Y-127121707D01*
X121991611Y-127113810D01*
X121991611Y-126386190D01*
X121995038Y-126377917D01*
X122002790Y-126374502D01*
X122400773Y-126356788D01*
X122581021Y-126329182D01*
X122739108Y-126304971D01*
X122739112Y-126304970D01*
X122739485Y-126304913D01*
X122805466Y-126285966D01*
X123022570Y-126223625D01*
X123022572Y-126223624D01*
X123022949Y-126223516D01*
X123266365Y-126116739D01*
X123266650Y-126116572D01*
X123266658Y-126116568D01*
X123484744Y-125988836D01*
X123484743Y-125988836D01*
X123484937Y-125988723D01*
X123693866Y-125843609D01*
X123908275Y-125685596D01*
X123908427Y-125685486D01*
X124143354Y-125518830D01*
X124143869Y-125518485D01*
X124394830Y-125359735D01*
X124395399Y-125359375D01*
X124395400Y-125359374D01*
X124414816Y-125347092D01*
X124737193Y-125175000D01*
X126375000Y-126750000D01*
G37*
%TD.AperFunction*%
%TD*%
%TA.AperFunction,Conductor*%
%TO.N,GND*%
G36*
X93865973Y-88660725D02*
G01*
X93885053Y-88674764D01*
X93888747Y-88678866D01*
X93894089Y-88682747D01*
X93894091Y-88682749D01*
X94037906Y-88787237D01*
X94043248Y-88791118D01*
X94049276Y-88793802D01*
X94049278Y-88793803D01*
X94190948Y-88856878D01*
X94217712Y-88868794D01*
X94311112Y-88888647D01*
X94398056Y-88907128D01*
X94398061Y-88907128D01*
X94404513Y-88908500D01*
X94595487Y-88908500D01*
X94601939Y-88907128D01*
X94601944Y-88907128D01*
X94688888Y-88888647D01*
X94782288Y-88868794D01*
X94834817Y-88845407D01*
X94893245Y-88819393D01*
X94944494Y-88808500D01*
X107319124Y-88808500D01*
X107387245Y-88828502D01*
X107408157Y-88845355D01*
X107413145Y-88851855D01*
X107538168Y-88947788D01*
X107545794Y-88950947D01*
X107545796Y-88950948D01*
X107566230Y-88959412D01*
X107683760Y-89008095D01*
X107691944Y-89009172D01*
X107691946Y-89009173D01*
X107796688Y-89022962D01*
X107800775Y-89023500D01*
X108499915Y-89023500D01*
X109199224Y-89023499D01*
X109203308Y-89022961D01*
X109203314Y-89022961D01*
X109251751Y-89016584D01*
X109316240Y-89008095D01*
X109323862Y-89004938D01*
X109323865Y-89004937D01*
X109405696Y-88971040D01*
X109461832Y-88947788D01*
X109524714Y-88899537D01*
X109590935Y-88873937D01*
X109601418Y-88873500D01*
X109874000Y-88873500D01*
X109942121Y-88893502D01*
X109988614Y-88947158D01*
X110000000Y-88999500D01*
X110000000Y-90190500D01*
X109979998Y-90258621D01*
X109926342Y-90305114D01*
X109874000Y-90316500D01*
X91626000Y-90316500D01*
X91557879Y-90296498D01*
X91511386Y-90242842D01*
X91500000Y-90190500D01*
X91500000Y-89120552D01*
X91520002Y-89052431D01*
X91573658Y-89005938D01*
X91643932Y-88995834D01*
X91674218Y-89004143D01*
X91676131Y-89004935D01*
X91683760Y-89008095D01*
X91691944Y-89009172D01*
X91691946Y-89009173D01*
X91796688Y-89022962D01*
X91800775Y-89023500D01*
X92499915Y-89023500D01*
X93199224Y-89023499D01*
X93203308Y-89022961D01*
X93203314Y-89022961D01*
X93251751Y-89016584D01*
X93316240Y-89008095D01*
X93323862Y-89004938D01*
X93323865Y-89004937D01*
X93454204Y-88950948D01*
X93454206Y-88950947D01*
X93461832Y-88947788D01*
X93586855Y-88851855D01*
X93682788Y-88726832D01*
X93685948Y-88719203D01*
X93690078Y-88712050D01*
X93691636Y-88712950D01*
X93729818Y-88665577D01*
X93797183Y-88643162D01*
X93865973Y-88660725D01*
G37*
%TD.AperFunction*%
%TA.AperFunction,Conductor*%
G36*
X94881784Y-74264937D02*
G01*
X94999971Y-74274238D01*
X95019499Y-74277331D01*
X95204909Y-74321844D01*
X95223704Y-74327951D01*
X95399871Y-74400922D01*
X95417476Y-74409892D01*
X95576151Y-74507128D01*
X95580063Y-74509525D01*
X95596058Y-74521147D01*
X95741043Y-74644976D01*
X95755024Y-74658957D01*
X95878853Y-74803942D01*
X95890474Y-74819935D01*
X95990108Y-74982524D01*
X95999078Y-75000129D01*
X96072047Y-75176291D01*
X96078156Y-75195091D01*
X96102956Y-75298389D01*
X96122669Y-75380500D01*
X96125762Y-75400028D01*
X96138323Y-75559634D01*
X96137723Y-75582542D01*
X96137692Y-75585520D01*
X96136700Y-75593054D01*
X96139001Y-75613892D01*
X96140739Y-75629638D01*
X96141500Y-75643465D01*
X96141500Y-87065500D01*
X96121498Y-87133621D01*
X96067842Y-87180114D01*
X96015500Y-87191500D01*
X94944494Y-87191500D01*
X94893245Y-87180607D01*
X94788319Y-87133891D01*
X94788318Y-87133891D01*
X94782288Y-87131206D01*
X94688888Y-87111353D01*
X94601944Y-87092872D01*
X94601939Y-87092872D01*
X94595487Y-87091500D01*
X94404513Y-87091500D01*
X94398061Y-87092872D01*
X94398056Y-87092872D01*
X94311112Y-87111353D01*
X94217712Y-87131206D01*
X94211682Y-87133891D01*
X94211681Y-87133891D01*
X94049278Y-87206197D01*
X94049276Y-87206198D01*
X94043248Y-87208882D01*
X94037907Y-87212762D01*
X94037906Y-87212763D01*
X93958561Y-87270411D01*
X93891693Y-87294269D01*
X93822542Y-87278189D01*
X93773062Y-87227275D01*
X93758500Y-87168475D01*
X93758500Y-86393738D01*
X93748271Y-86316041D01*
X93744160Y-86284814D01*
X93744159Y-86284810D01*
X93743082Y-86276630D01*
X93739924Y-86269006D01*
X93739923Y-86269002D01*
X93714310Y-86207167D01*
X93706721Y-86136578D01*
X93714308Y-86110737D01*
X93743095Y-86041240D01*
X93754138Y-85957357D01*
X93757962Y-85928312D01*
X93757962Y-85928311D01*
X93758500Y-85924225D01*
X93758499Y-85125776D01*
X93746654Y-85035790D01*
X93744173Y-85016947D01*
X93744172Y-85016945D01*
X93743095Y-85008760D01*
X93739936Y-85001134D01*
X93739935Y-85001130D01*
X93713875Y-84938219D01*
X93706285Y-84867630D01*
X93713875Y-84841781D01*
X93720089Y-84826781D01*
X93743095Y-84771240D01*
X93746040Y-84748871D01*
X93757962Y-84658312D01*
X93757962Y-84658311D01*
X93758500Y-84654225D01*
X93758499Y-83855776D01*
X93755093Y-83829897D01*
X93744173Y-83746947D01*
X93744172Y-83746945D01*
X93743095Y-83738760D01*
X93739936Y-83731134D01*
X93739935Y-83731130D01*
X93713875Y-83668219D01*
X93706285Y-83597630D01*
X93713875Y-83571781D01*
X93739934Y-83508871D01*
X93739935Y-83508868D01*
X93743095Y-83501240D01*
X93744585Y-83489920D01*
X93757962Y-83388312D01*
X93757962Y-83388311D01*
X93758500Y-83384225D01*
X93758499Y-82585776D01*
X93743095Y-82468760D01*
X93714310Y-82399267D01*
X93706721Y-82328679D01*
X93714310Y-82302833D01*
X93739923Y-82240998D01*
X93739924Y-82240994D01*
X93743082Y-82233370D01*
X93744159Y-82225190D01*
X93744160Y-82225186D01*
X93757962Y-82120348D01*
X93758500Y-82116262D01*
X93758500Y-81313738D01*
X93750671Y-81254274D01*
X93744160Y-81204814D01*
X93744159Y-81204810D01*
X93743082Y-81196630D01*
X93739924Y-81189006D01*
X93739923Y-81189002D01*
X93714310Y-81127167D01*
X93706721Y-81056578D01*
X93714308Y-81030737D01*
X93743095Y-80961240D01*
X93758500Y-80844225D01*
X93758499Y-80045776D01*
X93743095Y-79928760D01*
X93739936Y-79921134D01*
X93739935Y-79921130D01*
X93724766Y-79884510D01*
X93713875Y-79858218D01*
X93706285Y-79787630D01*
X93713875Y-79761781D01*
X93739934Y-79698871D01*
X93739934Y-79698870D01*
X93743095Y-79691240D01*
X93758500Y-79574225D01*
X93758499Y-78775776D01*
X93755651Y-78754135D01*
X93744173Y-78666947D01*
X93744172Y-78666945D01*
X93743095Y-78658760D01*
X93739936Y-78651134D01*
X93739935Y-78651130D01*
X93713875Y-78588219D01*
X93706285Y-78517630D01*
X93713875Y-78491781D01*
X93739934Y-78428871D01*
X93739934Y-78428870D01*
X93743095Y-78421240D01*
X93758500Y-78304225D01*
X93758499Y-77505776D01*
X93757490Y-77498107D01*
X93744173Y-77396947D01*
X93744172Y-77396945D01*
X93743095Y-77388760D01*
X93714310Y-77319267D01*
X93706721Y-77248679D01*
X93714310Y-77222833D01*
X93739923Y-77160998D01*
X93739924Y-77160994D01*
X93743082Y-77153370D01*
X93744159Y-77145190D01*
X93744160Y-77145186D01*
X93757962Y-77040348D01*
X93758500Y-77036262D01*
X93758500Y-76233738D01*
X93747628Y-76151159D01*
X93744160Y-76124814D01*
X93744159Y-76124810D01*
X93743082Y-76116630D01*
X93739924Y-76109006D01*
X93739923Y-76109002D01*
X93714310Y-76047167D01*
X93706721Y-75976578D01*
X93714308Y-75950737D01*
X93743095Y-75881240D01*
X93747360Y-75848841D01*
X93757962Y-75768312D01*
X93757962Y-75768311D01*
X93758500Y-75764225D01*
X93758499Y-74965776D01*
X93743095Y-74848760D01*
X93739936Y-74841134D01*
X93739935Y-74841130D01*
X93713875Y-74778219D01*
X93706285Y-74707630D01*
X93713875Y-74681781D01*
X93723330Y-74658957D01*
X93743095Y-74611240D01*
X93748559Y-74569735D01*
X93777281Y-74504808D01*
X93836546Y-74465716D01*
X93912217Y-74466347D01*
X93917712Y-74468794D01*
X93924168Y-74470166D01*
X93924167Y-74470166D01*
X94098056Y-74507128D01*
X94098061Y-74507128D01*
X94104513Y-74508500D01*
X94295487Y-74508500D01*
X94301939Y-74507128D01*
X94301944Y-74507128D01*
X94388888Y-74488647D01*
X94482288Y-74468794D01*
X94488319Y-74466109D01*
X94650722Y-74393803D01*
X94650724Y-74393802D01*
X94656752Y-74391118D01*
X94743691Y-74327953D01*
X94797838Y-74288613D01*
X94864706Y-74264754D01*
X94881784Y-74264937D01*
G37*
%TD.AperFunction*%
%TA.AperFunction,Conductor*%
G36*
X104943254Y-62178502D02*
G01*
X104989747Y-62232158D01*
X104999851Y-62302432D01*
X104970357Y-62367012D01*
X104926382Y-62399607D01*
X104799278Y-62456197D01*
X104799276Y-62456198D01*
X104793248Y-62458882D01*
X104638747Y-62571134D01*
X104634326Y-62576044D01*
X104634325Y-62576045D01*
X104582176Y-62633963D01*
X104510960Y-62713056D01*
X104467589Y-62788176D01*
X104429719Y-62853770D01*
X104415473Y-62878444D01*
X104356458Y-63060072D01*
X104355768Y-63066633D01*
X104355768Y-63066635D01*
X104340843Y-63208643D01*
X104336496Y-63250000D01*
X104337186Y-63256565D01*
X104355094Y-63426946D01*
X104356458Y-63439928D01*
X104415473Y-63621556D01*
X104418776Y-63627278D01*
X104418777Y-63627279D01*
X104437358Y-63659462D01*
X104510960Y-63786944D01*
X104515378Y-63791851D01*
X104515379Y-63791852D01*
X104559136Y-63840449D01*
X104589854Y-63904456D01*
X104591500Y-63924759D01*
X104591500Y-64175836D01*
X104590422Y-64192283D01*
X104586700Y-64220554D01*
X104587467Y-64227500D01*
X104587321Y-64227500D01*
X104604016Y-64460922D01*
X104604972Y-64465316D01*
X104635125Y-64603926D01*
X104653760Y-64689592D01*
X104655327Y-64693794D01*
X104655329Y-64693800D01*
X104704590Y-64825872D01*
X104735541Y-64908855D01*
X104847694Y-65114248D01*
X104987935Y-65301589D01*
X105153411Y-65467065D01*
X105340752Y-65607306D01*
X105344706Y-65609465D01*
X105521041Y-65705751D01*
X105546145Y-65719459D01*
X105550357Y-65721030D01*
X105761200Y-65799671D01*
X105761206Y-65799673D01*
X105765408Y-65801240D01*
X105769794Y-65802194D01*
X105769797Y-65802195D01*
X105881471Y-65826488D01*
X105994078Y-65850984D01*
X105998564Y-65851305D01*
X105998565Y-65851305D01*
X106126867Y-65860482D01*
X106133667Y-65861154D01*
X106136635Y-65861529D01*
X106144312Y-65863500D01*
X106164564Y-65863500D01*
X106173551Y-65863821D01*
X106180999Y-65864354D01*
X106187952Y-65864851D01*
X106196698Y-65865785D01*
X106213608Y-65868191D01*
X106222066Y-65868279D01*
X106223379Y-65868293D01*
X106227500Y-65868336D01*
X106231590Y-65867841D01*
X106231591Y-65867841D01*
X106239736Y-65866855D01*
X106259919Y-65864413D01*
X106275054Y-65863500D01*
X107125503Y-65863500D01*
X107193624Y-65883502D01*
X107240117Y-65937158D01*
X107250425Y-66005947D01*
X107241500Y-66073738D01*
X107241500Y-66876262D01*
X107242038Y-66880348D01*
X107255840Y-66985186D01*
X107255841Y-66985190D01*
X107256918Y-66993370D01*
X107260076Y-67000994D01*
X107260077Y-67000998D01*
X107285690Y-67062833D01*
X107293279Y-67133422D01*
X107285692Y-67159263D01*
X107256905Y-67228760D01*
X107255827Y-67236947D01*
X107255827Y-67236948D01*
X107246715Y-67306166D01*
X107241500Y-67345775D01*
X107241501Y-68144224D01*
X107242039Y-68148308D01*
X107242039Y-68148314D01*
X107250058Y-68209226D01*
X107256905Y-68261240D01*
X107260064Y-68268866D01*
X107260065Y-68268870D01*
X107286125Y-68331781D01*
X107293715Y-68402370D01*
X107286126Y-68428216D01*
X107256905Y-68498760D01*
X107241500Y-68615775D01*
X107241501Y-69414224D01*
X107242039Y-69418308D01*
X107242039Y-69418314D01*
X107242744Y-69423669D01*
X107256905Y-69531240D01*
X107260065Y-69538868D01*
X107285710Y-69600782D01*
X107293299Y-69671372D01*
X107285710Y-69697218D01*
X107262914Y-69752254D01*
X107256905Y-69766760D01*
X107255827Y-69774948D01*
X107244641Y-69859920D01*
X107241500Y-69883775D01*
X107241501Y-70682224D01*
X107242039Y-70686308D01*
X107242039Y-70686314D01*
X107249953Y-70746433D01*
X107256905Y-70799240D01*
X107286104Y-70869732D01*
X107293694Y-70940319D01*
X107286106Y-70966163D01*
X107256918Y-71036630D01*
X107241500Y-71153738D01*
X107241500Y-71956262D01*
X107242038Y-71960348D01*
X107255840Y-72065186D01*
X107255841Y-72065190D01*
X107256918Y-72073370D01*
X107260076Y-72080994D01*
X107260077Y-72080998D01*
X107285690Y-72142833D01*
X107293279Y-72213422D01*
X107285692Y-72239263D01*
X107256905Y-72308760D01*
X107255827Y-72316947D01*
X107255827Y-72316948D01*
X107244641Y-72401920D01*
X107241500Y-72425775D01*
X107241501Y-73224224D01*
X107242039Y-73228308D01*
X107242039Y-73228314D01*
X107252640Y-73308841D01*
X107256905Y-73341240D01*
X107260064Y-73348866D01*
X107260065Y-73348870D01*
X107286125Y-73411781D01*
X107293715Y-73482370D01*
X107286126Y-73508216D01*
X107256905Y-73578760D01*
X107255827Y-73586948D01*
X107244641Y-73671920D01*
X107241500Y-73695775D01*
X107241501Y-74494224D01*
X107242039Y-74498308D01*
X107242039Y-74498314D01*
X107250693Y-74564054D01*
X107256905Y-74611240D01*
X107260064Y-74618866D01*
X107260065Y-74618870D01*
X107286125Y-74681781D01*
X107293715Y-74752370D01*
X107286126Y-74778216D01*
X107256905Y-74848760D01*
X107255827Y-74856947D01*
X107255827Y-74856948D01*
X107244641Y-74941920D01*
X107241500Y-74965775D01*
X107241501Y-75764224D01*
X107256905Y-75881240D01*
X107285690Y-75950733D01*
X107293279Y-76021321D01*
X107285690Y-76047167D01*
X107260077Y-76109002D01*
X107260076Y-76109006D01*
X107256918Y-76116630D01*
X107255841Y-76124810D01*
X107255840Y-76124814D01*
X107252372Y-76151159D01*
X107241500Y-76233738D01*
X107241500Y-77036262D01*
X107242038Y-77040348D01*
X107255840Y-77145186D01*
X107255841Y-77145190D01*
X107256918Y-77153370D01*
X107260076Y-77160994D01*
X107260077Y-77160998D01*
X107285690Y-77222833D01*
X107293279Y-77293422D01*
X107285692Y-77319263D01*
X107256905Y-77388760D01*
X107255827Y-77396947D01*
X107255827Y-77396948D01*
X107244641Y-77481920D01*
X107241500Y-77505775D01*
X107241501Y-78304224D01*
X107256905Y-78421240D01*
X107260064Y-78428866D01*
X107260065Y-78428870D01*
X107286125Y-78491781D01*
X107293715Y-78562370D01*
X107286126Y-78588216D01*
X107256905Y-78658760D01*
X107255827Y-78666947D01*
X107255827Y-78666948D01*
X107244641Y-78751920D01*
X107241500Y-78775775D01*
X107241501Y-79574224D01*
X107242039Y-79578308D01*
X107242039Y-79578314D01*
X107245432Y-79604086D01*
X107256905Y-79691240D01*
X107260064Y-79698866D01*
X107260065Y-79698870D01*
X107286125Y-79761781D01*
X107293715Y-79832370D01*
X107286126Y-79858216D01*
X107256905Y-79928760D01*
X107255827Y-79936947D01*
X107255827Y-79936948D01*
X107244641Y-80021920D01*
X107241500Y-80045775D01*
X107241501Y-80844224D01*
X107256905Y-80961240D01*
X107285690Y-81030733D01*
X107293279Y-81101321D01*
X107285690Y-81127167D01*
X107260077Y-81189002D01*
X107260076Y-81189006D01*
X107256918Y-81196630D01*
X107255841Y-81204810D01*
X107255840Y-81204814D01*
X107249329Y-81254274D01*
X107241500Y-81313738D01*
X107241500Y-82116262D01*
X107242038Y-82120348D01*
X107255840Y-82225186D01*
X107255841Y-82225190D01*
X107256918Y-82233370D01*
X107260076Y-82240994D01*
X107260077Y-82240998D01*
X107285690Y-82302833D01*
X107293279Y-82373422D01*
X107285692Y-82399263D01*
X107256905Y-82468760D01*
X107241500Y-82585775D01*
X107241501Y-83384224D01*
X107242039Y-83388308D01*
X107242039Y-83388314D01*
X107255415Y-83489920D01*
X107256905Y-83501240D01*
X107260065Y-83508868D01*
X107279911Y-83556782D01*
X107287500Y-83627372D01*
X107279911Y-83653218D01*
X107261983Y-83696501D01*
X107256905Y-83708760D01*
X107255827Y-83716948D01*
X107243738Y-83808779D01*
X107241500Y-83825775D01*
X107241501Y-84624224D01*
X107242039Y-84628308D01*
X107242039Y-84628314D01*
X107245450Y-84654225D01*
X107256905Y-84741240D01*
X107260063Y-84748865D01*
X107260065Y-84748871D01*
X107292337Y-84826781D01*
X107299927Y-84897371D01*
X107292337Y-84923219D01*
X107260066Y-85001127D01*
X107260065Y-85001130D01*
X107256905Y-85008760D01*
X107255828Y-85016944D01*
X107255827Y-85016946D01*
X107242038Y-85121686D01*
X107241500Y-85125775D01*
X107241501Y-85924224D01*
X107242039Y-85928308D01*
X107242039Y-85928314D01*
X107253242Y-86013416D01*
X107256905Y-86041240D01*
X107285690Y-86110733D01*
X107293279Y-86181321D01*
X107285690Y-86207167D01*
X107260077Y-86269002D01*
X107260076Y-86269006D01*
X107256918Y-86276630D01*
X107255841Y-86284810D01*
X107255840Y-86284814D01*
X107251729Y-86316041D01*
X107241500Y-86393738D01*
X107241500Y-87065500D01*
X107221498Y-87133621D01*
X107167842Y-87180114D01*
X107115500Y-87191500D01*
X97584500Y-87191500D01*
X97516379Y-87171498D01*
X97469886Y-87117842D01*
X97458500Y-87065500D01*
X97458500Y-75655773D01*
X97459757Y-75638018D01*
X97462611Y-75617969D01*
X97462611Y-75617965D01*
X97463191Y-75613892D01*
X97463336Y-75600000D01*
X97462616Y-75594046D01*
X97461902Y-75585979D01*
X97454542Y-75454921D01*
X97445947Y-75301873D01*
X97395930Y-75007496D01*
X97313268Y-74720570D01*
X97287747Y-74658957D01*
X97200354Y-74447971D01*
X97200352Y-74447966D01*
X97199000Y-74444703D01*
X97054563Y-74183364D01*
X96881774Y-73939841D01*
X96682805Y-73717195D01*
X96460159Y-73518226D01*
X96446056Y-73508219D01*
X96219511Y-73347477D01*
X96216636Y-73345437D01*
X95955297Y-73201000D01*
X95952034Y-73199648D01*
X95952029Y-73199646D01*
X95682699Y-73088086D01*
X95682698Y-73088086D01*
X95679430Y-73086732D01*
X95392504Y-73004070D01*
X95098127Y-72954053D01*
X94885595Y-72942118D01*
X94885680Y-72940602D01*
X94883188Y-72940912D01*
X94883188Y-72941500D01*
X94880224Y-72941500D01*
X94879698Y-72941346D01*
X94878457Y-72941500D01*
X94875263Y-72941500D01*
X94867395Y-72940506D01*
X94867733Y-72937832D01*
X94812103Y-72921498D01*
X94806163Y-72917436D01*
X94805909Y-72917251D01*
X94707924Y-72846061D01*
X94662094Y-72812763D01*
X94662093Y-72812762D01*
X94656752Y-72808882D01*
X94650724Y-72806198D01*
X94650722Y-72806197D01*
X94488319Y-72733891D01*
X94488318Y-72733891D01*
X94482288Y-72731206D01*
X94388887Y-72711353D01*
X94301944Y-72692872D01*
X94301939Y-72692872D01*
X94295487Y-72691500D01*
X94104513Y-72691500D01*
X94098061Y-72692872D01*
X94098056Y-72692872D01*
X93986738Y-72716534D01*
X93917712Y-72731206D01*
X93917507Y-72730240D01*
X93852473Y-72732101D01*
X93791674Y-72695441D01*
X93760345Y-72631731D01*
X93758499Y-72610239D01*
X93758499Y-72425776D01*
X93743095Y-72308760D01*
X93714310Y-72239267D01*
X93706721Y-72168679D01*
X93714310Y-72142833D01*
X93739923Y-72080998D01*
X93739924Y-72080994D01*
X93743082Y-72073370D01*
X93744159Y-72065190D01*
X93744160Y-72065186D01*
X93757962Y-71960348D01*
X93758500Y-71956262D01*
X93758500Y-71153738D01*
X93749767Y-71087404D01*
X93744160Y-71044814D01*
X93744159Y-71044810D01*
X93743082Y-71036630D01*
X93739924Y-71029006D01*
X93739923Y-71029002D01*
X93714310Y-70967167D01*
X93706721Y-70896578D01*
X93714308Y-70870737D01*
X93743095Y-70801240D01*
X93745877Y-70780106D01*
X93757962Y-70688312D01*
X93757962Y-70688311D01*
X93758500Y-70684225D01*
X93758499Y-69885776D01*
X93755096Y-69859920D01*
X93744173Y-69776947D01*
X93744172Y-69776945D01*
X93743095Y-69768760D01*
X93739936Y-69761134D01*
X93739935Y-69761130D01*
X93713875Y-69698219D01*
X93706285Y-69627630D01*
X93713875Y-69601781D01*
X93739934Y-69538871D01*
X93739935Y-69538868D01*
X93743095Y-69531240D01*
X93758500Y-69414225D01*
X93758499Y-68615776D01*
X93755824Y-68595449D01*
X93744173Y-68506947D01*
X93744172Y-68506945D01*
X93743095Y-68498760D01*
X93739936Y-68491134D01*
X93739935Y-68491130D01*
X93721180Y-68445853D01*
X93713875Y-68428218D01*
X93706285Y-68357630D01*
X93713875Y-68331781D01*
X93739934Y-68268871D01*
X93739934Y-68268870D01*
X93743095Y-68261240D01*
X93751159Y-68199988D01*
X93757962Y-68148312D01*
X93757962Y-68148311D01*
X93758500Y-68144225D01*
X93758499Y-67345776D01*
X93753973Y-67311389D01*
X93744173Y-67236947D01*
X93744172Y-67236945D01*
X93743095Y-67228760D01*
X93714310Y-67159267D01*
X93706721Y-67088679D01*
X93714310Y-67062833D01*
X93739923Y-67000998D01*
X93739924Y-67000994D01*
X93743082Y-66993370D01*
X93744159Y-66985190D01*
X93744160Y-66985186D01*
X93757962Y-66880348D01*
X93758500Y-66876262D01*
X93758500Y-66073738D01*
X93749575Y-66005947D01*
X93760514Y-65935798D01*
X93807642Y-65882699D01*
X93874497Y-65863500D01*
X95341727Y-65863500D01*
X95359479Y-65864757D01*
X95367620Y-65865915D01*
X95379531Y-65867611D01*
X95379535Y-65867611D01*
X95383608Y-65868191D01*
X95388562Y-65868243D01*
X95393367Y-65868293D01*
X95393369Y-65868293D01*
X95397500Y-65868336D01*
X95401564Y-65867844D01*
X95402042Y-65867815D01*
X95404839Y-65867661D01*
X95405350Y-65867615D01*
X95696924Y-65849979D01*
X95696929Y-65849978D01*
X95700721Y-65849749D01*
X95999520Y-65794992D01*
X96289541Y-65704618D01*
X96293011Y-65703056D01*
X96293017Y-65703054D01*
X96563081Y-65581507D01*
X96563086Y-65581504D01*
X96566553Y-65579944D01*
X96569810Y-65577975D01*
X96569814Y-65577973D01*
X96823248Y-65424767D01*
X96823251Y-65424765D01*
X96826518Y-65422790D01*
X97065645Y-65235446D01*
X97280446Y-65020645D01*
X97467790Y-64781518D01*
X97516032Y-64701716D01*
X97622973Y-64524814D01*
X97622975Y-64524810D01*
X97624944Y-64521553D01*
X97641136Y-64485576D01*
X97748054Y-64248017D01*
X97748056Y-64248011D01*
X97749618Y-64244541D01*
X97839992Y-63954520D01*
X97894749Y-63655721D01*
X97895192Y-63648410D01*
X97911246Y-63382990D01*
X97912272Y-63372849D01*
X97912611Y-63370470D01*
X97912611Y-63370464D01*
X97913191Y-63366392D01*
X97913336Y-63352500D01*
X97912690Y-63347166D01*
X97912694Y-63347145D01*
X97912688Y-63347146D01*
X97911916Y-63340762D01*
X97911393Y-63315750D01*
X97919822Y-63208643D01*
X97922423Y-63175595D01*
X97925516Y-63156069D01*
X97927419Y-63148145D01*
X97950451Y-63052212D01*
X97964624Y-62993179D01*
X97970733Y-62974377D01*
X98034843Y-62819599D01*
X98043819Y-62801981D01*
X98131353Y-62659139D01*
X98142975Y-62643143D01*
X98251775Y-62515755D01*
X98265755Y-62501775D01*
X98393143Y-62392975D01*
X98409139Y-62381353D01*
X98551981Y-62293819D01*
X98569599Y-62284843D01*
X98724377Y-62220733D01*
X98743179Y-62214624D01*
X98861602Y-62186192D01*
X98906073Y-62175515D01*
X98925596Y-62172423D01*
X99000745Y-62166508D01*
X99062135Y-62161677D01*
X99085042Y-62162277D01*
X99088020Y-62162308D01*
X99095554Y-62163300D01*
X99132138Y-62159261D01*
X99145965Y-62158500D01*
X104875133Y-62158500D01*
X104943254Y-62178502D01*
G37*
%TD.AperFunction*%
%TA.AperFunction,Conductor*%
G36*
X87053639Y-72145946D02*
G01*
X87155581Y-72206234D01*
X87162404Y-72210269D01*
X87170015Y-72212480D01*
X87170017Y-72212481D01*
X87233922Y-72231047D01*
X87318534Y-72255629D01*
X87324941Y-72256133D01*
X87324945Y-72256134D01*
X87352556Y-72258307D01*
X87352562Y-72258307D01*
X87355011Y-72258500D01*
X87604848Y-72258500D01*
X87854988Y-72258499D01*
X87891466Y-72255629D01*
X88019254Y-72218503D01*
X88054408Y-72213500D01*
X89057485Y-72213500D01*
X89121625Y-72231047D01*
X89160153Y-72253832D01*
X89170403Y-72259894D01*
X89178014Y-72262105D01*
X89178016Y-72262106D01*
X89204999Y-72269945D01*
X89327746Y-72305606D01*
X89334151Y-72306110D01*
X89334156Y-72306111D01*
X89362060Y-72308307D01*
X89362068Y-72308307D01*
X89364516Y-72308500D01*
X89835484Y-72308500D01*
X89837932Y-72308307D01*
X89837940Y-72308307D01*
X89865844Y-72306111D01*
X89865849Y-72306110D01*
X89872254Y-72305606D01*
X89995001Y-72269945D01*
X90021984Y-72262106D01*
X90021986Y-72262105D01*
X90029597Y-72259894D01*
X90039848Y-72253832D01*
X90078375Y-72231047D01*
X90142515Y-72213500D01*
X91125771Y-72213500D01*
X91193892Y-72233502D01*
X91240385Y-72287158D01*
X91250693Y-72355946D01*
X91244641Y-72401920D01*
X91241500Y-72425775D01*
X91241501Y-73224224D01*
X91242039Y-73228308D01*
X91242039Y-73228314D01*
X91252640Y-73308841D01*
X91256905Y-73341240D01*
X91260064Y-73348866D01*
X91260065Y-73348870D01*
X91286125Y-73411781D01*
X91293715Y-73482370D01*
X91286126Y-73508216D01*
X91256905Y-73578760D01*
X91255827Y-73586948D01*
X91244641Y-73671920D01*
X91241500Y-73695775D01*
X91241501Y-74494224D01*
X91250694Y-74564056D01*
X91239754Y-74634203D01*
X91192626Y-74687301D01*
X91125772Y-74706500D01*
X90341176Y-74706500D01*
X90273055Y-74686498D01*
X90226562Y-74632842D01*
X90216458Y-74562568D01*
X90245952Y-74497988D01*
X90289927Y-74465393D01*
X90450722Y-74393803D01*
X90450724Y-74393802D01*
X90456752Y-74391118D01*
X90611253Y-74278866D01*
X90623795Y-74264937D01*
X90734621Y-74141852D01*
X90734622Y-74141851D01*
X90739040Y-74136944D01*
X90797314Y-74036010D01*
X90831223Y-73977279D01*
X90831224Y-73977278D01*
X90834527Y-73971556D01*
X90893542Y-73789928D01*
X90901187Y-73717195D01*
X90912814Y-73606565D01*
X90913504Y-73600000D01*
X90904909Y-73518226D01*
X90894232Y-73416635D01*
X90894232Y-73416633D01*
X90893542Y-73410072D01*
X90834527Y-73228444D01*
X90817901Y-73199646D01*
X90797314Y-73163990D01*
X90739040Y-73063056D01*
X90641427Y-72954645D01*
X90615675Y-72926045D01*
X90615674Y-72926044D01*
X90611253Y-72921134D01*
X90507924Y-72846061D01*
X90462094Y-72812763D01*
X90462093Y-72812762D01*
X90456752Y-72808882D01*
X90450724Y-72806198D01*
X90450722Y-72806197D01*
X90288319Y-72733891D01*
X90288318Y-72733891D01*
X90282288Y-72731206D01*
X90188887Y-72711353D01*
X90101944Y-72692872D01*
X90101939Y-72692872D01*
X90095487Y-72691500D01*
X89904513Y-72691500D01*
X89898061Y-72692872D01*
X89898056Y-72692872D01*
X89811113Y-72711353D01*
X89717712Y-72731206D01*
X89711682Y-72733891D01*
X89711681Y-72733891D01*
X89549278Y-72806197D01*
X89549276Y-72806198D01*
X89543248Y-72808882D01*
X89537907Y-72812762D01*
X89537906Y-72812763D01*
X89492076Y-72846061D01*
X89394092Y-72917251D01*
X89393837Y-72917436D01*
X89326969Y-72941294D01*
X89319776Y-72941500D01*
X86952792Y-72941500D01*
X86884671Y-72921498D01*
X86838178Y-72867842D01*
X86828074Y-72797568D01*
X86831795Y-72780347D01*
X86858768Y-72687508D01*
X86858769Y-72687503D01*
X86860562Y-72681331D01*
X86863500Y-72644002D01*
X86863500Y-72254400D01*
X86883502Y-72186279D01*
X86937158Y-72139786D01*
X87007432Y-72129682D01*
X87053639Y-72145946D01*
G37*
%TD.AperFunction*%
%TA.AperFunction,Conductor*%
G36*
X86072616Y-66510058D02*
G01*
X86093354Y-66512789D01*
X86093358Y-66512789D01*
X86100884Y-66513780D01*
X86121619Y-66511491D01*
X86142511Y-66510928D01*
X86308078Y-66520228D01*
X86362929Y-66523309D01*
X86376969Y-66524891D01*
X86621895Y-66566508D01*
X86635660Y-66569651D01*
X86862412Y-66634980D01*
X86874380Y-66638428D01*
X86887700Y-66643088D01*
X87117247Y-66738172D01*
X87129939Y-66744284D01*
X87311963Y-66844887D01*
X87347388Y-66864466D01*
X87359351Y-66871984D01*
X87561955Y-67015741D01*
X87573002Y-67024551D01*
X87732066Y-67166701D01*
X87748065Y-67183943D01*
X87755222Y-67193270D01*
X87779297Y-67212558D01*
X87783954Y-67216289D01*
X87794268Y-67225528D01*
X88404717Y-67835977D01*
X88438743Y-67898289D01*
X88433678Y-67969104D01*
X88391131Y-68025940D01*
X88324611Y-68050751D01*
X88260952Y-68038594D01*
X88258432Y-68037380D01*
X88255326Y-68035664D01*
X88038291Y-67945767D01*
X87812555Y-67880734D01*
X87580957Y-67841384D01*
X87463656Y-67834797D01*
X87439412Y-67833435D01*
X87435873Y-67833112D01*
X87429595Y-67831500D01*
X87408503Y-67831500D01*
X87401440Y-67831302D01*
X87390985Y-67830715D01*
X87380295Y-67829655D01*
X87360302Y-67826809D01*
X87351071Y-67826713D01*
X87350531Y-67826707D01*
X87346410Y-67826664D01*
X87342322Y-67827159D01*
X87342316Y-67827159D01*
X87313991Y-67830587D01*
X87298854Y-67831500D01*
X83460773Y-67831500D01*
X83443021Y-67830243D01*
X83434880Y-67829085D01*
X83422969Y-67827389D01*
X83422965Y-67827389D01*
X83418892Y-67826809D01*
X83405000Y-67826664D01*
X83397763Y-67827540D01*
X83396258Y-67827722D01*
X83391009Y-67828246D01*
X83273965Y-67837458D01*
X83183981Y-67844540D01*
X83179174Y-67845694D01*
X83179168Y-67845695D01*
X83042674Y-67878464D01*
X82968404Y-67896295D01*
X82963833Y-67898188D01*
X82963831Y-67898189D01*
X82768151Y-67979242D01*
X82768147Y-67979244D01*
X82763577Y-67981137D01*
X82574545Y-68096976D01*
X82405961Y-68240961D01*
X82261976Y-68409545D01*
X82146137Y-68598577D01*
X82144244Y-68603147D01*
X82144242Y-68603151D01*
X82137306Y-68619897D01*
X82061295Y-68803404D01*
X82046721Y-68864111D01*
X82046470Y-68865156D01*
X82013046Y-68924837D01*
X81968512Y-68969371D01*
X81885106Y-69110403D01*
X81839394Y-69267746D01*
X81838890Y-69274151D01*
X81838889Y-69274156D01*
X81836693Y-69302060D01*
X81836500Y-69304516D01*
X81836500Y-69715484D01*
X81839394Y-69752254D01*
X81846568Y-69776947D01*
X81878802Y-69887897D01*
X81885106Y-69909597D01*
X81889141Y-69916420D01*
X81889142Y-69916422D01*
X81894725Y-69925863D01*
X81912183Y-69994680D01*
X81894725Y-70054137D01*
X81889142Y-70063578D01*
X81885106Y-70070403D01*
X81839394Y-70227746D01*
X81836500Y-70264516D01*
X81836500Y-70675484D01*
X81836693Y-70677932D01*
X81836693Y-70677940D01*
X81838622Y-70702444D01*
X81839394Y-70712254D01*
X81848528Y-70743693D01*
X81871523Y-70822842D01*
X81885106Y-70869597D01*
X81889136Y-70876412D01*
X81889151Y-70876446D01*
X81897847Y-70946908D01*
X81881967Y-70990622D01*
X81828766Y-71080581D01*
X81824731Y-71087404D01*
X81779371Y-71243534D01*
X81776500Y-71280011D01*
X81776501Y-71679988D01*
X81779371Y-71716466D01*
X81824731Y-71872596D01*
X81828767Y-71879421D01*
X81828769Y-71879425D01*
X81856231Y-71925861D01*
X81873691Y-71994677D01*
X81856231Y-72054139D01*
X81828769Y-72100575D01*
X81828767Y-72100579D01*
X81824731Y-72107404D01*
X81822520Y-72115015D01*
X81822519Y-72115017D01*
X81806929Y-72168679D01*
X81779371Y-72263534D01*
X81778867Y-72269941D01*
X81778866Y-72269945D01*
X81777443Y-72288028D01*
X81776500Y-72300011D01*
X81776501Y-72699988D01*
X81779371Y-72736466D01*
X81781168Y-72742650D01*
X81817201Y-72866676D01*
X81824731Y-72892596D01*
X81828766Y-72899418D01*
X81828766Y-72899419D01*
X81890307Y-73003479D01*
X81907494Y-73032541D01*
X81920892Y-73045939D01*
X81954918Y-73108251D01*
X81957409Y-73125147D01*
X81958754Y-73142238D01*
X81979417Y-73228314D01*
X81998749Y-73308841D01*
X82007402Y-73344888D01*
X82009294Y-73349455D01*
X82009295Y-73349459D01*
X82079200Y-73518226D01*
X82087155Y-73537432D01*
X82089741Y-73541652D01*
X82089744Y-73541658D01*
X82121473Y-73593435D01*
X82196046Y-73715130D01*
X82199261Y-73718894D01*
X82199263Y-73718897D01*
X82279119Y-73812396D01*
X82331396Y-73873604D01*
X82335152Y-73876812D01*
X82446083Y-73971556D01*
X82489870Y-74008954D01*
X82578719Y-74063399D01*
X82663342Y-74115256D01*
X82663348Y-74115259D01*
X82667568Y-74117845D01*
X82672143Y-74119740D01*
X82672147Y-74119742D01*
X82855541Y-74195705D01*
X82855545Y-74195706D01*
X82860112Y-74197598D01*
X82864918Y-74198752D01*
X82864922Y-74198753D01*
X83057946Y-74245090D01*
X83057948Y-74245090D01*
X83062762Y-74246246D01*
X83147040Y-74252877D01*
X83162670Y-74254107D01*
X83171771Y-74255622D01*
X83171782Y-74255535D01*
X83179647Y-74256529D01*
X83187326Y-74258500D01*
X83213551Y-74258500D01*
X83223444Y-74258889D01*
X83225157Y-74259023D01*
X83226140Y-74259101D01*
X83233992Y-74259969D01*
X83252549Y-74262610D01*
X83252559Y-74262611D01*
X83256636Y-74263191D01*
X83270528Y-74263336D01*
X83274626Y-74262840D01*
X83302941Y-74259413D01*
X83318081Y-74258500D01*
X86011812Y-74258500D01*
X86029755Y-74259784D01*
X86049195Y-74262581D01*
X86049197Y-74262581D01*
X86053283Y-74263169D01*
X86060382Y-74263254D01*
X86063048Y-74263286D01*
X86063053Y-74263286D01*
X86067175Y-74263335D01*
X86071273Y-74262845D01*
X86071280Y-74262845D01*
X86079014Y-74261921D01*
X86111678Y-74262283D01*
X86113501Y-74262542D01*
X86118091Y-74263194D01*
X86124849Y-74263263D01*
X86127858Y-74263294D01*
X86127861Y-74263294D01*
X86131983Y-74263336D01*
X86164310Y-74259416D01*
X86179476Y-74258500D01*
X89319776Y-74258500D01*
X89387897Y-74278502D01*
X89393834Y-74282562D01*
X89543248Y-74391118D01*
X89549276Y-74393802D01*
X89549278Y-74393803D01*
X89710073Y-74465393D01*
X89764169Y-74511373D01*
X89784818Y-74579300D01*
X89765466Y-74647608D01*
X89712255Y-74694610D01*
X89658824Y-74706500D01*
X80876000Y-74706500D01*
X80807879Y-74686498D01*
X80761386Y-74632842D01*
X80750000Y-74580500D01*
X80750000Y-68034500D01*
X80770002Y-67966379D01*
X80823658Y-67919886D01*
X80876000Y-67908500D01*
X81400400Y-67908500D01*
X81403646Y-67908163D01*
X81403650Y-67908163D01*
X81499308Y-67898238D01*
X81499312Y-67898237D01*
X81506166Y-67897526D01*
X81512702Y-67895345D01*
X81512704Y-67895345D01*
X81666998Y-67843868D01*
X81673946Y-67841550D01*
X81824348Y-67748478D01*
X81949305Y-67623303D01*
X81953146Y-67617072D01*
X82038275Y-67478968D01*
X82038276Y-67478966D01*
X82042115Y-67472738D01*
X82097797Y-67304861D01*
X82099806Y-67285259D01*
X82105925Y-67225528D01*
X82108500Y-67200400D01*
X82108500Y-66634980D01*
X82128502Y-66566859D01*
X82182158Y-66520366D01*
X82234500Y-66508980D01*
X86056168Y-66508980D01*
X86072616Y-66510058D01*
G37*
%TD.AperFunction*%
%TA.AperFunction,Conductor*%
G36*
X88536501Y-69934355D02*
G01*
X88568592Y-69949750D01*
X88880371Y-70158065D01*
X89247450Y-70363631D01*
X89249683Y-70364660D01*
X89249694Y-70364666D01*
X89523903Y-70491073D01*
X89577393Y-70537757D01*
X89597152Y-70605948D01*
X89576908Y-70673997D01*
X89523087Y-70720299D01*
X89471153Y-70731500D01*
X89364516Y-70731500D01*
X89362068Y-70731693D01*
X89362060Y-70731693D01*
X89334156Y-70733889D01*
X89334151Y-70733890D01*
X89327746Y-70734394D01*
X89228995Y-70763084D01*
X89178016Y-70777894D01*
X89178014Y-70777895D01*
X89170403Y-70780106D01*
X89163581Y-70784141D01*
X89163580Y-70784141D01*
X89121772Y-70808866D01*
X89029371Y-70863512D01*
X89023766Y-70869117D01*
X89022553Y-70870058D01*
X88956468Y-70896006D01*
X88945325Y-70896500D01*
X88551830Y-70896500D01*
X88483709Y-70876498D01*
X88437216Y-70822842D01*
X88427881Y-70747858D01*
X88428832Y-70742650D01*
X88430629Y-70736466D01*
X88431882Y-70720549D01*
X88433307Y-70702444D01*
X88433307Y-70702438D01*
X88433500Y-70699989D01*
X88433499Y-70300012D01*
X88430629Y-70263534D01*
X88400151Y-70158629D01*
X88387482Y-70115020D01*
X88387481Y-70115018D01*
X88385269Y-70107404D01*
X88382788Y-70103208D01*
X88374258Y-70034095D01*
X88405037Y-69970117D01*
X88465519Y-69932935D01*
X88536501Y-69934355D01*
G37*
%TD.AperFunction*%
%TA.AperFunction,Conductor*%
G36*
X86756602Y-60562073D02*
G01*
X86900545Y-60637008D01*
X86903085Y-60638060D01*
X86903089Y-60638062D01*
X87220870Y-60769697D01*
X87220883Y-60769702D01*
X87223404Y-60770746D01*
X87314913Y-60799600D01*
X87554073Y-60875011D01*
X87554083Y-60875014D01*
X87556691Y-60875836D01*
X87559365Y-60876429D01*
X87559373Y-60876431D01*
X87756113Y-60920049D01*
X87897869Y-60951477D01*
X87900584Y-60951834D01*
X87900587Y-60951835D01*
X88056763Y-60972398D01*
X88244341Y-60997095D01*
X88549696Y-61010429D01*
X88561731Y-61011536D01*
X88572157Y-61013001D01*
X88582164Y-61013141D01*
X88589508Y-61013244D01*
X88589514Y-61013244D01*
X88593470Y-61013299D01*
X88629258Y-61009285D01*
X88643302Y-61008500D01*
X94365500Y-61008500D01*
X94433621Y-61028502D01*
X94480114Y-61082158D01*
X94491500Y-61134500D01*
X94491500Y-62504017D01*
X94490506Y-62519809D01*
X94486775Y-62549343D01*
X94488237Y-62564251D01*
X94488046Y-62590655D01*
X94477632Y-62683079D01*
X94471353Y-62710586D01*
X94435136Y-62814088D01*
X94422894Y-62839509D01*
X94364551Y-62932362D01*
X94346959Y-62954421D01*
X94269421Y-63031959D01*
X94247362Y-63049551D01*
X94154509Y-63107894D01*
X94129088Y-63120136D01*
X94025586Y-63156353D01*
X93998079Y-63162632D01*
X93941526Y-63169004D01*
X93915188Y-63171972D01*
X93899319Y-63172752D01*
X93892653Y-63172659D01*
X93885657Y-63171775D01*
X93846658Y-63175599D01*
X93843598Y-63175899D01*
X93831302Y-63176500D01*
X93665877Y-63176500D01*
X93597756Y-63156498D01*
X93587060Y-63147878D01*
X93586855Y-63148145D01*
X93544242Y-63115447D01*
X93461832Y-63052212D01*
X93454206Y-63049053D01*
X93454204Y-63049052D01*
X93323866Y-62995064D01*
X93323867Y-62995064D01*
X93316240Y-62991905D01*
X93308056Y-62990828D01*
X93308054Y-62990827D01*
X93203312Y-62977038D01*
X93203311Y-62977038D01*
X93199225Y-62976500D01*
X92500085Y-62976500D01*
X91800776Y-62976501D01*
X91796692Y-62977039D01*
X91796686Y-62977039D01*
X91748249Y-62983416D01*
X91683760Y-62991905D01*
X91676138Y-62995062D01*
X91676135Y-62995063D01*
X91545796Y-63049052D01*
X91545794Y-63049053D01*
X91538168Y-63052212D01*
X91413145Y-63148145D01*
X91408122Y-63154691D01*
X91403248Y-63161043D01*
X91317212Y-63273168D01*
X91314053Y-63280794D01*
X91314052Y-63280796D01*
X91286559Y-63347169D01*
X91256905Y-63418760D01*
X91255828Y-63426944D01*
X91255827Y-63426946D01*
X91244351Y-63514121D01*
X91241500Y-63535775D01*
X91241501Y-64334224D01*
X91242039Y-64338308D01*
X91242039Y-64338314D01*
X91255827Y-64443053D01*
X91256905Y-64451240D01*
X91260064Y-64458866D01*
X91260065Y-64458870D01*
X91271128Y-64485576D01*
X91286031Y-64521553D01*
X91286125Y-64521781D01*
X91293715Y-64592370D01*
X91286126Y-64618216D01*
X91256905Y-64688760D01*
X91241500Y-64805775D01*
X91241500Y-65006050D01*
X91221498Y-65074171D01*
X91167842Y-65120664D01*
X91097568Y-65130768D01*
X91032988Y-65101274D01*
X91026405Y-65095145D01*
X90309567Y-64378307D01*
X90298699Y-64365916D01*
X90292191Y-64357435D01*
X90281336Y-64343288D01*
X90275412Y-64338542D01*
X90275407Y-64338537D01*
X90268434Y-64332951D01*
X90251402Y-64316446D01*
X90159594Y-64208952D01*
X90147973Y-64192958D01*
X90061888Y-64052482D01*
X90052915Y-64034871D01*
X90045164Y-64016159D01*
X89989865Y-63882655D01*
X89983757Y-63863856D01*
X89983211Y-63861579D01*
X89945297Y-63703656D01*
X89942204Y-63684129D01*
X89931966Y-63554039D01*
X89932653Y-63532124D01*
X89932297Y-63532097D01*
X89932611Y-63527966D01*
X89933191Y-63523892D01*
X89933336Y-63510000D01*
X89929413Y-63477581D01*
X89928500Y-63462446D01*
X89928500Y-63351697D01*
X89946047Y-63287558D01*
X90005856Y-63186426D01*
X90005858Y-63186422D01*
X90009894Y-63179597D01*
X90012167Y-63171775D01*
X90046902Y-63052212D01*
X90055606Y-63022254D01*
X90057895Y-62993179D01*
X90058307Y-62987940D01*
X90058307Y-62987932D01*
X90058500Y-62985484D01*
X90058500Y-62514516D01*
X90058307Y-62512060D01*
X90056111Y-62484156D01*
X90056110Y-62484151D01*
X90055606Y-62477746D01*
X90020561Y-62357118D01*
X90012106Y-62328016D01*
X90012105Y-62328014D01*
X90009894Y-62320403D01*
X89990107Y-62286944D01*
X89930522Y-62186192D01*
X89926488Y-62179371D01*
X89810629Y-62063512D01*
X89763919Y-62035888D01*
X89676420Y-61984141D01*
X89676419Y-61984141D01*
X89669597Y-61980106D01*
X89661986Y-61977895D01*
X89661984Y-61977894D01*
X89592650Y-61957751D01*
X89512254Y-61934394D01*
X89505849Y-61933890D01*
X89505844Y-61933889D01*
X89477940Y-61931693D01*
X89477932Y-61931693D01*
X89475484Y-61931500D01*
X89064516Y-61931500D01*
X89062068Y-61931693D01*
X89062060Y-61931693D01*
X89034156Y-61933889D01*
X89034151Y-61933890D01*
X89027746Y-61934394D01*
X88947350Y-61957751D01*
X88878016Y-61977894D01*
X88878014Y-61977895D01*
X88870403Y-61980106D01*
X88863581Y-61984141D01*
X88863580Y-61984141D01*
X88776081Y-62035888D01*
X88729371Y-62063512D01*
X88727067Y-62065816D01*
X88662915Y-62091006D01*
X88651771Y-62091500D01*
X88061664Y-62091500D01*
X88045217Y-62090422D01*
X88024477Y-62087691D01*
X88024473Y-62087691D01*
X88016946Y-62086700D01*
X88003326Y-62088204D01*
X87996209Y-62088989D01*
X87975320Y-62089552D01*
X87846318Y-62082308D01*
X87750206Y-62076911D01*
X87736172Y-62075330D01*
X87611392Y-62054128D01*
X87486618Y-62032928D01*
X87472843Y-62029784D01*
X87397460Y-62008067D01*
X87229601Y-61959707D01*
X87216281Y-61955046D01*
X86982412Y-61858174D01*
X86969689Y-61852047D01*
X86761121Y-61736775D01*
X86748141Y-61729601D01*
X86736188Y-61722091D01*
X86529730Y-61575600D01*
X86518699Y-61566803D01*
X86356198Y-61421582D01*
X86340196Y-61404336D01*
X86337605Y-61400959D01*
X86332982Y-61394934D01*
X86327058Y-61390188D01*
X86327055Y-61390185D01*
X86304253Y-61371918D01*
X86293938Y-61362678D01*
X86173771Y-61242511D01*
X86139745Y-61180199D01*
X86144810Y-61109384D01*
X86187357Y-61052548D01*
X86199865Y-61044298D01*
X86200726Y-61043801D01*
X86206752Y-61041118D01*
X86224117Y-61028502D01*
X86274992Y-60991539D01*
X86361253Y-60928866D01*
X86408466Y-60876431D01*
X86484621Y-60791852D01*
X86484622Y-60791851D01*
X86489040Y-60786944D01*
X86584527Y-60621556D01*
X86584738Y-60620908D01*
X86629299Y-60568487D01*
X86697227Y-60547841D01*
X86756602Y-60562073D01*
G37*
%TD.AperFunction*%
%TA.AperFunction,Conductor*%
G36*
X97742392Y-61028502D02*
G01*
X97788885Y-61082158D01*
X97798989Y-61152432D01*
X97769495Y-61217012D01*
X97739455Y-61242328D01*
X97673482Y-61282210D01*
X97434355Y-61469554D01*
X97219554Y-61684355D01*
X97032210Y-61923482D01*
X97030235Y-61926749D01*
X97030233Y-61926752D01*
X96880161Y-62175003D01*
X96875056Y-62183447D01*
X96873496Y-62186914D01*
X96873493Y-62186919D01*
X96777087Y-62401124D01*
X96750382Y-62460459D01*
X96749249Y-62464095D01*
X96693427Y-62643236D01*
X96660008Y-62750480D01*
X96605251Y-63049279D01*
X96605022Y-63053071D01*
X96605021Y-63053076D01*
X96588134Y-63332267D01*
X96587936Y-63334329D01*
X96588000Y-63334488D01*
X96587866Y-63336700D01*
X96586700Y-63345554D01*
X96587107Y-63349241D01*
X96586910Y-63352500D01*
X96587467Y-63352500D01*
X96588515Y-63361996D01*
X96588700Y-63373765D01*
X96589819Y-63373853D01*
X96589647Y-63376033D01*
X96588771Y-63378329D01*
X96588887Y-63385695D01*
X96577733Y-63527435D01*
X96577578Y-63529401D01*
X96574485Y-63548927D01*
X96566272Y-63583135D01*
X96535376Y-63711821D01*
X96529267Y-63730623D01*
X96465157Y-63885401D01*
X96456181Y-63903019D01*
X96368647Y-64045861D01*
X96357025Y-64061857D01*
X96344160Y-64076920D01*
X96252624Y-64184095D01*
X96248225Y-64189245D01*
X96234246Y-64203224D01*
X96222773Y-64213023D01*
X96106857Y-64312025D01*
X96090861Y-64323647D01*
X95948019Y-64411181D01*
X95930401Y-64420157D01*
X95775623Y-64484267D01*
X95756821Y-64490376D01*
X95650528Y-64515896D01*
X95593927Y-64529485D01*
X95574404Y-64532577D01*
X95512035Y-64537486D01*
X95437865Y-64543323D01*
X95414958Y-64542723D01*
X95411980Y-64542692D01*
X95404446Y-64541700D01*
X95367862Y-64545739D01*
X95354035Y-64546500D01*
X95157557Y-64546500D01*
X95089436Y-64526498D01*
X95042943Y-64472842D01*
X95032839Y-64402568D01*
X95062333Y-64337988D01*
X95087555Y-64315735D01*
X95093108Y-64312025D01*
X95118744Y-64294895D01*
X95173148Y-64258544D01*
X95173153Y-64258540D01*
X95176579Y-64256251D01*
X95179673Y-64253537D01*
X95179679Y-64253533D01*
X95383760Y-64074558D01*
X95386849Y-64071849D01*
X95476245Y-63969913D01*
X95568533Y-63864679D01*
X95568537Y-63864673D01*
X95571251Y-63861579D01*
X95574553Y-63856638D01*
X95724335Y-63632474D01*
X95724336Y-63632472D01*
X95726630Y-63629039D01*
X95780515Y-63519772D01*
X95848501Y-63381911D01*
X95848504Y-63381903D01*
X95850327Y-63378207D01*
X95851805Y-63373853D01*
X95938899Y-63117282D01*
X95938900Y-63117279D01*
X95940225Y-63113375D01*
X95986955Y-62878444D01*
X95993982Y-62843118D01*
X95993982Y-62843115D01*
X95994786Y-62839075D01*
X95995079Y-62834608D01*
X96006226Y-62664535D01*
X96006945Y-62657916D01*
X96007808Y-62654390D01*
X96008500Y-62643236D01*
X96008500Y-62633963D01*
X96008770Y-62625720D01*
X96010221Y-62603587D01*
X96011177Y-62594296D01*
X96012449Y-62585243D01*
X96012449Y-62585237D01*
X96013001Y-62581313D01*
X96013299Y-62560000D01*
X96009285Y-62524213D01*
X96008500Y-62510169D01*
X96008500Y-61134500D01*
X96028502Y-61066379D01*
X96082158Y-61019886D01*
X96134500Y-61008500D01*
X97674271Y-61008500D01*
X97742392Y-61028502D01*
G37*
%TD.AperFunction*%
%TA.AperFunction,Conductor*%
G36*
X111550571Y-62159578D02*
G01*
X111571312Y-62162309D01*
X111571316Y-62162309D01*
X111578843Y-62163300D01*
X111590694Y-62161991D01*
X111601055Y-62160848D01*
X111621063Y-62160239D01*
X111731426Y-62165660D01*
X111849718Y-62171471D01*
X111862013Y-62172682D01*
X111953095Y-62186192D01*
X112117277Y-62210546D01*
X112129404Y-62212958D01*
X112379720Y-62275658D01*
X112391553Y-62279247D01*
X112634525Y-62366184D01*
X112645948Y-62370916D01*
X112879226Y-62481247D01*
X112890128Y-62487074D01*
X112952093Y-62524214D01*
X113111473Y-62619743D01*
X113121754Y-62626613D01*
X113329021Y-62780332D01*
X113338579Y-62788176D01*
X113499614Y-62934129D01*
X113515758Y-62951835D01*
X113521230Y-62959124D01*
X113525882Y-62963874D01*
X113526065Y-62964112D01*
X113526299Y-62964300D01*
X113530951Y-62969049D01*
X113534196Y-62971593D01*
X113536881Y-62973699D01*
X113544257Y-62979954D01*
X113685446Y-63109330D01*
X113793826Y-63208643D01*
X113795998Y-63210309D01*
X113796002Y-63210313D01*
X113999409Y-63366392D01*
X114075973Y-63425141D01*
X114078290Y-63426617D01*
X114358989Y-63605442D01*
X114405694Y-63658912D01*
X114416077Y-63729146D01*
X114386840Y-63793843D01*
X114327267Y-63832463D01*
X114289969Y-63837702D01*
X114288985Y-63837692D01*
X114281451Y-63836700D01*
X114273461Y-63837582D01*
X114273025Y-63837630D01*
X114242755Y-63837313D01*
X114211754Y-63833232D01*
X114179982Y-63824719D01*
X114136829Y-63806845D01*
X114108342Y-63790398D01*
X114089603Y-63776019D01*
X114072031Y-63759390D01*
X114071270Y-63758376D01*
X114066618Y-63753626D01*
X114066435Y-63753388D01*
X114066201Y-63753200D01*
X114061549Y-63748451D01*
X114045010Y-63735483D01*
X114039695Y-63731074D01*
X113903733Y-63611838D01*
X113900636Y-63609122D01*
X113895129Y-63605442D01*
X113810552Y-63548931D01*
X113723733Y-63490921D01*
X113665991Y-63462446D01*
X113536615Y-63398645D01*
X113536607Y-63398642D01*
X113532915Y-63396821D01*
X113331447Y-63328434D01*
X113327405Y-63327630D01*
X113327401Y-63327629D01*
X113126820Y-63287734D01*
X113126815Y-63287733D01*
X113122776Y-63286930D01*
X113118664Y-63286661D01*
X113118660Y-63286660D01*
X113013392Y-63279762D01*
X113005839Y-63279038D01*
X113001346Y-63278470D01*
X112993672Y-63276500D01*
X112967731Y-63276500D01*
X112959516Y-63276232D01*
X112956730Y-63276049D01*
X112947236Y-63275064D01*
X112924365Y-63271809D01*
X112910473Y-63271664D01*
X112906383Y-63272159D01*
X112878060Y-63275587D01*
X112862920Y-63276500D01*
X109747482Y-63276500D01*
X109679361Y-63256498D01*
X109647519Y-63227204D01*
X109591878Y-63154691D01*
X109586855Y-63148145D01*
X109461832Y-63052212D01*
X109454206Y-63049053D01*
X109454204Y-63049052D01*
X109323866Y-62995064D01*
X109323867Y-62995064D01*
X109316240Y-62991905D01*
X109308056Y-62990828D01*
X109308054Y-62990827D01*
X109203312Y-62977038D01*
X109203311Y-62977038D01*
X109199225Y-62976500D01*
X108500085Y-62976500D01*
X107800776Y-62976501D01*
X107796692Y-62977039D01*
X107796686Y-62977039D01*
X107748249Y-62983416D01*
X107683760Y-62991905D01*
X107676138Y-62995062D01*
X107676135Y-62995063D01*
X107545796Y-63049052D01*
X107545794Y-63049053D01*
X107538168Y-63052212D01*
X107413145Y-63148145D01*
X107408122Y-63154691D01*
X107403248Y-63161043D01*
X107317212Y-63273168D01*
X107314053Y-63280794D01*
X107314052Y-63280796D01*
X107286559Y-63347169D01*
X107256905Y-63418760D01*
X107255828Y-63426944D01*
X107255827Y-63426946D01*
X107244351Y-63514121D01*
X107241500Y-63535775D01*
X107241501Y-64334224D01*
X107250694Y-64404056D01*
X107239754Y-64474203D01*
X107192626Y-64527301D01*
X107125772Y-64546500D01*
X106279164Y-64546500D01*
X106262717Y-64545422D01*
X106241977Y-64542691D01*
X106241973Y-64542691D01*
X106234446Y-64541700D01*
X106226896Y-64542533D01*
X106219303Y-64542454D01*
X106219307Y-64542031D01*
X106195783Y-64541476D01*
X106148636Y-64534009D01*
X106111143Y-64521827D01*
X106089401Y-64510749D01*
X106057776Y-64494635D01*
X106025884Y-64471463D01*
X105983537Y-64429116D01*
X105960365Y-64397224D01*
X105933173Y-64343857D01*
X105920992Y-64306366D01*
X105914507Y-64265425D01*
X105913532Y-64241396D01*
X105913191Y-64241392D01*
X105913293Y-64231621D01*
X105913336Y-64227500D01*
X105909413Y-64195081D01*
X105908500Y-64179946D01*
X105908500Y-63924759D01*
X105928502Y-63856638D01*
X105940864Y-63840449D01*
X105984621Y-63791852D01*
X105984622Y-63791851D01*
X105989040Y-63786944D01*
X106062642Y-63659462D01*
X106081223Y-63627279D01*
X106081224Y-63627278D01*
X106084527Y-63621556D01*
X106143542Y-63439928D01*
X106144907Y-63426946D01*
X106162814Y-63256565D01*
X106163504Y-63250000D01*
X106159157Y-63208643D01*
X106144232Y-63066635D01*
X106144232Y-63066633D01*
X106143542Y-63060072D01*
X106084527Y-62878444D01*
X106070282Y-62853770D01*
X106032411Y-62788176D01*
X105989040Y-62713056D01*
X105917825Y-62633963D01*
X105865675Y-62576045D01*
X105865674Y-62576044D01*
X105861253Y-62571134D01*
X105706752Y-62458882D01*
X105700724Y-62456198D01*
X105700722Y-62456197D01*
X105573618Y-62399607D01*
X105519522Y-62353627D01*
X105498873Y-62285700D01*
X105518225Y-62217391D01*
X105571436Y-62170390D01*
X105624867Y-62158500D01*
X111534125Y-62158500D01*
X111550571Y-62159578D01*
G37*
%TD.AperFunction*%
%TD*%
M02*
