%TF.GenerationSoftware,KiCad,Pcbnew,(6.0.7)*%
%TF.CreationDate,2022-10-18T10:08:22+03:00*%
%TF.ProjectId,TL-Node Rev.0,544c2d4e-6f64-4652-9052-65762e302e6b,rev?*%
%TF.SameCoordinates,Original*%
%TF.FileFunction,Drillmap*%
%TF.FilePolarity,Positive*%
%FSLAX45Y45*%
G04 Gerber Fmt 4.5, Leading zero omitted, Abs format (unit mm)*
G04 Created by KiCad (PCBNEW (6.0.7)) date 2022-10-18 10:08:22*
%MOMM*%
%LPD*%
G01*
G04 APERTURE LIST*
%ADD10C,0.100000*%
%ADD11C,0.200000*%
%ADD12C,0.040000*%
%ADD13C,0.050000*%
%ADD14C,0.080000*%
%ADD15C,0.300000*%
G04 APERTURE END LIST*
D10*
X5600000Y-12950000D02*
G75*
G03*
X5850000Y-13200000I250000J0D01*
G01*
X14150000Y-6400000D02*
G75*
G03*
X14400000Y-6150000I0J250000D01*
G01*
X14400000Y-5250000D02*
G75*
G03*
X14150000Y-5000000I-250000J0D01*
G01*
X6450000Y-6650000D02*
X6450000Y-11550000D01*
X14150000Y-13200000D02*
X11550000Y-13200000D01*
X9250000Y-5468934D02*
X9250000Y-5000000D01*
X13550000Y-11550000D02*
X13550000Y-6650000D01*
X5850000Y-11800000D02*
G75*
G03*
X5600000Y-12050000I0J-250000D01*
G01*
X6200000Y-11800000D02*
G75*
G03*
X6450000Y-11550000I0J250000D01*
G01*
X14150000Y-5000000D02*
X10850000Y-5000000D01*
X5850000Y-6400000D02*
X6200000Y-6400000D01*
X8450000Y-9500000D02*
X8450000Y-13200000D01*
X5600000Y-6150000D02*
G75*
G03*
X5850000Y-6400000I250000J0D01*
G01*
X8700000Y-9250000D02*
G75*
G03*
X8450000Y-9500000I0J-250000D01*
G01*
X11550000Y-9500000D02*
G75*
G03*
X11300000Y-9250000I-250000J0D01*
G01*
X14400000Y-12950000D02*
X14400000Y-12050000D01*
X14400000Y-12050000D02*
G75*
G03*
X14150000Y-11800000I-250000J0D01*
G01*
X14400000Y-5250000D02*
X14400000Y-6150000D01*
X5600000Y-12050000D02*
X5600000Y-12950000D01*
X5850000Y-13200000D02*
X8450000Y-13200000D01*
X6450000Y-6650000D02*
G75*
G03*
X6200000Y-6400000I-250000J0D01*
G01*
X9249996Y-5468934D02*
G75*
G03*
X9400000Y-5618934I150004J4D01*
G01*
X11550000Y-9500000D02*
X11550000Y-13200000D01*
X14150000Y-11800000D02*
X13800000Y-11800000D01*
X13800000Y-6400000D02*
G75*
G03*
X13550000Y-6650000I0J-250000D01*
G01*
X13550000Y-11550000D02*
G75*
G03*
X13800000Y-11800000I250000J0D01*
G01*
X5850000Y-5000000D02*
G75*
G03*
X5600000Y-5250000I0J-250000D01*
G01*
X11300000Y-9250000D02*
X8700000Y-9250000D01*
X13800000Y-6400000D02*
X14150000Y-6400000D01*
X5600000Y-5250000D02*
X5600000Y-6150000D01*
X10850000Y-5468934D02*
X10850000Y-5000000D01*
X6200000Y-11800000D02*
X5850000Y-11800000D01*
X5850000Y-5000000D02*
X9250000Y-5000000D01*
X14150000Y-13200000D02*
G75*
G03*
X14400000Y-12950000I0J250000D01*
G01*
X10700000Y-5618930D02*
G75*
G03*
X10850000Y-5468934I0J150000D01*
G01*
X10700000Y-5618934D02*
X9400000Y-5618934D01*
D11*
D12*
X6605000Y-5705000D02*
X6645000Y-5745000D01*
X6645000Y-5705000D02*
X6605000Y-5745000D01*
X6605000Y-5905000D02*
X6645000Y-5945000D01*
X6645000Y-5905000D02*
X6605000Y-5945000D01*
X6610000Y-6470000D02*
X6650000Y-6510000D01*
X6650000Y-6470000D02*
X6610000Y-6510000D01*
X6610000Y-6655000D02*
X6650000Y-6695000D01*
X6650000Y-6655000D02*
X6610000Y-6695000D01*
X6700000Y-6610000D02*
X6740000Y-6650000D01*
X6740000Y-6610000D02*
X6700000Y-6650000D01*
X6705000Y-5980000D02*
X6745000Y-6020000D01*
X6745000Y-5980000D02*
X6705000Y-6020000D01*
X6705000Y-6080000D02*
X6745000Y-6120000D01*
X6745000Y-6080000D02*
X6705000Y-6120000D01*
X6880000Y-6355000D02*
X6920000Y-6395000D01*
X6920000Y-6355000D02*
X6880000Y-6395000D01*
X6884000Y-6838050D02*
X6924000Y-6878050D01*
X6924000Y-6838050D02*
X6884000Y-6878050D01*
X6900000Y-12020000D02*
X6940000Y-12060000D01*
X6940000Y-12020000D02*
X6900000Y-12060000D01*
X7080000Y-12020000D02*
X7120000Y-12060000D01*
X7120000Y-12020000D02*
X7080000Y-12060000D01*
X7112500Y-7240000D02*
X7152500Y-7280000D01*
X7152500Y-7240000D02*
X7112500Y-7280000D01*
X7112500Y-8640000D02*
X7152500Y-8680000D01*
X7152500Y-8640000D02*
X7112500Y-8680000D01*
X7120000Y-10040000D02*
X7160000Y-10080000D01*
X7160000Y-10040000D02*
X7120000Y-10080000D01*
X7215000Y-6080000D02*
X7255000Y-6120000D01*
X7255000Y-6080000D02*
X7215000Y-6120000D01*
X7245000Y-6535000D02*
X7285000Y-6575000D01*
X7285000Y-6535000D02*
X7245000Y-6575000D01*
X7280000Y-6755000D02*
X7320000Y-6795000D01*
X7320000Y-6755000D02*
X7280000Y-6795000D01*
X7312500Y-7240000D02*
X7352500Y-7280000D01*
X7352500Y-7240000D02*
X7312500Y-7280000D01*
X7312500Y-8640000D02*
X7352500Y-8680000D01*
X7352500Y-8640000D02*
X7312500Y-8680000D01*
X7320000Y-10040000D02*
X7360000Y-10080000D01*
X7360000Y-10040000D02*
X7320000Y-10080000D01*
X7490000Y-10190000D02*
X7530000Y-10230000D01*
X7530000Y-10190000D02*
X7490000Y-10230000D01*
X7805000Y-6130000D02*
X7845000Y-6170000D01*
X7845000Y-6130000D02*
X7805000Y-6170000D01*
X7880000Y-6883909D02*
X7920000Y-6923909D01*
X7920000Y-6883909D02*
X7880000Y-6923909D01*
X8100000Y-6910000D02*
X8140000Y-6950000D01*
X8140000Y-6910000D02*
X8100000Y-6950000D01*
X8100000Y-7130000D02*
X8140000Y-7170000D01*
X8140000Y-7130000D02*
X8100000Y-7170000D01*
X8150000Y-7390000D02*
X8190000Y-7430000D01*
X8190000Y-7390000D02*
X8150000Y-7430000D01*
X8290000Y-6710000D02*
X8330000Y-6750000D01*
X8330000Y-6710000D02*
X8290000Y-6750000D01*
X8380000Y-8940000D02*
X8420000Y-8980000D01*
X8420000Y-8940000D02*
X8380000Y-8980000D01*
X8405000Y-6155000D02*
X8445000Y-6195000D01*
X8445000Y-6155000D02*
X8405000Y-6195000D01*
X8405000Y-8507500D02*
X8445000Y-8547500D01*
X8445000Y-8507500D02*
X8405000Y-8547500D01*
X8505000Y-6280000D02*
X8545000Y-6320000D01*
X8545000Y-6280000D02*
X8505000Y-6320000D01*
X8505000Y-8432500D02*
X8545000Y-8472500D01*
X8545000Y-8432500D02*
X8505000Y-8472500D01*
X8555000Y-6005000D02*
X8595000Y-6045000D01*
X8595000Y-6005000D02*
X8555000Y-6045000D01*
X8580000Y-7430000D02*
X8620000Y-7470000D01*
X8620000Y-7430000D02*
X8580000Y-7470000D01*
X8585000Y-8955000D02*
X8625000Y-8995000D01*
X8625000Y-8955000D02*
X8585000Y-8995000D01*
X8650000Y-6710000D02*
X8690000Y-6750000D01*
X8690000Y-6710000D02*
X8650000Y-6750000D01*
X8680000Y-6105000D02*
X8720000Y-6145000D01*
X8720000Y-6105000D02*
X8680000Y-6145000D01*
X8705000Y-8682500D02*
X8745000Y-8722500D01*
X8745000Y-8682500D02*
X8705000Y-8722500D01*
X8840000Y-7230000D02*
X8880000Y-7270000D01*
X8880000Y-7230000D02*
X8840000Y-7270000D01*
X8855000Y-7030000D02*
X8895000Y-7070000D01*
X8895000Y-7030000D02*
X8855000Y-7070000D01*
X8980000Y-7340000D02*
X9020000Y-7380000D01*
X9020000Y-7340000D02*
X8980000Y-7380000D01*
X9005000Y-6355000D02*
X9045000Y-6395000D01*
X9045000Y-6355000D02*
X9005000Y-6395000D01*
X9010000Y-6140000D02*
X9050000Y-6180000D01*
X9050000Y-6140000D02*
X9010000Y-6180000D01*
X9030000Y-8630000D02*
X9070000Y-8670000D01*
X9070000Y-8630000D02*
X9030000Y-8670000D01*
X9040000Y-8780000D02*
X9080000Y-8820000D01*
X9080000Y-8780000D02*
X9040000Y-8820000D01*
X9070000Y-7240000D02*
X9110000Y-7280000D01*
X9110000Y-7240000D02*
X9070000Y-7280000D01*
X9080000Y-8920000D02*
X9120000Y-8960000D01*
X9120000Y-8920000D02*
X9080000Y-8960000D01*
X9230000Y-6140000D02*
X9270000Y-6180000D01*
X9270000Y-6140000D02*
X9230000Y-6180000D01*
X9380000Y-6247000D02*
X9420000Y-6287000D01*
X9420000Y-6247000D02*
X9380000Y-6287000D01*
X9380000Y-8920000D02*
X9420000Y-8960000D01*
X9420000Y-8920000D02*
X9380000Y-8960000D01*
X9400000Y-7340000D02*
X9440000Y-7380000D01*
X9440000Y-7340000D02*
X9400000Y-7380000D01*
X9410000Y-7200000D02*
X9450000Y-7240000D01*
X9450000Y-7200000D02*
X9410000Y-7240000D01*
X9420000Y-6640000D02*
X9460000Y-6680000D01*
X9460000Y-6640000D02*
X9420000Y-6680000D01*
X9420000Y-7480000D02*
X9460000Y-7520000D01*
X9460000Y-7480000D02*
X9420000Y-7520000D01*
X9430000Y-8620000D02*
X9470000Y-8660000D01*
X9470000Y-8620000D02*
X9430000Y-8660000D01*
X9430000Y-8780000D02*
X9470000Y-8820000D01*
X9470000Y-8780000D02*
X9430000Y-8820000D01*
X9630000Y-6130000D02*
X9670000Y-6170000D01*
X9670000Y-6130000D02*
X9630000Y-6170000D01*
X9750000Y-6640000D02*
X9790000Y-6680000D01*
X9790000Y-6640000D02*
X9750000Y-6680000D01*
X9805000Y-8630000D02*
X9845000Y-8670000D01*
X9845000Y-8630000D02*
X9805000Y-8670000D01*
X9855000Y-6280000D02*
X9895000Y-6320000D01*
X9895000Y-6280000D02*
X9855000Y-6320000D01*
X10030000Y-6370000D02*
X10070000Y-6410000D01*
X10070000Y-6370000D02*
X10030000Y-6410000D01*
X10030000Y-6910000D02*
X10070000Y-6950000D01*
X10070000Y-6910000D02*
X10030000Y-6950000D01*
X10300000Y-6640000D02*
X10340000Y-6680000D01*
X10340000Y-6640000D02*
X10300000Y-6680000D01*
X10330000Y-6270000D02*
X10370000Y-6310000D01*
X10370000Y-6270000D02*
X10330000Y-6310000D01*
X10505000Y-5855000D02*
X10545000Y-5895000D01*
X10545000Y-5855000D02*
X10505000Y-5895000D01*
X10505000Y-6305000D02*
X10545000Y-6345000D01*
X10545000Y-6305000D02*
X10505000Y-6345000D01*
X10630000Y-6640000D02*
X10670000Y-6680000D01*
X10670000Y-6640000D02*
X10630000Y-6680000D01*
X10630000Y-8630000D02*
X10670000Y-8670000D01*
X10670000Y-8630000D02*
X10630000Y-8670000D01*
X10655000Y-7605000D02*
X10695000Y-7645000D01*
X10695000Y-7605000D02*
X10655000Y-7645000D01*
X10680000Y-6250000D02*
X10720000Y-6290000D01*
X10720000Y-6250000D02*
X10680000Y-6290000D01*
X10680000Y-8920000D02*
X10720000Y-8960000D01*
X10720000Y-8920000D02*
X10680000Y-8960000D01*
X10980000Y-6250000D02*
X11020000Y-6290000D01*
X11020000Y-6250000D02*
X10980000Y-6290000D01*
X10980000Y-8920000D02*
X11020000Y-8960000D01*
X11020000Y-8920000D02*
X10980000Y-8960000D01*
X11000000Y-8655000D02*
X11040000Y-8695000D01*
X11040000Y-8655000D02*
X11000000Y-8695000D01*
X11010000Y-8310000D02*
X11050000Y-8350000D01*
X11050000Y-8310000D02*
X11010000Y-8350000D01*
X11150000Y-6250000D02*
X11190000Y-6290000D01*
X11190000Y-6250000D02*
X11150000Y-6290000D01*
X11150000Y-6595000D02*
X11190000Y-6635000D01*
X11190000Y-6595000D02*
X11150000Y-6635000D01*
X11240000Y-8740000D02*
X11280000Y-8780000D01*
X11280000Y-8740000D02*
X11240000Y-8780000D01*
X11260000Y-8320000D02*
X11300000Y-8360000D01*
X11300000Y-8320000D02*
X11260000Y-8360000D01*
X11480000Y-8560000D02*
X11520000Y-8600000D01*
X11520000Y-8560000D02*
X11480000Y-8600000D01*
X11595000Y-5730000D02*
X11635000Y-5770000D01*
X11635000Y-5730000D02*
X11595000Y-5770000D01*
X11705000Y-8805000D02*
X11745000Y-8845000D01*
X11745000Y-8805000D02*
X11705000Y-8845000D01*
X11780000Y-6020000D02*
X11820000Y-6060000D01*
X11820000Y-6020000D02*
X11780000Y-6060000D01*
X11805000Y-8730000D02*
X11845000Y-8770000D01*
X11845000Y-8730000D02*
X11805000Y-8770000D01*
X11920000Y-6120000D02*
X11960000Y-6160000D01*
X11960000Y-6120000D02*
X11920000Y-6160000D01*
X12640000Y-8100000D02*
X12680000Y-8140000D01*
X12680000Y-8100000D02*
X12640000Y-8140000D01*
X12640000Y-9500000D02*
X12680000Y-9540000D01*
X12680000Y-9500000D02*
X12640000Y-9540000D01*
X12660000Y-10900000D02*
X12700000Y-10940000D01*
X12700000Y-10900000D02*
X12660000Y-10940000D01*
X12840000Y-8100000D02*
X12880000Y-8140000D01*
X12880000Y-8100000D02*
X12840000Y-8140000D01*
X12840000Y-9500000D02*
X12880000Y-9540000D01*
X12880000Y-9500000D02*
X12840000Y-9540000D01*
X12840000Y-10900000D02*
X12880000Y-10940000D01*
X12880000Y-10900000D02*
X12840000Y-10940000D01*
X12990000Y-6020000D02*
X13030000Y-6060000D01*
X13030000Y-6020000D02*
X12990000Y-6060000D01*
X13150000Y-6140000D02*
X13190000Y-6180000D01*
X13190000Y-6140000D02*
X13150000Y-6180000D01*
D13*
X5900000Y-5700000D02*
G75*
G03*
X5900000Y-5700000I-25000J0D01*
G01*
X5900000Y-12500000D02*
G75*
G03*
X5900000Y-12500000I-25000J0D01*
G01*
X5965901Y-5540901D02*
G75*
G03*
X5965901Y-5540901I-25000J0D01*
G01*
X5965901Y-5859099D02*
G75*
G03*
X5965901Y-5859099I-25000J0D01*
G01*
X5965901Y-12340901D02*
G75*
G03*
X5965901Y-12340901I-25000J0D01*
G01*
X5965901Y-12659099D02*
G75*
G03*
X5965901Y-12659099I-25000J0D01*
G01*
X6125000Y-5475000D02*
G75*
G03*
X6125000Y-5475000I-25000J0D01*
G01*
X6125000Y-5925000D02*
G75*
G03*
X6125000Y-5925000I-25000J0D01*
G01*
X6125000Y-12275000D02*
G75*
G03*
X6125000Y-12275000I-25000J0D01*
G01*
X6125000Y-12725000D02*
G75*
G03*
X6125000Y-12725000I-25000J0D01*
G01*
X6284099Y-5540901D02*
G75*
G03*
X6284099Y-5540901I-25000J0D01*
G01*
X6284099Y-5859099D02*
G75*
G03*
X6284099Y-5859099I-25000J0D01*
G01*
X6284099Y-12340901D02*
G75*
G03*
X6284099Y-12340901I-25000J0D01*
G01*
X6284099Y-12659099D02*
G75*
G03*
X6284099Y-12659099I-25000J0D01*
G01*
X6350000Y-5700000D02*
G75*
G03*
X6350000Y-5700000I-25000J0D01*
G01*
X6350000Y-12500000D02*
G75*
G03*
X6350000Y-12500000I-25000J0D01*
G01*
X13700000Y-5700000D02*
G75*
G03*
X13700000Y-5700000I-25000J0D01*
G01*
X13700000Y-12500000D02*
G75*
G03*
X13700000Y-12500000I-25000J0D01*
G01*
X13765901Y-5540901D02*
G75*
G03*
X13765901Y-5540901I-25000J0D01*
G01*
X13765901Y-5859099D02*
G75*
G03*
X13765901Y-5859099I-25000J0D01*
G01*
X13765901Y-12340901D02*
G75*
G03*
X13765901Y-12340901I-25000J0D01*
G01*
X13765901Y-12659099D02*
G75*
G03*
X13765901Y-12659099I-25000J0D01*
G01*
X13925000Y-5475000D02*
G75*
G03*
X13925000Y-5475000I-25000J0D01*
G01*
X13925000Y-5925000D02*
G75*
G03*
X13925000Y-5925000I-25000J0D01*
G01*
X13925000Y-12275000D02*
G75*
G03*
X13925000Y-12275000I-25000J0D01*
G01*
X13925000Y-12725000D02*
G75*
G03*
X13925000Y-12725000I-25000J0D01*
G01*
X14084099Y-5540901D02*
G75*
G03*
X14084099Y-5540901I-25000J0D01*
G01*
X14084099Y-5859099D02*
G75*
G03*
X14084099Y-5859099I-25000J0D01*
G01*
X14084099Y-12340901D02*
G75*
G03*
X14084099Y-12340901I-25000J0D01*
G01*
X14084099Y-12659099D02*
G75*
G03*
X14084099Y-12659099I-25000J0D01*
G01*
X14150000Y-5700000D02*
G75*
G03*
X14150000Y-5700000I-25000J0D01*
G01*
X14150000Y-12500000D02*
G75*
G03*
X14150000Y-12500000I-25000J0D01*
G01*
D14*
X6594000Y-5110000D02*
X6594000Y-5190000D01*
X6554000Y-5150000D02*
X6634000Y-5150000D01*
X8106000Y-5110000D02*
X8106000Y-5190000D01*
X8066000Y-5150000D02*
X8146000Y-5150000D01*
X11894000Y-5110000D02*
X11894000Y-5190000D01*
X11854000Y-5150000D02*
X11934000Y-5150000D01*
X13406000Y-5110000D02*
X13406000Y-5190000D01*
X13366000Y-5150000D02*
X13446000Y-5150000D01*
D11*
X7520711Y-5545711D02*
X7520711Y-5404289D01*
X7379289Y-5404289D01*
X7379289Y-5545711D01*
X7520711Y-5545711D01*
X7520711Y-12745711D02*
X7520711Y-12604289D01*
X7379289Y-12604289D01*
X7379289Y-12745711D01*
X7520711Y-12745711D01*
X12620711Y-5545711D02*
X12620711Y-5404289D01*
X12479289Y-5404289D01*
X12479289Y-5545711D01*
X12620711Y-5545711D01*
X12620711Y-12745711D02*
X12620711Y-12604289D01*
X12479289Y-12604289D01*
X12479289Y-12745711D01*
X12620711Y-12745711D01*
D15*
X6100000Y-5850000D02*
X6250000Y-5700000D01*
X6100000Y-5550000D01*
X5950000Y-5700000D01*
X6100000Y-5850000D01*
X6100000Y-12650000D02*
X6250000Y-12500000D01*
X6100000Y-12350000D01*
X5950000Y-12500000D01*
X6100000Y-12650000D01*
X13900000Y-5850000D02*
X14050000Y-5700000D01*
X13900000Y-5550000D01*
X13750000Y-5700000D01*
X13900000Y-5850000D01*
X13900000Y-12650000D02*
X14050000Y-12500000D01*
X13900000Y-12350000D01*
X13750000Y-12500000D01*
X13900000Y-12650000D01*
D11*
X5852619Y-13515476D02*
X5852619Y-13315476D01*
X5900238Y-13315476D01*
X5928809Y-13325000D01*
X5947857Y-13344048D01*
X5957381Y-13363095D01*
X5966905Y-13401190D01*
X5966905Y-13429762D01*
X5957381Y-13467857D01*
X5947857Y-13486905D01*
X5928809Y-13505952D01*
X5900238Y-13515476D01*
X5852619Y-13515476D01*
X6052619Y-13515476D02*
X6052619Y-13382143D01*
X6052619Y-13420238D02*
X6062143Y-13401190D01*
X6071667Y-13391667D01*
X6090714Y-13382143D01*
X6109762Y-13382143D01*
X6176428Y-13515476D02*
X6176428Y-13382143D01*
X6176428Y-13315476D02*
X6166905Y-13325000D01*
X6176428Y-13334524D01*
X6185952Y-13325000D01*
X6176428Y-13315476D01*
X6176428Y-13334524D01*
X6300238Y-13515476D02*
X6281190Y-13505952D01*
X6271667Y-13486905D01*
X6271667Y-13315476D01*
X6405000Y-13515476D02*
X6385952Y-13505952D01*
X6376428Y-13486905D01*
X6376428Y-13315476D01*
X6633571Y-13515476D02*
X6633571Y-13315476D01*
X6700238Y-13458333D01*
X6766905Y-13315476D01*
X6766905Y-13515476D01*
X6947857Y-13515476D02*
X6947857Y-13410714D01*
X6938333Y-13391667D01*
X6919286Y-13382143D01*
X6881190Y-13382143D01*
X6862143Y-13391667D01*
X6947857Y-13505952D02*
X6928809Y-13515476D01*
X6881190Y-13515476D01*
X6862143Y-13505952D01*
X6852619Y-13486905D01*
X6852619Y-13467857D01*
X6862143Y-13448809D01*
X6881190Y-13439286D01*
X6928809Y-13439286D01*
X6947857Y-13429762D01*
X7043095Y-13382143D02*
X7043095Y-13582143D01*
X7043095Y-13391667D02*
X7062143Y-13382143D01*
X7100238Y-13382143D01*
X7119286Y-13391667D01*
X7128809Y-13401190D01*
X7138333Y-13420238D01*
X7138333Y-13477381D01*
X7128809Y-13496428D01*
X7119286Y-13505952D01*
X7100238Y-13515476D01*
X7062143Y-13515476D01*
X7043095Y-13505952D01*
X7224048Y-13496428D02*
X7233571Y-13505952D01*
X7224048Y-13515476D01*
X7214524Y-13505952D01*
X7224048Y-13496428D01*
X7224048Y-13515476D01*
X7224048Y-13391667D02*
X7233571Y-13401190D01*
X7224048Y-13410714D01*
X7214524Y-13401190D01*
X7224048Y-13391667D01*
X7224048Y-13410714D01*
D12*
X5555000Y-13825000D02*
X5595000Y-13865000D01*
X5595000Y-13825000D02*
X5555000Y-13865000D01*
D11*
X5890714Y-13735476D02*
X5909762Y-13735476D01*
X5928809Y-13745000D01*
X5938333Y-13754524D01*
X5947857Y-13773571D01*
X5957381Y-13811667D01*
X5957381Y-13859286D01*
X5947857Y-13897381D01*
X5938333Y-13916428D01*
X5928809Y-13925952D01*
X5909762Y-13935476D01*
X5890714Y-13935476D01*
X5871667Y-13925952D01*
X5862143Y-13916428D01*
X5852619Y-13897381D01*
X5843095Y-13859286D01*
X5843095Y-13811667D01*
X5852619Y-13773571D01*
X5862143Y-13754524D01*
X5871667Y-13745000D01*
X5890714Y-13735476D01*
X6043095Y-13916428D02*
X6052619Y-13925952D01*
X6043095Y-13935476D01*
X6033571Y-13925952D01*
X6043095Y-13916428D01*
X6043095Y-13935476D01*
X6224048Y-13802143D02*
X6224048Y-13935476D01*
X6176428Y-13725952D02*
X6128809Y-13868809D01*
X6252619Y-13868809D01*
X6366905Y-13735476D02*
X6385952Y-13735476D01*
X6405000Y-13745000D01*
X6414524Y-13754524D01*
X6424048Y-13773571D01*
X6433571Y-13811667D01*
X6433571Y-13859286D01*
X6424048Y-13897381D01*
X6414524Y-13916428D01*
X6405000Y-13925952D01*
X6385952Y-13935476D01*
X6366905Y-13935476D01*
X6347857Y-13925952D01*
X6338333Y-13916428D01*
X6328809Y-13897381D01*
X6319286Y-13859286D01*
X6319286Y-13811667D01*
X6328809Y-13773571D01*
X6338333Y-13754524D01*
X6347857Y-13745000D01*
X6366905Y-13735476D01*
X6557381Y-13735476D02*
X6576428Y-13735476D01*
X6595476Y-13745000D01*
X6605000Y-13754524D01*
X6614524Y-13773571D01*
X6624048Y-13811667D01*
X6624048Y-13859286D01*
X6614524Y-13897381D01*
X6605000Y-13916428D01*
X6595476Y-13925952D01*
X6576428Y-13935476D01*
X6557381Y-13935476D01*
X6538333Y-13925952D01*
X6528809Y-13916428D01*
X6519286Y-13897381D01*
X6509762Y-13859286D01*
X6509762Y-13811667D01*
X6519286Y-13773571D01*
X6528809Y-13754524D01*
X6538333Y-13745000D01*
X6557381Y-13735476D01*
X6709762Y-13935476D02*
X6709762Y-13802143D01*
X6709762Y-13821190D02*
X6719286Y-13811667D01*
X6738333Y-13802143D01*
X6766905Y-13802143D01*
X6785952Y-13811667D01*
X6795476Y-13830714D01*
X6795476Y-13935476D01*
X6795476Y-13830714D02*
X6805000Y-13811667D01*
X6824048Y-13802143D01*
X6852619Y-13802143D01*
X6871667Y-13811667D01*
X6881190Y-13830714D01*
X6881190Y-13935476D01*
X6976428Y-13935476D02*
X6976428Y-13802143D01*
X6976428Y-13821190D02*
X6985952Y-13811667D01*
X7005000Y-13802143D01*
X7033571Y-13802143D01*
X7052619Y-13811667D01*
X7062143Y-13830714D01*
X7062143Y-13935476D01*
X7062143Y-13830714D02*
X7071667Y-13811667D01*
X7090714Y-13802143D01*
X7119286Y-13802143D01*
X7138333Y-13811667D01*
X7147857Y-13830714D01*
X7147857Y-13935476D01*
X7538333Y-13725952D02*
X7366905Y-13983095D01*
X7795476Y-13735476D02*
X7814524Y-13735476D01*
X7833571Y-13745000D01*
X7843095Y-13754524D01*
X7852619Y-13773571D01*
X7862143Y-13811667D01*
X7862143Y-13859286D01*
X7852619Y-13897381D01*
X7843095Y-13916428D01*
X7833571Y-13925952D01*
X7814524Y-13935476D01*
X7795476Y-13935476D01*
X7776428Y-13925952D01*
X7766905Y-13916428D01*
X7757381Y-13897381D01*
X7747857Y-13859286D01*
X7747857Y-13811667D01*
X7757381Y-13773571D01*
X7766905Y-13754524D01*
X7776428Y-13745000D01*
X7795476Y-13735476D01*
X7947857Y-13916428D02*
X7957381Y-13925952D01*
X7947857Y-13935476D01*
X7938333Y-13925952D01*
X7947857Y-13916428D01*
X7947857Y-13935476D01*
X8081190Y-13735476D02*
X8100238Y-13735476D01*
X8119286Y-13745000D01*
X8128809Y-13754524D01*
X8138333Y-13773571D01*
X8147857Y-13811667D01*
X8147857Y-13859286D01*
X8138333Y-13897381D01*
X8128809Y-13916428D01*
X8119286Y-13925952D01*
X8100238Y-13935476D01*
X8081190Y-13935476D01*
X8062143Y-13925952D01*
X8052619Y-13916428D01*
X8043095Y-13897381D01*
X8033571Y-13859286D01*
X8033571Y-13811667D01*
X8043095Y-13773571D01*
X8052619Y-13754524D01*
X8062143Y-13745000D01*
X8081190Y-13735476D01*
X8338333Y-13935476D02*
X8224048Y-13935476D01*
X8281190Y-13935476D02*
X8281190Y-13735476D01*
X8262143Y-13764048D01*
X8243095Y-13783095D01*
X8224048Y-13792619D01*
X8519286Y-13735476D02*
X8424048Y-13735476D01*
X8414524Y-13830714D01*
X8424048Y-13821190D01*
X8443095Y-13811667D01*
X8490714Y-13811667D01*
X8509762Y-13821190D01*
X8519286Y-13830714D01*
X8528810Y-13849762D01*
X8528810Y-13897381D01*
X8519286Y-13916428D01*
X8509762Y-13925952D01*
X8490714Y-13935476D01*
X8443095Y-13935476D01*
X8424048Y-13925952D01*
X8414524Y-13916428D01*
X8595476Y-13735476D02*
X8728810Y-13735476D01*
X8643095Y-13935476D01*
X8795476Y-13735476D02*
X8795476Y-13773571D01*
X8871667Y-13735476D02*
X8871667Y-13773571D01*
X9166905Y-14011667D02*
X9157381Y-14002143D01*
X9138333Y-13973571D01*
X9128810Y-13954524D01*
X9119286Y-13925952D01*
X9109762Y-13878333D01*
X9109762Y-13840238D01*
X9119286Y-13792619D01*
X9128810Y-13764048D01*
X9138333Y-13745000D01*
X9157381Y-13716428D01*
X9166905Y-13706905D01*
X9252619Y-13935476D02*
X9290714Y-13935476D01*
X9309762Y-13925952D01*
X9319286Y-13916428D01*
X9338333Y-13887857D01*
X9347857Y-13849762D01*
X9347857Y-13773571D01*
X9338333Y-13754524D01*
X9328810Y-13745000D01*
X9309762Y-13735476D01*
X9271667Y-13735476D01*
X9252619Y-13745000D01*
X9243095Y-13754524D01*
X9233571Y-13773571D01*
X9233571Y-13821190D01*
X9243095Y-13840238D01*
X9252619Y-13849762D01*
X9271667Y-13859286D01*
X9309762Y-13859286D01*
X9328810Y-13849762D01*
X9338333Y-13840238D01*
X9347857Y-13821190D01*
X9414524Y-13735476D02*
X9538333Y-13735476D01*
X9471667Y-13811667D01*
X9500238Y-13811667D01*
X9519286Y-13821190D01*
X9528810Y-13830714D01*
X9538333Y-13849762D01*
X9538333Y-13897381D01*
X9528810Y-13916428D01*
X9519286Y-13925952D01*
X9500238Y-13935476D01*
X9443095Y-13935476D01*
X9424048Y-13925952D01*
X9414524Y-13916428D01*
X9776429Y-13935476D02*
X9776429Y-13735476D01*
X9862143Y-13935476D02*
X9862143Y-13830714D01*
X9852619Y-13811667D01*
X9833571Y-13802143D01*
X9805000Y-13802143D01*
X9785952Y-13811667D01*
X9776429Y-13821190D01*
X9985952Y-13935476D02*
X9966905Y-13925952D01*
X9957381Y-13916428D01*
X9947857Y-13897381D01*
X9947857Y-13840238D01*
X9957381Y-13821190D01*
X9966905Y-13811667D01*
X9985952Y-13802143D01*
X10014524Y-13802143D01*
X10033571Y-13811667D01*
X10043095Y-13821190D01*
X10052619Y-13840238D01*
X10052619Y-13897381D01*
X10043095Y-13916428D01*
X10033571Y-13925952D01*
X10014524Y-13935476D01*
X9985952Y-13935476D01*
X10166905Y-13935476D02*
X10147857Y-13925952D01*
X10138333Y-13906905D01*
X10138333Y-13735476D01*
X10319286Y-13925952D02*
X10300238Y-13935476D01*
X10262143Y-13935476D01*
X10243095Y-13925952D01*
X10233571Y-13906905D01*
X10233571Y-13830714D01*
X10243095Y-13811667D01*
X10262143Y-13802143D01*
X10300238Y-13802143D01*
X10319286Y-13811667D01*
X10328810Y-13830714D01*
X10328810Y-13849762D01*
X10233571Y-13868809D01*
X10405000Y-13925952D02*
X10424048Y-13935476D01*
X10462143Y-13935476D01*
X10481190Y-13925952D01*
X10490714Y-13906905D01*
X10490714Y-13897381D01*
X10481190Y-13878333D01*
X10462143Y-13868809D01*
X10433571Y-13868809D01*
X10414524Y-13859286D01*
X10405000Y-13840238D01*
X10405000Y-13830714D01*
X10414524Y-13811667D01*
X10433571Y-13802143D01*
X10462143Y-13802143D01*
X10481190Y-13811667D01*
X10557381Y-14011667D02*
X10566905Y-14002143D01*
X10585952Y-13973571D01*
X10595476Y-13954524D01*
X10605000Y-13925952D01*
X10614524Y-13878333D01*
X10614524Y-13840238D01*
X10605000Y-13792619D01*
X10595476Y-13764048D01*
X10585952Y-13745000D01*
X10566905Y-13716428D01*
X10557381Y-13706905D01*
D13*
X5595000Y-14109000D02*
G75*
G03*
X5595000Y-14109000I-25000J0D01*
G01*
D11*
X5890714Y-13999476D02*
X5909762Y-13999476D01*
X5928809Y-14009000D01*
X5938333Y-14018524D01*
X5947857Y-14037571D01*
X5957381Y-14075667D01*
X5957381Y-14123286D01*
X5947857Y-14161381D01*
X5938333Y-14180428D01*
X5928809Y-14189952D01*
X5909762Y-14199476D01*
X5890714Y-14199476D01*
X5871667Y-14189952D01*
X5862143Y-14180428D01*
X5852619Y-14161381D01*
X5843095Y-14123286D01*
X5843095Y-14075667D01*
X5852619Y-14037571D01*
X5862143Y-14018524D01*
X5871667Y-14009000D01*
X5890714Y-13999476D01*
X6043095Y-14180428D02*
X6052619Y-14189952D01*
X6043095Y-14199476D01*
X6033571Y-14189952D01*
X6043095Y-14180428D01*
X6043095Y-14199476D01*
X6233571Y-13999476D02*
X6138333Y-13999476D01*
X6128809Y-14094714D01*
X6138333Y-14085190D01*
X6157381Y-14075667D01*
X6205000Y-14075667D01*
X6224048Y-14085190D01*
X6233571Y-14094714D01*
X6243095Y-14113762D01*
X6243095Y-14161381D01*
X6233571Y-14180428D01*
X6224048Y-14189952D01*
X6205000Y-14199476D01*
X6157381Y-14199476D01*
X6138333Y-14189952D01*
X6128809Y-14180428D01*
X6366905Y-13999476D02*
X6385952Y-13999476D01*
X6405000Y-14009000D01*
X6414524Y-14018524D01*
X6424048Y-14037571D01*
X6433571Y-14075667D01*
X6433571Y-14123286D01*
X6424048Y-14161381D01*
X6414524Y-14180428D01*
X6405000Y-14189952D01*
X6385952Y-14199476D01*
X6366905Y-14199476D01*
X6347857Y-14189952D01*
X6338333Y-14180428D01*
X6328809Y-14161381D01*
X6319286Y-14123286D01*
X6319286Y-14075667D01*
X6328809Y-14037571D01*
X6338333Y-14018524D01*
X6347857Y-14009000D01*
X6366905Y-13999476D01*
X6557381Y-13999476D02*
X6576428Y-13999476D01*
X6595476Y-14009000D01*
X6605000Y-14018524D01*
X6614524Y-14037571D01*
X6624048Y-14075667D01*
X6624048Y-14123286D01*
X6614524Y-14161381D01*
X6605000Y-14180428D01*
X6595476Y-14189952D01*
X6576428Y-14199476D01*
X6557381Y-14199476D01*
X6538333Y-14189952D01*
X6528809Y-14180428D01*
X6519286Y-14161381D01*
X6509762Y-14123286D01*
X6509762Y-14075667D01*
X6519286Y-14037571D01*
X6528809Y-14018524D01*
X6538333Y-14009000D01*
X6557381Y-13999476D01*
X6709762Y-14199476D02*
X6709762Y-14066143D01*
X6709762Y-14085190D02*
X6719286Y-14075667D01*
X6738333Y-14066143D01*
X6766905Y-14066143D01*
X6785952Y-14075667D01*
X6795476Y-14094714D01*
X6795476Y-14199476D01*
X6795476Y-14094714D02*
X6805000Y-14075667D01*
X6824048Y-14066143D01*
X6852619Y-14066143D01*
X6871667Y-14075667D01*
X6881190Y-14094714D01*
X6881190Y-14199476D01*
X6976428Y-14199476D02*
X6976428Y-14066143D01*
X6976428Y-14085190D02*
X6985952Y-14075667D01*
X7005000Y-14066143D01*
X7033571Y-14066143D01*
X7052619Y-14075667D01*
X7062143Y-14094714D01*
X7062143Y-14199476D01*
X7062143Y-14094714D02*
X7071667Y-14075667D01*
X7090714Y-14066143D01*
X7119286Y-14066143D01*
X7138333Y-14075667D01*
X7147857Y-14094714D01*
X7147857Y-14199476D01*
X7538333Y-13989952D02*
X7366905Y-14247095D01*
X7795476Y-13999476D02*
X7814524Y-13999476D01*
X7833571Y-14009000D01*
X7843095Y-14018524D01*
X7852619Y-14037571D01*
X7862143Y-14075667D01*
X7862143Y-14123286D01*
X7852619Y-14161381D01*
X7843095Y-14180428D01*
X7833571Y-14189952D01*
X7814524Y-14199476D01*
X7795476Y-14199476D01*
X7776428Y-14189952D01*
X7766905Y-14180428D01*
X7757381Y-14161381D01*
X7747857Y-14123286D01*
X7747857Y-14075667D01*
X7757381Y-14037571D01*
X7766905Y-14018524D01*
X7776428Y-14009000D01*
X7795476Y-13999476D01*
X7947857Y-14180428D02*
X7957381Y-14189952D01*
X7947857Y-14199476D01*
X7938333Y-14189952D01*
X7947857Y-14180428D01*
X7947857Y-14199476D01*
X8081190Y-13999476D02*
X8100238Y-13999476D01*
X8119286Y-14009000D01*
X8128809Y-14018524D01*
X8138333Y-14037571D01*
X8147857Y-14075667D01*
X8147857Y-14123286D01*
X8138333Y-14161381D01*
X8128809Y-14180428D01*
X8119286Y-14189952D01*
X8100238Y-14199476D01*
X8081190Y-14199476D01*
X8062143Y-14189952D01*
X8052619Y-14180428D01*
X8043095Y-14161381D01*
X8033571Y-14123286D01*
X8033571Y-14075667D01*
X8043095Y-14037571D01*
X8052619Y-14018524D01*
X8062143Y-14009000D01*
X8081190Y-13999476D01*
X8338333Y-14199476D02*
X8224048Y-14199476D01*
X8281190Y-14199476D02*
X8281190Y-13999476D01*
X8262143Y-14028048D01*
X8243095Y-14047095D01*
X8224048Y-14056619D01*
X8433571Y-14199476D02*
X8471667Y-14199476D01*
X8490714Y-14189952D01*
X8500238Y-14180428D01*
X8519286Y-14151857D01*
X8528810Y-14113762D01*
X8528810Y-14037571D01*
X8519286Y-14018524D01*
X8509762Y-14009000D01*
X8490714Y-13999476D01*
X8452619Y-13999476D01*
X8433571Y-14009000D01*
X8424048Y-14018524D01*
X8414524Y-14037571D01*
X8414524Y-14085190D01*
X8424048Y-14104238D01*
X8433571Y-14113762D01*
X8452619Y-14123286D01*
X8490714Y-14123286D01*
X8509762Y-14113762D01*
X8519286Y-14104238D01*
X8528810Y-14085190D01*
X8595476Y-13999476D02*
X8728810Y-13999476D01*
X8643095Y-14199476D01*
X8795476Y-13999476D02*
X8795476Y-14037571D01*
X8871667Y-13999476D02*
X8871667Y-14037571D01*
X9166905Y-14275667D02*
X9157381Y-14266143D01*
X9138333Y-14237571D01*
X9128810Y-14218524D01*
X9119286Y-14189952D01*
X9109762Y-14142333D01*
X9109762Y-14104238D01*
X9119286Y-14056619D01*
X9128810Y-14028048D01*
X9138333Y-14009000D01*
X9157381Y-13980428D01*
X9166905Y-13970905D01*
X9224048Y-13999476D02*
X9347857Y-13999476D01*
X9281190Y-14075667D01*
X9309762Y-14075667D01*
X9328810Y-14085190D01*
X9338333Y-14094714D01*
X9347857Y-14113762D01*
X9347857Y-14161381D01*
X9338333Y-14180428D01*
X9328810Y-14189952D01*
X9309762Y-14199476D01*
X9252619Y-14199476D01*
X9233571Y-14189952D01*
X9224048Y-14180428D01*
X9424048Y-14018524D02*
X9433571Y-14009000D01*
X9452619Y-13999476D01*
X9500238Y-13999476D01*
X9519286Y-14009000D01*
X9528810Y-14018524D01*
X9538333Y-14037571D01*
X9538333Y-14056619D01*
X9528810Y-14085190D01*
X9414524Y-14199476D01*
X9538333Y-14199476D01*
X9776429Y-14199476D02*
X9776429Y-13999476D01*
X9862143Y-14199476D02*
X9862143Y-14094714D01*
X9852619Y-14075667D01*
X9833571Y-14066143D01*
X9805000Y-14066143D01*
X9785952Y-14075667D01*
X9776429Y-14085190D01*
X9985952Y-14199476D02*
X9966905Y-14189952D01*
X9957381Y-14180428D01*
X9947857Y-14161381D01*
X9947857Y-14104238D01*
X9957381Y-14085190D01*
X9966905Y-14075667D01*
X9985952Y-14066143D01*
X10014524Y-14066143D01*
X10033571Y-14075667D01*
X10043095Y-14085190D01*
X10052619Y-14104238D01*
X10052619Y-14161381D01*
X10043095Y-14180428D01*
X10033571Y-14189952D01*
X10014524Y-14199476D01*
X9985952Y-14199476D01*
X10166905Y-14199476D02*
X10147857Y-14189952D01*
X10138333Y-14170905D01*
X10138333Y-13999476D01*
X10319286Y-14189952D02*
X10300238Y-14199476D01*
X10262143Y-14199476D01*
X10243095Y-14189952D01*
X10233571Y-14170905D01*
X10233571Y-14094714D01*
X10243095Y-14075667D01*
X10262143Y-14066143D01*
X10300238Y-14066143D01*
X10319286Y-14075667D01*
X10328810Y-14094714D01*
X10328810Y-14113762D01*
X10233571Y-14132809D01*
X10405000Y-14189952D02*
X10424048Y-14199476D01*
X10462143Y-14199476D01*
X10481190Y-14189952D01*
X10490714Y-14170905D01*
X10490714Y-14161381D01*
X10481190Y-14142333D01*
X10462143Y-14132809D01*
X10433571Y-14132809D01*
X10414524Y-14123286D01*
X10405000Y-14104238D01*
X10405000Y-14094714D01*
X10414524Y-14075667D01*
X10433571Y-14066143D01*
X10462143Y-14066143D01*
X10481190Y-14075667D01*
X10557381Y-14275667D02*
X10566905Y-14266143D01*
X10585952Y-14237571D01*
X10595476Y-14218524D01*
X10605000Y-14189952D01*
X10614524Y-14142333D01*
X10614524Y-14104238D01*
X10605000Y-14056619D01*
X10595476Y-14028048D01*
X10585952Y-14009000D01*
X10566905Y-13980428D01*
X10557381Y-13970905D01*
D14*
X5555000Y-14333000D02*
X5555000Y-14413000D01*
X5515000Y-14373000D02*
X5595000Y-14373000D01*
D11*
X5890714Y-14263476D02*
X5909762Y-14263476D01*
X5928809Y-14273000D01*
X5938333Y-14282524D01*
X5947857Y-14301571D01*
X5957381Y-14339667D01*
X5957381Y-14387286D01*
X5947857Y-14425381D01*
X5938333Y-14444428D01*
X5928809Y-14453952D01*
X5909762Y-14463476D01*
X5890714Y-14463476D01*
X5871667Y-14453952D01*
X5862143Y-14444428D01*
X5852619Y-14425381D01*
X5843095Y-14387286D01*
X5843095Y-14339667D01*
X5852619Y-14301571D01*
X5862143Y-14282524D01*
X5871667Y-14273000D01*
X5890714Y-14263476D01*
X6043095Y-14444428D02*
X6052619Y-14453952D01*
X6043095Y-14463476D01*
X6033571Y-14453952D01*
X6043095Y-14444428D01*
X6043095Y-14463476D01*
X6166905Y-14349190D02*
X6147857Y-14339667D01*
X6138333Y-14330143D01*
X6128809Y-14311095D01*
X6128809Y-14301571D01*
X6138333Y-14282524D01*
X6147857Y-14273000D01*
X6166905Y-14263476D01*
X6205000Y-14263476D01*
X6224048Y-14273000D01*
X6233571Y-14282524D01*
X6243095Y-14301571D01*
X6243095Y-14311095D01*
X6233571Y-14330143D01*
X6224048Y-14339667D01*
X6205000Y-14349190D01*
X6166905Y-14349190D01*
X6147857Y-14358714D01*
X6138333Y-14368238D01*
X6128809Y-14387286D01*
X6128809Y-14425381D01*
X6138333Y-14444428D01*
X6147857Y-14453952D01*
X6166905Y-14463476D01*
X6205000Y-14463476D01*
X6224048Y-14453952D01*
X6233571Y-14444428D01*
X6243095Y-14425381D01*
X6243095Y-14387286D01*
X6233571Y-14368238D01*
X6224048Y-14358714D01*
X6205000Y-14349190D01*
X6366905Y-14263476D02*
X6385952Y-14263476D01*
X6405000Y-14273000D01*
X6414524Y-14282524D01*
X6424048Y-14301571D01*
X6433571Y-14339667D01*
X6433571Y-14387286D01*
X6424048Y-14425381D01*
X6414524Y-14444428D01*
X6405000Y-14453952D01*
X6385952Y-14463476D01*
X6366905Y-14463476D01*
X6347857Y-14453952D01*
X6338333Y-14444428D01*
X6328809Y-14425381D01*
X6319286Y-14387286D01*
X6319286Y-14339667D01*
X6328809Y-14301571D01*
X6338333Y-14282524D01*
X6347857Y-14273000D01*
X6366905Y-14263476D01*
X6557381Y-14263476D02*
X6576428Y-14263476D01*
X6595476Y-14273000D01*
X6605000Y-14282524D01*
X6614524Y-14301571D01*
X6624048Y-14339667D01*
X6624048Y-14387286D01*
X6614524Y-14425381D01*
X6605000Y-14444428D01*
X6595476Y-14453952D01*
X6576428Y-14463476D01*
X6557381Y-14463476D01*
X6538333Y-14453952D01*
X6528809Y-14444428D01*
X6519286Y-14425381D01*
X6509762Y-14387286D01*
X6509762Y-14339667D01*
X6519286Y-14301571D01*
X6528809Y-14282524D01*
X6538333Y-14273000D01*
X6557381Y-14263476D01*
X6709762Y-14463476D02*
X6709762Y-14330143D01*
X6709762Y-14349190D02*
X6719286Y-14339667D01*
X6738333Y-14330143D01*
X6766905Y-14330143D01*
X6785952Y-14339667D01*
X6795476Y-14358714D01*
X6795476Y-14463476D01*
X6795476Y-14358714D02*
X6805000Y-14339667D01*
X6824048Y-14330143D01*
X6852619Y-14330143D01*
X6871667Y-14339667D01*
X6881190Y-14358714D01*
X6881190Y-14463476D01*
X6976428Y-14463476D02*
X6976428Y-14330143D01*
X6976428Y-14349190D02*
X6985952Y-14339667D01*
X7005000Y-14330143D01*
X7033571Y-14330143D01*
X7052619Y-14339667D01*
X7062143Y-14358714D01*
X7062143Y-14463476D01*
X7062143Y-14358714D02*
X7071667Y-14339667D01*
X7090714Y-14330143D01*
X7119286Y-14330143D01*
X7138333Y-14339667D01*
X7147857Y-14358714D01*
X7147857Y-14463476D01*
X7538333Y-14253952D02*
X7366905Y-14511095D01*
X7795476Y-14263476D02*
X7814524Y-14263476D01*
X7833571Y-14273000D01*
X7843095Y-14282524D01*
X7852619Y-14301571D01*
X7862143Y-14339667D01*
X7862143Y-14387286D01*
X7852619Y-14425381D01*
X7843095Y-14444428D01*
X7833571Y-14453952D01*
X7814524Y-14463476D01*
X7795476Y-14463476D01*
X7776428Y-14453952D01*
X7766905Y-14444428D01*
X7757381Y-14425381D01*
X7747857Y-14387286D01*
X7747857Y-14339667D01*
X7757381Y-14301571D01*
X7766905Y-14282524D01*
X7776428Y-14273000D01*
X7795476Y-14263476D01*
X7947857Y-14444428D02*
X7957381Y-14453952D01*
X7947857Y-14463476D01*
X7938333Y-14453952D01*
X7947857Y-14444428D01*
X7947857Y-14463476D01*
X8081190Y-14263476D02*
X8100238Y-14263476D01*
X8119286Y-14273000D01*
X8128809Y-14282524D01*
X8138333Y-14301571D01*
X8147857Y-14339667D01*
X8147857Y-14387286D01*
X8138333Y-14425381D01*
X8128809Y-14444428D01*
X8119286Y-14453952D01*
X8100238Y-14463476D01*
X8081190Y-14463476D01*
X8062143Y-14453952D01*
X8052619Y-14444428D01*
X8043095Y-14425381D01*
X8033571Y-14387286D01*
X8033571Y-14339667D01*
X8043095Y-14301571D01*
X8052619Y-14282524D01*
X8062143Y-14273000D01*
X8081190Y-14263476D01*
X8214524Y-14263476D02*
X8338333Y-14263476D01*
X8271667Y-14339667D01*
X8300238Y-14339667D01*
X8319286Y-14349190D01*
X8328809Y-14358714D01*
X8338333Y-14377762D01*
X8338333Y-14425381D01*
X8328809Y-14444428D01*
X8319286Y-14453952D01*
X8300238Y-14463476D01*
X8243095Y-14463476D01*
X8224048Y-14453952D01*
X8214524Y-14444428D01*
X8528810Y-14463476D02*
X8414524Y-14463476D01*
X8471667Y-14463476D02*
X8471667Y-14263476D01*
X8452619Y-14292048D01*
X8433571Y-14311095D01*
X8414524Y-14320619D01*
X8709762Y-14263476D02*
X8614524Y-14263476D01*
X8605000Y-14358714D01*
X8614524Y-14349190D01*
X8633571Y-14339667D01*
X8681190Y-14339667D01*
X8700238Y-14349190D01*
X8709762Y-14358714D01*
X8719286Y-14377762D01*
X8719286Y-14425381D01*
X8709762Y-14444428D01*
X8700238Y-14453952D01*
X8681190Y-14463476D01*
X8633571Y-14463476D01*
X8614524Y-14453952D01*
X8605000Y-14444428D01*
X8795476Y-14263476D02*
X8795476Y-14301571D01*
X8871667Y-14263476D02*
X8871667Y-14301571D01*
X9166905Y-14539667D02*
X9157381Y-14530143D01*
X9138333Y-14501571D01*
X9128810Y-14482524D01*
X9119286Y-14453952D01*
X9109762Y-14406333D01*
X9109762Y-14368238D01*
X9119286Y-14320619D01*
X9128810Y-14292048D01*
X9138333Y-14273000D01*
X9157381Y-14244428D01*
X9166905Y-14234905D01*
X9328810Y-14330143D02*
X9328810Y-14463476D01*
X9281190Y-14253952D02*
X9233571Y-14396809D01*
X9357381Y-14396809D01*
X9585952Y-14463476D02*
X9585952Y-14263476D01*
X9671667Y-14463476D02*
X9671667Y-14358714D01*
X9662143Y-14339667D01*
X9643095Y-14330143D01*
X9614524Y-14330143D01*
X9595476Y-14339667D01*
X9585952Y-14349190D01*
X9795476Y-14463476D02*
X9776429Y-14453952D01*
X9766905Y-14444428D01*
X9757381Y-14425381D01*
X9757381Y-14368238D01*
X9766905Y-14349190D01*
X9776429Y-14339667D01*
X9795476Y-14330143D01*
X9824048Y-14330143D01*
X9843095Y-14339667D01*
X9852619Y-14349190D01*
X9862143Y-14368238D01*
X9862143Y-14425381D01*
X9852619Y-14444428D01*
X9843095Y-14453952D01*
X9824048Y-14463476D01*
X9795476Y-14463476D01*
X9976429Y-14463476D02*
X9957381Y-14453952D01*
X9947857Y-14434905D01*
X9947857Y-14263476D01*
X10128810Y-14453952D02*
X10109762Y-14463476D01*
X10071667Y-14463476D01*
X10052619Y-14453952D01*
X10043095Y-14434905D01*
X10043095Y-14358714D01*
X10052619Y-14339667D01*
X10071667Y-14330143D01*
X10109762Y-14330143D01*
X10128810Y-14339667D01*
X10138333Y-14358714D01*
X10138333Y-14377762D01*
X10043095Y-14396809D01*
X10214524Y-14453952D02*
X10233571Y-14463476D01*
X10271667Y-14463476D01*
X10290714Y-14453952D01*
X10300238Y-14434905D01*
X10300238Y-14425381D01*
X10290714Y-14406333D01*
X10271667Y-14396809D01*
X10243095Y-14396809D01*
X10224048Y-14387286D01*
X10214524Y-14368238D01*
X10214524Y-14358714D01*
X10224048Y-14339667D01*
X10243095Y-14330143D01*
X10271667Y-14330143D01*
X10290714Y-14339667D01*
X10366905Y-14539667D02*
X10376429Y-14530143D01*
X10395476Y-14501571D01*
X10405000Y-14482524D01*
X10414524Y-14453952D01*
X10424048Y-14406333D01*
X10424048Y-14368238D01*
X10414524Y-14320619D01*
X10405000Y-14292048D01*
X10395476Y-14273000D01*
X10376429Y-14244428D01*
X10366905Y-14234905D01*
X5565711Y-14707711D02*
X5565711Y-14566289D01*
X5424289Y-14566289D01*
X5424289Y-14707711D01*
X5565711Y-14707711D01*
X5843095Y-14546524D02*
X5852619Y-14537000D01*
X5871667Y-14527476D01*
X5919286Y-14527476D01*
X5938333Y-14537000D01*
X5947857Y-14546524D01*
X5957381Y-14565571D01*
X5957381Y-14584619D01*
X5947857Y-14613190D01*
X5833571Y-14727476D01*
X5957381Y-14727476D01*
X6043095Y-14708428D02*
X6052619Y-14717952D01*
X6043095Y-14727476D01*
X6033571Y-14717952D01*
X6043095Y-14708428D01*
X6043095Y-14727476D01*
X6176428Y-14527476D02*
X6195476Y-14527476D01*
X6214524Y-14537000D01*
X6224048Y-14546524D01*
X6233571Y-14565571D01*
X6243095Y-14603667D01*
X6243095Y-14651286D01*
X6233571Y-14689381D01*
X6224048Y-14708428D01*
X6214524Y-14717952D01*
X6195476Y-14727476D01*
X6176428Y-14727476D01*
X6157381Y-14717952D01*
X6147857Y-14708428D01*
X6138333Y-14689381D01*
X6128809Y-14651286D01*
X6128809Y-14603667D01*
X6138333Y-14565571D01*
X6147857Y-14546524D01*
X6157381Y-14537000D01*
X6176428Y-14527476D01*
X6366905Y-14527476D02*
X6385952Y-14527476D01*
X6405000Y-14537000D01*
X6414524Y-14546524D01*
X6424048Y-14565571D01*
X6433571Y-14603667D01*
X6433571Y-14651286D01*
X6424048Y-14689381D01*
X6414524Y-14708428D01*
X6405000Y-14717952D01*
X6385952Y-14727476D01*
X6366905Y-14727476D01*
X6347857Y-14717952D01*
X6338333Y-14708428D01*
X6328809Y-14689381D01*
X6319286Y-14651286D01*
X6319286Y-14603667D01*
X6328809Y-14565571D01*
X6338333Y-14546524D01*
X6347857Y-14537000D01*
X6366905Y-14527476D01*
X6557381Y-14527476D02*
X6576428Y-14527476D01*
X6595476Y-14537000D01*
X6605000Y-14546524D01*
X6614524Y-14565571D01*
X6624048Y-14603667D01*
X6624048Y-14651286D01*
X6614524Y-14689381D01*
X6605000Y-14708428D01*
X6595476Y-14717952D01*
X6576428Y-14727476D01*
X6557381Y-14727476D01*
X6538333Y-14717952D01*
X6528809Y-14708428D01*
X6519286Y-14689381D01*
X6509762Y-14651286D01*
X6509762Y-14603667D01*
X6519286Y-14565571D01*
X6528809Y-14546524D01*
X6538333Y-14537000D01*
X6557381Y-14527476D01*
X6709762Y-14727476D02*
X6709762Y-14594143D01*
X6709762Y-14613190D02*
X6719286Y-14603667D01*
X6738333Y-14594143D01*
X6766905Y-14594143D01*
X6785952Y-14603667D01*
X6795476Y-14622714D01*
X6795476Y-14727476D01*
X6795476Y-14622714D02*
X6805000Y-14603667D01*
X6824048Y-14594143D01*
X6852619Y-14594143D01*
X6871667Y-14603667D01*
X6881190Y-14622714D01*
X6881190Y-14727476D01*
X6976428Y-14727476D02*
X6976428Y-14594143D01*
X6976428Y-14613190D02*
X6985952Y-14603667D01*
X7005000Y-14594143D01*
X7033571Y-14594143D01*
X7052619Y-14603667D01*
X7062143Y-14622714D01*
X7062143Y-14727476D01*
X7062143Y-14622714D02*
X7071667Y-14603667D01*
X7090714Y-14594143D01*
X7119286Y-14594143D01*
X7138333Y-14603667D01*
X7147857Y-14622714D01*
X7147857Y-14727476D01*
X7538333Y-14517952D02*
X7366905Y-14775095D01*
X7795476Y-14527476D02*
X7814524Y-14527476D01*
X7833571Y-14537000D01*
X7843095Y-14546524D01*
X7852619Y-14565571D01*
X7862143Y-14603667D01*
X7862143Y-14651286D01*
X7852619Y-14689381D01*
X7843095Y-14708428D01*
X7833571Y-14717952D01*
X7814524Y-14727476D01*
X7795476Y-14727476D01*
X7776428Y-14717952D01*
X7766905Y-14708428D01*
X7757381Y-14689381D01*
X7747857Y-14651286D01*
X7747857Y-14603667D01*
X7757381Y-14565571D01*
X7766905Y-14546524D01*
X7776428Y-14537000D01*
X7795476Y-14527476D01*
X7947857Y-14708428D02*
X7957381Y-14717952D01*
X7947857Y-14727476D01*
X7938333Y-14717952D01*
X7947857Y-14708428D01*
X7947857Y-14727476D01*
X8081190Y-14527476D02*
X8100238Y-14527476D01*
X8119286Y-14537000D01*
X8128809Y-14546524D01*
X8138333Y-14565571D01*
X8147857Y-14603667D01*
X8147857Y-14651286D01*
X8138333Y-14689381D01*
X8128809Y-14708428D01*
X8119286Y-14717952D01*
X8100238Y-14727476D01*
X8081190Y-14727476D01*
X8062143Y-14717952D01*
X8052619Y-14708428D01*
X8043095Y-14689381D01*
X8033571Y-14651286D01*
X8033571Y-14603667D01*
X8043095Y-14565571D01*
X8052619Y-14546524D01*
X8062143Y-14537000D01*
X8081190Y-14527476D01*
X8214524Y-14527476D02*
X8347857Y-14527476D01*
X8262143Y-14727476D01*
X8452619Y-14613190D02*
X8433571Y-14603667D01*
X8424048Y-14594143D01*
X8414524Y-14575095D01*
X8414524Y-14565571D01*
X8424048Y-14546524D01*
X8433571Y-14537000D01*
X8452619Y-14527476D01*
X8490714Y-14527476D01*
X8509762Y-14537000D01*
X8519286Y-14546524D01*
X8528810Y-14565571D01*
X8528810Y-14575095D01*
X8519286Y-14594143D01*
X8509762Y-14603667D01*
X8490714Y-14613190D01*
X8452619Y-14613190D01*
X8433571Y-14622714D01*
X8424048Y-14632238D01*
X8414524Y-14651286D01*
X8414524Y-14689381D01*
X8424048Y-14708428D01*
X8433571Y-14717952D01*
X8452619Y-14727476D01*
X8490714Y-14727476D01*
X8509762Y-14717952D01*
X8519286Y-14708428D01*
X8528810Y-14689381D01*
X8528810Y-14651286D01*
X8519286Y-14632238D01*
X8509762Y-14622714D01*
X8490714Y-14613190D01*
X8595476Y-14527476D02*
X8728810Y-14527476D01*
X8643095Y-14727476D01*
X8795476Y-14527476D02*
X8795476Y-14565571D01*
X8871667Y-14527476D02*
X8871667Y-14565571D01*
X9166905Y-14803667D02*
X9157381Y-14794143D01*
X9138333Y-14765571D01*
X9128810Y-14746524D01*
X9119286Y-14717952D01*
X9109762Y-14670333D01*
X9109762Y-14632238D01*
X9119286Y-14584619D01*
X9128810Y-14556048D01*
X9138333Y-14537000D01*
X9157381Y-14508428D01*
X9166905Y-14498905D01*
X9328810Y-14594143D02*
X9328810Y-14727476D01*
X9281190Y-14517952D02*
X9233571Y-14660809D01*
X9357381Y-14660809D01*
X9585952Y-14727476D02*
X9585952Y-14527476D01*
X9671667Y-14727476D02*
X9671667Y-14622714D01*
X9662143Y-14603667D01*
X9643095Y-14594143D01*
X9614524Y-14594143D01*
X9595476Y-14603667D01*
X9585952Y-14613190D01*
X9795476Y-14727476D02*
X9776429Y-14717952D01*
X9766905Y-14708428D01*
X9757381Y-14689381D01*
X9757381Y-14632238D01*
X9766905Y-14613190D01*
X9776429Y-14603667D01*
X9795476Y-14594143D01*
X9824048Y-14594143D01*
X9843095Y-14603667D01*
X9852619Y-14613190D01*
X9862143Y-14632238D01*
X9862143Y-14689381D01*
X9852619Y-14708428D01*
X9843095Y-14717952D01*
X9824048Y-14727476D01*
X9795476Y-14727476D01*
X9976429Y-14727476D02*
X9957381Y-14717952D01*
X9947857Y-14698905D01*
X9947857Y-14527476D01*
X10128810Y-14717952D02*
X10109762Y-14727476D01*
X10071667Y-14727476D01*
X10052619Y-14717952D01*
X10043095Y-14698905D01*
X10043095Y-14622714D01*
X10052619Y-14603667D01*
X10071667Y-14594143D01*
X10109762Y-14594143D01*
X10128810Y-14603667D01*
X10138333Y-14622714D01*
X10138333Y-14641762D01*
X10043095Y-14660809D01*
X10214524Y-14717952D02*
X10233571Y-14727476D01*
X10271667Y-14727476D01*
X10290714Y-14717952D01*
X10300238Y-14698905D01*
X10300238Y-14689381D01*
X10290714Y-14670333D01*
X10271667Y-14660809D01*
X10243095Y-14660809D01*
X10224048Y-14651286D01*
X10214524Y-14632238D01*
X10214524Y-14622714D01*
X10224048Y-14603667D01*
X10243095Y-14594143D01*
X10271667Y-14594143D01*
X10290714Y-14603667D01*
X10366905Y-14803667D02*
X10376429Y-14794143D01*
X10395476Y-14765571D01*
X10405000Y-14746524D01*
X10414524Y-14717952D01*
X10424048Y-14670333D01*
X10424048Y-14632238D01*
X10414524Y-14584619D01*
X10405000Y-14556048D01*
X10395476Y-14537000D01*
X10376429Y-14508428D01*
X10366905Y-14498905D01*
X5495000Y-15057000D02*
X5595000Y-14957000D01*
X5495000Y-14857000D01*
X5395000Y-14957000D01*
X5495000Y-15057000D01*
X5833571Y-14847476D02*
X5957381Y-14847476D01*
X5890714Y-14923667D01*
X5919286Y-14923667D01*
X5938333Y-14933190D01*
X5947857Y-14942714D01*
X5957381Y-14961762D01*
X5957381Y-15009381D01*
X5947857Y-15028428D01*
X5938333Y-15037952D01*
X5919286Y-15047476D01*
X5862143Y-15047476D01*
X5843095Y-15037952D01*
X5833571Y-15028428D01*
X6043095Y-15028428D02*
X6052619Y-15037952D01*
X6043095Y-15047476D01*
X6033571Y-15037952D01*
X6043095Y-15028428D01*
X6043095Y-15047476D01*
X6176428Y-14847476D02*
X6195476Y-14847476D01*
X6214524Y-14857000D01*
X6224048Y-14866524D01*
X6233571Y-14885571D01*
X6243095Y-14923667D01*
X6243095Y-14971286D01*
X6233571Y-15009381D01*
X6224048Y-15028428D01*
X6214524Y-15037952D01*
X6195476Y-15047476D01*
X6176428Y-15047476D01*
X6157381Y-15037952D01*
X6147857Y-15028428D01*
X6138333Y-15009381D01*
X6128809Y-14971286D01*
X6128809Y-14923667D01*
X6138333Y-14885571D01*
X6147857Y-14866524D01*
X6157381Y-14857000D01*
X6176428Y-14847476D01*
X6366905Y-14847476D02*
X6385952Y-14847476D01*
X6405000Y-14857000D01*
X6414524Y-14866524D01*
X6424048Y-14885571D01*
X6433571Y-14923667D01*
X6433571Y-14971286D01*
X6424048Y-15009381D01*
X6414524Y-15028428D01*
X6405000Y-15037952D01*
X6385952Y-15047476D01*
X6366905Y-15047476D01*
X6347857Y-15037952D01*
X6338333Y-15028428D01*
X6328809Y-15009381D01*
X6319286Y-14971286D01*
X6319286Y-14923667D01*
X6328809Y-14885571D01*
X6338333Y-14866524D01*
X6347857Y-14857000D01*
X6366905Y-14847476D01*
X6557381Y-14847476D02*
X6576428Y-14847476D01*
X6595476Y-14857000D01*
X6605000Y-14866524D01*
X6614524Y-14885571D01*
X6624048Y-14923667D01*
X6624048Y-14971286D01*
X6614524Y-15009381D01*
X6605000Y-15028428D01*
X6595476Y-15037952D01*
X6576428Y-15047476D01*
X6557381Y-15047476D01*
X6538333Y-15037952D01*
X6528809Y-15028428D01*
X6519286Y-15009381D01*
X6509762Y-14971286D01*
X6509762Y-14923667D01*
X6519286Y-14885571D01*
X6528809Y-14866524D01*
X6538333Y-14857000D01*
X6557381Y-14847476D01*
X6709762Y-15047476D02*
X6709762Y-14914143D01*
X6709762Y-14933190D02*
X6719286Y-14923667D01*
X6738333Y-14914143D01*
X6766905Y-14914143D01*
X6785952Y-14923667D01*
X6795476Y-14942714D01*
X6795476Y-15047476D01*
X6795476Y-14942714D02*
X6805000Y-14923667D01*
X6824048Y-14914143D01*
X6852619Y-14914143D01*
X6871667Y-14923667D01*
X6881190Y-14942714D01*
X6881190Y-15047476D01*
X6976428Y-15047476D02*
X6976428Y-14914143D01*
X6976428Y-14933190D02*
X6985952Y-14923667D01*
X7005000Y-14914143D01*
X7033571Y-14914143D01*
X7052619Y-14923667D01*
X7062143Y-14942714D01*
X7062143Y-15047476D01*
X7062143Y-14942714D02*
X7071667Y-14923667D01*
X7090714Y-14914143D01*
X7119286Y-14914143D01*
X7138333Y-14923667D01*
X7147857Y-14942714D01*
X7147857Y-15047476D01*
X7538333Y-14837952D02*
X7366905Y-15095095D01*
X7795476Y-14847476D02*
X7814524Y-14847476D01*
X7833571Y-14857000D01*
X7843095Y-14866524D01*
X7852619Y-14885571D01*
X7862143Y-14923667D01*
X7862143Y-14971286D01*
X7852619Y-15009381D01*
X7843095Y-15028428D01*
X7833571Y-15037952D01*
X7814524Y-15047476D01*
X7795476Y-15047476D01*
X7776428Y-15037952D01*
X7766905Y-15028428D01*
X7757381Y-15009381D01*
X7747857Y-14971286D01*
X7747857Y-14923667D01*
X7757381Y-14885571D01*
X7766905Y-14866524D01*
X7776428Y-14857000D01*
X7795476Y-14847476D01*
X7947857Y-15028428D02*
X7957381Y-15037952D01*
X7947857Y-15047476D01*
X7938333Y-15037952D01*
X7947857Y-15028428D01*
X7947857Y-15047476D01*
X8147857Y-15047476D02*
X8033571Y-15047476D01*
X8090714Y-15047476D02*
X8090714Y-14847476D01*
X8071667Y-14876048D01*
X8052619Y-14895095D01*
X8033571Y-14904619D01*
X8338333Y-15047476D02*
X8224048Y-15047476D01*
X8281190Y-15047476D02*
X8281190Y-14847476D01*
X8262143Y-14876048D01*
X8243095Y-14895095D01*
X8224048Y-14904619D01*
X8452619Y-14933190D02*
X8433571Y-14923667D01*
X8424048Y-14914143D01*
X8414524Y-14895095D01*
X8414524Y-14885571D01*
X8424048Y-14866524D01*
X8433571Y-14857000D01*
X8452619Y-14847476D01*
X8490714Y-14847476D01*
X8509762Y-14857000D01*
X8519286Y-14866524D01*
X8528810Y-14885571D01*
X8528810Y-14895095D01*
X8519286Y-14914143D01*
X8509762Y-14923667D01*
X8490714Y-14933190D01*
X8452619Y-14933190D01*
X8433571Y-14942714D01*
X8424048Y-14952238D01*
X8414524Y-14971286D01*
X8414524Y-15009381D01*
X8424048Y-15028428D01*
X8433571Y-15037952D01*
X8452619Y-15047476D01*
X8490714Y-15047476D01*
X8509762Y-15037952D01*
X8519286Y-15028428D01*
X8528810Y-15009381D01*
X8528810Y-14971286D01*
X8519286Y-14952238D01*
X8509762Y-14942714D01*
X8490714Y-14933190D01*
X8719286Y-15047476D02*
X8605000Y-15047476D01*
X8662143Y-15047476D02*
X8662143Y-14847476D01*
X8643095Y-14876048D01*
X8624048Y-14895095D01*
X8605000Y-14904619D01*
X8795476Y-14847476D02*
X8795476Y-14885571D01*
X8871667Y-14847476D02*
X8871667Y-14885571D01*
X9166905Y-15123667D02*
X9157381Y-15114143D01*
X9138333Y-15085571D01*
X9128810Y-15066524D01*
X9119286Y-15037952D01*
X9109762Y-14990333D01*
X9109762Y-14952238D01*
X9119286Y-14904619D01*
X9128810Y-14876048D01*
X9138333Y-14857000D01*
X9157381Y-14828428D01*
X9166905Y-14818905D01*
X9328810Y-14914143D02*
X9328810Y-15047476D01*
X9281190Y-14837952D02*
X9233571Y-14980809D01*
X9357381Y-14980809D01*
X9585952Y-15047476D02*
X9585952Y-14847476D01*
X9671667Y-15047476D02*
X9671667Y-14942714D01*
X9662143Y-14923667D01*
X9643095Y-14914143D01*
X9614524Y-14914143D01*
X9595476Y-14923667D01*
X9585952Y-14933190D01*
X9795476Y-15047476D02*
X9776429Y-15037952D01*
X9766905Y-15028428D01*
X9757381Y-15009381D01*
X9757381Y-14952238D01*
X9766905Y-14933190D01*
X9776429Y-14923667D01*
X9795476Y-14914143D01*
X9824048Y-14914143D01*
X9843095Y-14923667D01*
X9852619Y-14933190D01*
X9862143Y-14952238D01*
X9862143Y-15009381D01*
X9852619Y-15028428D01*
X9843095Y-15037952D01*
X9824048Y-15047476D01*
X9795476Y-15047476D01*
X9976429Y-15047476D02*
X9957381Y-15037952D01*
X9947857Y-15018905D01*
X9947857Y-14847476D01*
X10128810Y-15037952D02*
X10109762Y-15047476D01*
X10071667Y-15047476D01*
X10052619Y-15037952D01*
X10043095Y-15018905D01*
X10043095Y-14942714D01*
X10052619Y-14923667D01*
X10071667Y-14914143D01*
X10109762Y-14914143D01*
X10128810Y-14923667D01*
X10138333Y-14942714D01*
X10138333Y-14961762D01*
X10043095Y-14980809D01*
X10214524Y-15037952D02*
X10233571Y-15047476D01*
X10271667Y-15047476D01*
X10290714Y-15037952D01*
X10300238Y-15018905D01*
X10300238Y-15009381D01*
X10290714Y-14990333D01*
X10271667Y-14980809D01*
X10243095Y-14980809D01*
X10224048Y-14971286D01*
X10214524Y-14952238D01*
X10214524Y-14942714D01*
X10224048Y-14923667D01*
X10243095Y-14914143D01*
X10271667Y-14914143D01*
X10290714Y-14923667D01*
X10366905Y-15123667D02*
X10376429Y-15114143D01*
X10395476Y-15085571D01*
X10405000Y-15066524D01*
X10414524Y-15037952D01*
X10424048Y-14990333D01*
X10424048Y-14952238D01*
X10414524Y-14904619D01*
X10405000Y-14876048D01*
X10395476Y-14857000D01*
X10376429Y-14828428D01*
X10366905Y-14818905D01*
M02*
