M48
; DRILL file {KiCad (6.0.7)} date Tue Oct 18 10:08:23 2022
; FORMAT={-:-/ absolute / inch / decimal}
; #@! TF.CreationDate,2022-10-18T10:08:23+03:00
; #@! TF.GenerationSoftware,Kicad,Pcbnew,(6.0.7)
; #@! TF.FileFunction,Plated,1,2,PTH
FMAT,2
INCH
; #@! TA.AperFunction,Plated,PTH,ViaDrill
T1C0.0157
; #@! TA.AperFunction,Plated,PTH,ComponentDrill
T2C0.0197
; #@! TA.AperFunction,Plated,PTH,ComponentDrill
T3C0.0315
; #@! TA.AperFunction,Plated,PTH,ComponentDrill
T4C0.0787
; #@! TA.AperFunction,Plated,PTH,ComponentDrill
T5C0.1181
%
G90
G05
T1
X2.6083Y-2.2539
X2.6083Y-2.3327
X2.6102Y-2.5551
X2.6102Y-2.628
X2.6457Y-2.6102
X2.6476Y-2.3622
X2.6476Y-2.4016
X2.7165Y-2.5098
X2.7181Y-2.7
X2.7244Y-4.7402
X2.7953Y-4.7402
X2.8081Y-2.8583
X2.8081Y-3.4094
X2.811Y-3.9606
X2.8484Y-2.4016
X2.8602Y-2.5807
X2.874Y-2.6673
X2.8868Y-2.8583
X2.8868Y-3.4094
X2.8898Y-3.9606
X2.9567Y-4.0197
X3.0807Y-2.4213
X3.1102Y-2.7181
X3.1969Y-2.7283
X3.1969Y-2.815
X3.2165Y-2.9173
X3.2717Y-2.6496
X3.3071Y-3.5276
X3.3169Y-2.4311
X3.3169Y-3.3573
X3.3563Y-2.4803
X3.3563Y-3.3278
X3.376Y-2.372
X3.3858Y-2.9331
X3.3878Y-3.5335
X3.4134Y-2.6496
X3.4252Y-2.4114
X3.435Y-3.4262
X3.4882Y-2.8543
X3.4941Y-2.7756
X3.5433Y-2.8976
X3.5531Y-2.5098
X3.5551Y-2.4252
X3.563Y-3.4055
X3.5669Y-3.4646
X3.5787Y-2.8583
X3.5827Y-3.5197
X3.6417Y-2.4252
X3.7008Y-2.4673
X3.7008Y-3.5197
X3.7087Y-2.8976
X3.7126Y-2.8425
X3.7165Y-2.622
X3.7165Y-2.9528
X3.7205Y-3.4016
X3.7205Y-3.4646
X3.7992Y-2.4213
X3.8465Y-2.622
X3.8681Y-3.4055
X3.8878Y-2.4803
X3.9567Y-2.5157
X3.9567Y-2.7283
X4.063Y-2.622
X4.0748Y-2.4764
X4.1437Y-2.313
X4.1437Y-2.4902
X4.1929Y-2.622
X4.1929Y-3.4055
X4.2028Y-3.002
X4.2126Y-2.4685
X4.2126Y-3.5197
X4.3307Y-2.4685
X4.3307Y-3.5197
X4.3386Y-3.4154
X4.3425Y-3.2795
X4.3976Y-2.4685
X4.3976Y-2.6043
X4.4331Y-3.4488
X4.4409Y-3.2835
X4.5276Y-3.378
X4.5728Y-2.2638
X4.6161Y-3.4744
X4.6457Y-2.378
X4.6555Y-3.4449
X4.7008Y-2.4173
X4.9843Y-3.1969
X4.9843Y-3.748
X4.9921Y-4.2992
X5.063Y-3.1969
X5.063Y-3.748
X5.063Y-4.2992
X5.122Y-2.378
X5.185Y-2.4252
T2
X2.313Y-2.2441
X2.313Y-4.9213
X2.3389Y-2.1815
X2.3389Y-2.3067
X2.3389Y-4.8586
X2.3389Y-4.9839
X2.4016Y-2.1555
X2.4016Y-2.3327
X2.4016Y-4.8327
X2.4016Y-5.0098
X2.4642Y-2.1815
X2.4642Y-2.3067
X2.4642Y-4.8586
X2.4642Y-4.9839
X2.4902Y-2.2441
X2.4902Y-4.9213
X5.3839Y-2.2441
X5.3839Y-4.9213
X5.4098Y-2.1815
X5.4098Y-2.3067
X5.4098Y-4.8586
X5.4098Y-4.9839
X5.4724Y-2.1555
X5.4724Y-2.3327
X5.4724Y-4.8327
X5.4724Y-5.0098
X5.5351Y-2.1815
X5.5351Y-2.3067
X5.5351Y-4.8586
X5.5351Y-4.9839
X5.561Y-2.2441
X5.561Y-4.9213
T3
X2.5961Y-2.0276
X3.1913Y-2.0276
X4.6827Y-2.0276
X5.278Y-2.0276
T4
X2.9331Y-2.1555
X2.9331Y-4.9902
X4.9409Y-2.1555
X4.9409Y-4.9902
T5
X2.4016Y-2.2441
X2.4016Y-4.9213
X5.4724Y-2.2441
X5.4724Y-4.9213
T0
M30
