%TF.GenerationSoftware,KiCad,Pcbnew,(6.0.7)*%
%TF.CreationDate,2022-10-18T10:08:22+03:00*%
%TF.ProjectId,TL-Node Rev.0,544c2d4e-6f64-4652-9052-65762e302e6b,rev?*%
%TF.SameCoordinates,Original*%
%TF.FileFunction,Drillmap*%
%TF.FilePolarity,Positive*%
%FSLAX45Y45*%
G04 Gerber Fmt 4.5, Leading zero omitted, Abs format (unit mm)*
G04 Created by KiCad (PCBNEW (6.0.7)) date 2022-10-18 10:08:22*
%MOMM*%
%LPD*%
G01*
G04 APERTURE LIST*
%ADD10C,0.100000*%
%ADD11C,0.200000*%
%ADD12C,0.090000*%
%ADD13C,0.320000*%
G04 APERTURE END LIST*
D10*
X5600000Y-12950000D02*
G75*
G03*
X5850000Y-13200000I250000J0D01*
G01*
X14150000Y-6400000D02*
G75*
G03*
X14400000Y-6150000I0J250000D01*
G01*
X14400000Y-5250000D02*
G75*
G03*
X14150000Y-5000000I-250000J0D01*
G01*
X6450000Y-6650000D02*
X6450000Y-11550000D01*
X14150000Y-13200000D02*
X11550000Y-13200000D01*
X9250000Y-5468934D02*
X9250000Y-5000000D01*
X13550000Y-11550000D02*
X13550000Y-6650000D01*
X5850000Y-11800000D02*
G75*
G03*
X5600000Y-12050000I0J-250000D01*
G01*
X6200000Y-11800000D02*
G75*
G03*
X6450000Y-11550000I0J250000D01*
G01*
X14150000Y-5000000D02*
X10850000Y-5000000D01*
X5850000Y-6400000D02*
X6200000Y-6400000D01*
X8450000Y-9500000D02*
X8450000Y-13200000D01*
X5600000Y-6150000D02*
G75*
G03*
X5850000Y-6400000I250000J0D01*
G01*
X8700000Y-9250000D02*
G75*
G03*
X8450000Y-9500000I0J-250000D01*
G01*
X11550000Y-9500000D02*
G75*
G03*
X11300000Y-9250000I-250000J0D01*
G01*
X14400000Y-12950000D02*
X14400000Y-12050000D01*
X14400000Y-12050000D02*
G75*
G03*
X14150000Y-11800000I-250000J0D01*
G01*
X14400000Y-5250000D02*
X14400000Y-6150000D01*
X5600000Y-12050000D02*
X5600000Y-12950000D01*
X5850000Y-13200000D02*
X8450000Y-13200000D01*
X6450000Y-6650000D02*
G75*
G03*
X6200000Y-6400000I-250000J0D01*
G01*
X9249996Y-5468934D02*
G75*
G03*
X9400000Y-5618934I150004J4D01*
G01*
X11550000Y-9500000D02*
X11550000Y-13200000D01*
X14150000Y-11800000D02*
X13800000Y-11800000D01*
X13800000Y-6400000D02*
G75*
G03*
X13550000Y-6650000I0J-250000D01*
G01*
X13550000Y-11550000D02*
G75*
G03*
X13800000Y-11800000I250000J0D01*
G01*
X5850000Y-5000000D02*
G75*
G03*
X5600000Y-5250000I0J-250000D01*
G01*
X11300000Y-9250000D02*
X8700000Y-9250000D01*
X13800000Y-6400000D02*
X14150000Y-6400000D01*
X5600000Y-5250000D02*
X5600000Y-6150000D01*
X10850000Y-5468934D02*
X10850000Y-5000000D01*
X6200000Y-11800000D02*
X5850000Y-11800000D01*
X5850000Y-5000000D02*
X9250000Y-5000000D01*
X14150000Y-13200000D02*
G75*
G03*
X14400000Y-12950000I0J250000D01*
G01*
X10700000Y-5618930D02*
G75*
G03*
X10850000Y-5468934I0J150000D01*
G01*
X10700000Y-5618934D02*
X9400000Y-5618934D01*
D11*
D12*
X11872000Y-11605000D02*
X11962000Y-11695000D01*
X11962000Y-11605000D02*
X11872000Y-11695000D01*
X11872000Y-11905000D02*
X11962000Y-11995000D01*
X11962000Y-11905000D02*
X11872000Y-11995000D01*
D13*
X7610000Y-6249500D02*
G75*
G03*
X7610000Y-6249500I-160000J0D01*
G01*
X7610000Y-11810500D02*
G75*
G03*
X7610000Y-11810500I-160000J0D01*
G01*
X12710000Y-6249500D02*
G75*
G03*
X12710000Y-6249500I-160000J0D01*
G01*
X12710000Y-11810500D02*
G75*
G03*
X12710000Y-11810500I-160000J0D01*
G01*
D11*
X5852619Y-13515476D02*
X5852619Y-13315476D01*
X5900238Y-13315476D01*
X5928809Y-13325000D01*
X5947857Y-13344048D01*
X5957381Y-13363095D01*
X5966905Y-13401190D01*
X5966905Y-13429762D01*
X5957381Y-13467857D01*
X5947857Y-13486905D01*
X5928809Y-13505952D01*
X5900238Y-13515476D01*
X5852619Y-13515476D01*
X6052619Y-13515476D02*
X6052619Y-13382143D01*
X6052619Y-13420238D02*
X6062143Y-13401190D01*
X6071667Y-13391667D01*
X6090714Y-13382143D01*
X6109762Y-13382143D01*
X6176428Y-13515476D02*
X6176428Y-13382143D01*
X6176428Y-13315476D02*
X6166905Y-13325000D01*
X6176428Y-13334524D01*
X6185952Y-13325000D01*
X6176428Y-13315476D01*
X6176428Y-13334524D01*
X6300238Y-13515476D02*
X6281190Y-13505952D01*
X6271667Y-13486905D01*
X6271667Y-13315476D01*
X6405000Y-13515476D02*
X6385952Y-13505952D01*
X6376428Y-13486905D01*
X6376428Y-13315476D01*
X6633571Y-13515476D02*
X6633571Y-13315476D01*
X6700238Y-13458333D01*
X6766905Y-13315476D01*
X6766905Y-13515476D01*
X6947857Y-13515476D02*
X6947857Y-13410714D01*
X6938333Y-13391667D01*
X6919286Y-13382143D01*
X6881190Y-13382143D01*
X6862143Y-13391667D01*
X6947857Y-13505952D02*
X6928809Y-13515476D01*
X6881190Y-13515476D01*
X6862143Y-13505952D01*
X6852619Y-13486905D01*
X6852619Y-13467857D01*
X6862143Y-13448809D01*
X6881190Y-13439286D01*
X6928809Y-13439286D01*
X6947857Y-13429762D01*
X7043095Y-13382143D02*
X7043095Y-13582143D01*
X7043095Y-13391667D02*
X7062143Y-13382143D01*
X7100238Y-13382143D01*
X7119286Y-13391667D01*
X7128809Y-13401190D01*
X7138333Y-13420238D01*
X7138333Y-13477381D01*
X7128809Y-13496428D01*
X7119286Y-13505952D01*
X7100238Y-13515476D01*
X7062143Y-13515476D01*
X7043095Y-13505952D01*
X7224048Y-13496428D02*
X7233571Y-13505952D01*
X7224048Y-13515476D01*
X7214524Y-13505952D01*
X7224048Y-13496428D01*
X7224048Y-13515476D01*
X7224048Y-13391667D02*
X7233571Y-13401190D01*
X7224048Y-13410714D01*
X7214524Y-13401190D01*
X7224048Y-13391667D01*
X7224048Y-13410714D01*
D12*
X5505000Y-13800000D02*
X5595000Y-13890000D01*
X5595000Y-13800000D02*
X5505000Y-13890000D01*
D11*
X5890714Y-13735476D02*
X5909762Y-13735476D01*
X5928809Y-13745000D01*
X5938333Y-13754524D01*
X5947857Y-13773571D01*
X5957381Y-13811667D01*
X5957381Y-13859286D01*
X5947857Y-13897381D01*
X5938333Y-13916428D01*
X5928809Y-13925952D01*
X5909762Y-13935476D01*
X5890714Y-13935476D01*
X5871667Y-13925952D01*
X5862143Y-13916428D01*
X5852619Y-13897381D01*
X5843095Y-13859286D01*
X5843095Y-13811667D01*
X5852619Y-13773571D01*
X5862143Y-13754524D01*
X5871667Y-13745000D01*
X5890714Y-13735476D01*
X6043095Y-13916428D02*
X6052619Y-13925952D01*
X6043095Y-13935476D01*
X6033571Y-13925952D01*
X6043095Y-13916428D01*
X6043095Y-13935476D01*
X6147857Y-13935476D02*
X6185952Y-13935476D01*
X6205000Y-13925952D01*
X6214524Y-13916428D01*
X6233571Y-13887857D01*
X6243095Y-13849762D01*
X6243095Y-13773571D01*
X6233571Y-13754524D01*
X6224048Y-13745000D01*
X6205000Y-13735476D01*
X6166905Y-13735476D01*
X6147857Y-13745000D01*
X6138333Y-13754524D01*
X6128809Y-13773571D01*
X6128809Y-13821190D01*
X6138333Y-13840238D01*
X6147857Y-13849762D01*
X6166905Y-13859286D01*
X6205000Y-13859286D01*
X6224048Y-13849762D01*
X6233571Y-13840238D01*
X6243095Y-13821190D01*
X6366905Y-13735476D02*
X6385952Y-13735476D01*
X6405000Y-13745000D01*
X6414524Y-13754524D01*
X6424048Y-13773571D01*
X6433571Y-13811667D01*
X6433571Y-13859286D01*
X6424048Y-13897381D01*
X6414524Y-13916428D01*
X6405000Y-13925952D01*
X6385952Y-13935476D01*
X6366905Y-13935476D01*
X6347857Y-13925952D01*
X6338333Y-13916428D01*
X6328809Y-13897381D01*
X6319286Y-13859286D01*
X6319286Y-13811667D01*
X6328809Y-13773571D01*
X6338333Y-13754524D01*
X6347857Y-13745000D01*
X6366905Y-13735476D01*
X6557381Y-13735476D02*
X6576428Y-13735476D01*
X6595476Y-13745000D01*
X6605000Y-13754524D01*
X6614524Y-13773571D01*
X6624048Y-13811667D01*
X6624048Y-13859286D01*
X6614524Y-13897381D01*
X6605000Y-13916428D01*
X6595476Y-13925952D01*
X6576428Y-13935476D01*
X6557381Y-13935476D01*
X6538333Y-13925952D01*
X6528809Y-13916428D01*
X6519286Y-13897381D01*
X6509762Y-13859286D01*
X6509762Y-13811667D01*
X6519286Y-13773571D01*
X6528809Y-13754524D01*
X6538333Y-13745000D01*
X6557381Y-13735476D01*
X6709762Y-13935476D02*
X6709762Y-13802143D01*
X6709762Y-13821190D02*
X6719286Y-13811667D01*
X6738333Y-13802143D01*
X6766905Y-13802143D01*
X6785952Y-13811667D01*
X6795476Y-13830714D01*
X6795476Y-13935476D01*
X6795476Y-13830714D02*
X6805000Y-13811667D01*
X6824048Y-13802143D01*
X6852619Y-13802143D01*
X6871667Y-13811667D01*
X6881190Y-13830714D01*
X6881190Y-13935476D01*
X6976428Y-13935476D02*
X6976428Y-13802143D01*
X6976428Y-13821190D02*
X6985952Y-13811667D01*
X7005000Y-13802143D01*
X7033571Y-13802143D01*
X7052619Y-13811667D01*
X7062143Y-13830714D01*
X7062143Y-13935476D01*
X7062143Y-13830714D02*
X7071667Y-13811667D01*
X7090714Y-13802143D01*
X7119286Y-13802143D01*
X7138333Y-13811667D01*
X7147857Y-13830714D01*
X7147857Y-13935476D01*
X7538333Y-13725952D02*
X7366905Y-13983095D01*
X7795476Y-13735476D02*
X7814524Y-13735476D01*
X7833571Y-13745000D01*
X7843095Y-13754524D01*
X7852619Y-13773571D01*
X7862143Y-13811667D01*
X7862143Y-13859286D01*
X7852619Y-13897381D01*
X7843095Y-13916428D01*
X7833571Y-13925952D01*
X7814524Y-13935476D01*
X7795476Y-13935476D01*
X7776428Y-13925952D01*
X7766905Y-13916428D01*
X7757381Y-13897381D01*
X7747857Y-13859286D01*
X7747857Y-13811667D01*
X7757381Y-13773571D01*
X7766905Y-13754524D01*
X7776428Y-13745000D01*
X7795476Y-13735476D01*
X7947857Y-13916428D02*
X7957381Y-13925952D01*
X7947857Y-13935476D01*
X7938333Y-13925952D01*
X7947857Y-13916428D01*
X7947857Y-13935476D01*
X8081190Y-13735476D02*
X8100238Y-13735476D01*
X8119286Y-13745000D01*
X8128809Y-13754524D01*
X8138333Y-13773571D01*
X8147857Y-13811667D01*
X8147857Y-13859286D01*
X8138333Y-13897381D01*
X8128809Y-13916428D01*
X8119286Y-13925952D01*
X8100238Y-13935476D01*
X8081190Y-13935476D01*
X8062143Y-13925952D01*
X8052619Y-13916428D01*
X8043095Y-13897381D01*
X8033571Y-13859286D01*
X8033571Y-13811667D01*
X8043095Y-13773571D01*
X8052619Y-13754524D01*
X8062143Y-13745000D01*
X8081190Y-13735476D01*
X8214524Y-13735476D02*
X8338333Y-13735476D01*
X8271667Y-13811667D01*
X8300238Y-13811667D01*
X8319286Y-13821190D01*
X8328809Y-13830714D01*
X8338333Y-13849762D01*
X8338333Y-13897381D01*
X8328809Y-13916428D01*
X8319286Y-13925952D01*
X8300238Y-13935476D01*
X8243095Y-13935476D01*
X8224048Y-13925952D01*
X8214524Y-13916428D01*
X8519286Y-13735476D02*
X8424048Y-13735476D01*
X8414524Y-13830714D01*
X8424048Y-13821190D01*
X8443095Y-13811667D01*
X8490714Y-13811667D01*
X8509762Y-13821190D01*
X8519286Y-13830714D01*
X8528810Y-13849762D01*
X8528810Y-13897381D01*
X8519286Y-13916428D01*
X8509762Y-13925952D01*
X8490714Y-13935476D01*
X8443095Y-13935476D01*
X8424048Y-13925952D01*
X8414524Y-13916428D01*
X8700238Y-13802143D02*
X8700238Y-13935476D01*
X8652619Y-13725952D02*
X8605000Y-13868809D01*
X8728810Y-13868809D01*
X8795476Y-13735476D02*
X8795476Y-13773571D01*
X8871667Y-13735476D02*
X8871667Y-13773571D01*
X9166905Y-14011667D02*
X9157381Y-14002143D01*
X9138333Y-13973571D01*
X9128810Y-13954524D01*
X9119286Y-13925952D01*
X9109762Y-13878333D01*
X9109762Y-13840238D01*
X9119286Y-13792619D01*
X9128810Y-13764048D01*
X9138333Y-13745000D01*
X9157381Y-13716428D01*
X9166905Y-13706905D01*
X9233571Y-13754524D02*
X9243095Y-13745000D01*
X9262143Y-13735476D01*
X9309762Y-13735476D01*
X9328810Y-13745000D01*
X9338333Y-13754524D01*
X9347857Y-13773571D01*
X9347857Y-13792619D01*
X9338333Y-13821190D01*
X9224048Y-13935476D01*
X9347857Y-13935476D01*
X9585952Y-13935476D02*
X9585952Y-13735476D01*
X9671667Y-13935476D02*
X9671667Y-13830714D01*
X9662143Y-13811667D01*
X9643095Y-13802143D01*
X9614524Y-13802143D01*
X9595476Y-13811667D01*
X9585952Y-13821190D01*
X9795476Y-13935476D02*
X9776429Y-13925952D01*
X9766905Y-13916428D01*
X9757381Y-13897381D01*
X9757381Y-13840238D01*
X9766905Y-13821190D01*
X9776429Y-13811667D01*
X9795476Y-13802143D01*
X9824048Y-13802143D01*
X9843095Y-13811667D01*
X9852619Y-13821190D01*
X9862143Y-13840238D01*
X9862143Y-13897381D01*
X9852619Y-13916428D01*
X9843095Y-13925952D01*
X9824048Y-13935476D01*
X9795476Y-13935476D01*
X9976429Y-13935476D02*
X9957381Y-13925952D01*
X9947857Y-13906905D01*
X9947857Y-13735476D01*
X10128810Y-13925952D02*
X10109762Y-13935476D01*
X10071667Y-13935476D01*
X10052619Y-13925952D01*
X10043095Y-13906905D01*
X10043095Y-13830714D01*
X10052619Y-13811667D01*
X10071667Y-13802143D01*
X10109762Y-13802143D01*
X10128810Y-13811667D01*
X10138333Y-13830714D01*
X10138333Y-13849762D01*
X10043095Y-13868809D01*
X10214524Y-13925952D02*
X10233571Y-13935476D01*
X10271667Y-13935476D01*
X10290714Y-13925952D01*
X10300238Y-13906905D01*
X10300238Y-13897381D01*
X10290714Y-13878333D01*
X10271667Y-13868809D01*
X10243095Y-13868809D01*
X10224048Y-13859286D01*
X10214524Y-13840238D01*
X10214524Y-13830714D01*
X10224048Y-13811667D01*
X10243095Y-13802143D01*
X10271667Y-13802143D01*
X10290714Y-13811667D01*
X10366905Y-14011667D02*
X10376429Y-14002143D01*
X10395476Y-13973571D01*
X10405000Y-13954524D01*
X10414524Y-13925952D01*
X10424048Y-13878333D01*
X10424048Y-13840238D01*
X10414524Y-13792619D01*
X10405000Y-13764048D01*
X10395476Y-13745000D01*
X10376429Y-13716428D01*
X10366905Y-13706905D01*
X10728810Y-14011667D02*
X10719286Y-14002143D01*
X10700238Y-13973571D01*
X10690714Y-13954524D01*
X10681190Y-13925952D01*
X10671667Y-13878333D01*
X10671667Y-13840238D01*
X10681190Y-13792619D01*
X10690714Y-13764048D01*
X10700238Y-13745000D01*
X10719286Y-13716428D01*
X10728810Y-13706905D01*
X10805000Y-13802143D02*
X10805000Y-13935476D01*
X10805000Y-13821190D02*
X10814524Y-13811667D01*
X10833571Y-13802143D01*
X10862143Y-13802143D01*
X10881190Y-13811667D01*
X10890714Y-13830714D01*
X10890714Y-13935476D01*
X11014524Y-13935476D02*
X10995476Y-13925952D01*
X10985952Y-13916428D01*
X10976429Y-13897381D01*
X10976429Y-13840238D01*
X10985952Y-13821190D01*
X10995476Y-13811667D01*
X11014524Y-13802143D01*
X11043095Y-13802143D01*
X11062143Y-13811667D01*
X11071667Y-13821190D01*
X11081190Y-13840238D01*
X11081190Y-13897381D01*
X11071667Y-13916428D01*
X11062143Y-13925952D01*
X11043095Y-13935476D01*
X11014524Y-13935476D01*
X11138333Y-13802143D02*
X11214524Y-13802143D01*
X11166905Y-13735476D02*
X11166905Y-13906905D01*
X11176429Y-13925952D01*
X11195476Y-13935476D01*
X11214524Y-13935476D01*
X11433571Y-13802143D02*
X11433571Y-14002143D01*
X11433571Y-13811667D02*
X11452619Y-13802143D01*
X11490714Y-13802143D01*
X11509762Y-13811667D01*
X11519286Y-13821190D01*
X11528809Y-13840238D01*
X11528809Y-13897381D01*
X11519286Y-13916428D01*
X11509762Y-13925952D01*
X11490714Y-13935476D01*
X11452619Y-13935476D01*
X11433571Y-13925952D01*
X11643095Y-13935476D02*
X11624048Y-13925952D01*
X11614524Y-13906905D01*
X11614524Y-13735476D01*
X11805000Y-13935476D02*
X11805000Y-13830714D01*
X11795476Y-13811667D01*
X11776428Y-13802143D01*
X11738333Y-13802143D01*
X11719286Y-13811667D01*
X11805000Y-13925952D02*
X11785952Y-13935476D01*
X11738333Y-13935476D01*
X11719286Y-13925952D01*
X11709762Y-13906905D01*
X11709762Y-13887857D01*
X11719286Y-13868809D01*
X11738333Y-13859286D01*
X11785952Y-13859286D01*
X11805000Y-13849762D01*
X11871667Y-13802143D02*
X11947857Y-13802143D01*
X11900238Y-13735476D02*
X11900238Y-13906905D01*
X11909762Y-13925952D01*
X11928809Y-13935476D01*
X11947857Y-13935476D01*
X12090714Y-13925952D02*
X12071667Y-13935476D01*
X12033571Y-13935476D01*
X12014524Y-13925952D01*
X12005000Y-13906905D01*
X12005000Y-13830714D01*
X12014524Y-13811667D01*
X12033571Y-13802143D01*
X12071667Y-13802143D01*
X12090714Y-13811667D01*
X12100238Y-13830714D01*
X12100238Y-13849762D01*
X12005000Y-13868809D01*
X12271667Y-13935476D02*
X12271667Y-13735476D01*
X12271667Y-13925952D02*
X12252619Y-13935476D01*
X12214524Y-13935476D01*
X12195476Y-13925952D01*
X12185952Y-13916428D01*
X12176428Y-13897381D01*
X12176428Y-13840238D01*
X12185952Y-13821190D01*
X12195476Y-13811667D01*
X12214524Y-13802143D01*
X12252619Y-13802143D01*
X12271667Y-13811667D01*
X12347857Y-14011667D02*
X12357381Y-14002143D01*
X12376428Y-13973571D01*
X12385952Y-13954524D01*
X12395476Y-13925952D01*
X12405000Y-13878333D01*
X12405000Y-13840238D01*
X12395476Y-13792619D01*
X12385952Y-13764048D01*
X12376428Y-13745000D01*
X12357381Y-13716428D01*
X12347857Y-13706905D01*
X5595000Y-14109000D02*
G75*
G03*
X5595000Y-14109000I-100000J0D01*
G01*
X5833571Y-13999476D02*
X5957381Y-13999476D01*
X5890714Y-14075667D01*
X5919286Y-14075667D01*
X5938333Y-14085190D01*
X5947857Y-14094714D01*
X5957381Y-14113762D01*
X5957381Y-14161381D01*
X5947857Y-14180428D01*
X5938333Y-14189952D01*
X5919286Y-14199476D01*
X5862143Y-14199476D01*
X5843095Y-14189952D01*
X5833571Y-14180428D01*
X6043095Y-14180428D02*
X6052619Y-14189952D01*
X6043095Y-14199476D01*
X6033571Y-14189952D01*
X6043095Y-14180428D01*
X6043095Y-14199476D01*
X6128809Y-14018524D02*
X6138333Y-14009000D01*
X6157381Y-13999476D01*
X6205000Y-13999476D01*
X6224048Y-14009000D01*
X6233571Y-14018524D01*
X6243095Y-14037571D01*
X6243095Y-14056619D01*
X6233571Y-14085190D01*
X6119286Y-14199476D01*
X6243095Y-14199476D01*
X6366905Y-13999476D02*
X6385952Y-13999476D01*
X6405000Y-14009000D01*
X6414524Y-14018524D01*
X6424048Y-14037571D01*
X6433571Y-14075667D01*
X6433571Y-14123286D01*
X6424048Y-14161381D01*
X6414524Y-14180428D01*
X6405000Y-14189952D01*
X6385952Y-14199476D01*
X6366905Y-14199476D01*
X6347857Y-14189952D01*
X6338333Y-14180428D01*
X6328809Y-14161381D01*
X6319286Y-14123286D01*
X6319286Y-14075667D01*
X6328809Y-14037571D01*
X6338333Y-14018524D01*
X6347857Y-14009000D01*
X6366905Y-13999476D01*
X6557381Y-13999476D02*
X6576428Y-13999476D01*
X6595476Y-14009000D01*
X6605000Y-14018524D01*
X6614524Y-14037571D01*
X6624048Y-14075667D01*
X6624048Y-14123286D01*
X6614524Y-14161381D01*
X6605000Y-14180428D01*
X6595476Y-14189952D01*
X6576428Y-14199476D01*
X6557381Y-14199476D01*
X6538333Y-14189952D01*
X6528809Y-14180428D01*
X6519286Y-14161381D01*
X6509762Y-14123286D01*
X6509762Y-14075667D01*
X6519286Y-14037571D01*
X6528809Y-14018524D01*
X6538333Y-14009000D01*
X6557381Y-13999476D01*
X6709762Y-14199476D02*
X6709762Y-14066143D01*
X6709762Y-14085190D02*
X6719286Y-14075667D01*
X6738333Y-14066143D01*
X6766905Y-14066143D01*
X6785952Y-14075667D01*
X6795476Y-14094714D01*
X6795476Y-14199476D01*
X6795476Y-14094714D02*
X6805000Y-14075667D01*
X6824048Y-14066143D01*
X6852619Y-14066143D01*
X6871667Y-14075667D01*
X6881190Y-14094714D01*
X6881190Y-14199476D01*
X6976428Y-14199476D02*
X6976428Y-14066143D01*
X6976428Y-14085190D02*
X6985952Y-14075667D01*
X7005000Y-14066143D01*
X7033571Y-14066143D01*
X7052619Y-14075667D01*
X7062143Y-14094714D01*
X7062143Y-14199476D01*
X7062143Y-14094714D02*
X7071667Y-14075667D01*
X7090714Y-14066143D01*
X7119286Y-14066143D01*
X7138333Y-14075667D01*
X7147857Y-14094714D01*
X7147857Y-14199476D01*
X7538333Y-13989952D02*
X7366905Y-14247095D01*
X7795476Y-13999476D02*
X7814524Y-13999476D01*
X7833571Y-14009000D01*
X7843095Y-14018524D01*
X7852619Y-14037571D01*
X7862143Y-14075667D01*
X7862143Y-14123286D01*
X7852619Y-14161381D01*
X7843095Y-14180428D01*
X7833571Y-14189952D01*
X7814524Y-14199476D01*
X7795476Y-14199476D01*
X7776428Y-14189952D01*
X7766905Y-14180428D01*
X7757381Y-14161381D01*
X7747857Y-14123286D01*
X7747857Y-14075667D01*
X7757381Y-14037571D01*
X7766905Y-14018524D01*
X7776428Y-14009000D01*
X7795476Y-13999476D01*
X7947857Y-14180428D02*
X7957381Y-14189952D01*
X7947857Y-14199476D01*
X7938333Y-14189952D01*
X7947857Y-14180428D01*
X7947857Y-14199476D01*
X8147857Y-14199476D02*
X8033571Y-14199476D01*
X8090714Y-14199476D02*
X8090714Y-13999476D01*
X8071667Y-14028048D01*
X8052619Y-14047095D01*
X8033571Y-14056619D01*
X8224048Y-14018524D02*
X8233571Y-14009000D01*
X8252619Y-13999476D01*
X8300238Y-13999476D01*
X8319286Y-14009000D01*
X8328809Y-14018524D01*
X8338333Y-14037571D01*
X8338333Y-14056619D01*
X8328809Y-14085190D01*
X8214524Y-14199476D01*
X8338333Y-14199476D01*
X8509762Y-13999476D02*
X8471667Y-13999476D01*
X8452619Y-14009000D01*
X8443095Y-14018524D01*
X8424048Y-14047095D01*
X8414524Y-14085190D01*
X8414524Y-14161381D01*
X8424048Y-14180428D01*
X8433571Y-14189952D01*
X8452619Y-14199476D01*
X8490714Y-14199476D01*
X8509762Y-14189952D01*
X8519286Y-14180428D01*
X8528810Y-14161381D01*
X8528810Y-14113762D01*
X8519286Y-14094714D01*
X8509762Y-14085190D01*
X8490714Y-14075667D01*
X8452619Y-14075667D01*
X8433571Y-14085190D01*
X8424048Y-14094714D01*
X8414524Y-14113762D01*
X8652619Y-13999476D02*
X8671667Y-13999476D01*
X8690714Y-14009000D01*
X8700238Y-14018524D01*
X8709762Y-14037571D01*
X8719286Y-14075667D01*
X8719286Y-14123286D01*
X8709762Y-14161381D01*
X8700238Y-14180428D01*
X8690714Y-14189952D01*
X8671667Y-14199476D01*
X8652619Y-14199476D01*
X8633571Y-14189952D01*
X8624048Y-14180428D01*
X8614524Y-14161381D01*
X8605000Y-14123286D01*
X8605000Y-14075667D01*
X8614524Y-14037571D01*
X8624048Y-14018524D01*
X8633571Y-14009000D01*
X8652619Y-13999476D01*
X8795476Y-13999476D02*
X8795476Y-14037571D01*
X8871667Y-13999476D02*
X8871667Y-14037571D01*
X9166905Y-14275667D02*
X9157381Y-14266143D01*
X9138333Y-14237571D01*
X9128810Y-14218524D01*
X9119286Y-14189952D01*
X9109762Y-14142333D01*
X9109762Y-14104238D01*
X9119286Y-14056619D01*
X9128810Y-14028048D01*
X9138333Y-14009000D01*
X9157381Y-13980428D01*
X9166905Y-13970905D01*
X9328810Y-14066143D02*
X9328810Y-14199476D01*
X9281190Y-13989952D02*
X9233571Y-14132809D01*
X9357381Y-14132809D01*
X9585952Y-14199476D02*
X9585952Y-13999476D01*
X9671667Y-14199476D02*
X9671667Y-14094714D01*
X9662143Y-14075667D01*
X9643095Y-14066143D01*
X9614524Y-14066143D01*
X9595476Y-14075667D01*
X9585952Y-14085190D01*
X9795476Y-14199476D02*
X9776429Y-14189952D01*
X9766905Y-14180428D01*
X9757381Y-14161381D01*
X9757381Y-14104238D01*
X9766905Y-14085190D01*
X9776429Y-14075667D01*
X9795476Y-14066143D01*
X9824048Y-14066143D01*
X9843095Y-14075667D01*
X9852619Y-14085190D01*
X9862143Y-14104238D01*
X9862143Y-14161381D01*
X9852619Y-14180428D01*
X9843095Y-14189952D01*
X9824048Y-14199476D01*
X9795476Y-14199476D01*
X9976429Y-14199476D02*
X9957381Y-14189952D01*
X9947857Y-14170905D01*
X9947857Y-13999476D01*
X10128810Y-14189952D02*
X10109762Y-14199476D01*
X10071667Y-14199476D01*
X10052619Y-14189952D01*
X10043095Y-14170905D01*
X10043095Y-14094714D01*
X10052619Y-14075667D01*
X10071667Y-14066143D01*
X10109762Y-14066143D01*
X10128810Y-14075667D01*
X10138333Y-14094714D01*
X10138333Y-14113762D01*
X10043095Y-14132809D01*
X10214524Y-14189952D02*
X10233571Y-14199476D01*
X10271667Y-14199476D01*
X10290714Y-14189952D01*
X10300238Y-14170905D01*
X10300238Y-14161381D01*
X10290714Y-14142333D01*
X10271667Y-14132809D01*
X10243095Y-14132809D01*
X10224048Y-14123286D01*
X10214524Y-14104238D01*
X10214524Y-14094714D01*
X10224048Y-14075667D01*
X10243095Y-14066143D01*
X10271667Y-14066143D01*
X10290714Y-14075667D01*
X10366905Y-14275667D02*
X10376429Y-14266143D01*
X10395476Y-14237571D01*
X10405000Y-14218524D01*
X10414524Y-14189952D01*
X10424048Y-14142333D01*
X10424048Y-14104238D01*
X10414524Y-14056619D01*
X10405000Y-14028048D01*
X10395476Y-14009000D01*
X10376429Y-13980428D01*
X10366905Y-13970905D01*
X10728810Y-14275667D02*
X10719286Y-14266143D01*
X10700238Y-14237571D01*
X10690714Y-14218524D01*
X10681190Y-14189952D01*
X10671667Y-14142333D01*
X10671667Y-14104238D01*
X10681190Y-14056619D01*
X10690714Y-14028048D01*
X10700238Y-14009000D01*
X10719286Y-13980428D01*
X10728810Y-13970905D01*
X10805000Y-14066143D02*
X10805000Y-14199476D01*
X10805000Y-14085190D02*
X10814524Y-14075667D01*
X10833571Y-14066143D01*
X10862143Y-14066143D01*
X10881190Y-14075667D01*
X10890714Y-14094714D01*
X10890714Y-14199476D01*
X11014524Y-14199476D02*
X10995476Y-14189952D01*
X10985952Y-14180428D01*
X10976429Y-14161381D01*
X10976429Y-14104238D01*
X10985952Y-14085190D01*
X10995476Y-14075667D01*
X11014524Y-14066143D01*
X11043095Y-14066143D01*
X11062143Y-14075667D01*
X11071667Y-14085190D01*
X11081190Y-14104238D01*
X11081190Y-14161381D01*
X11071667Y-14180428D01*
X11062143Y-14189952D01*
X11043095Y-14199476D01*
X11014524Y-14199476D01*
X11138333Y-14066143D02*
X11214524Y-14066143D01*
X11166905Y-13999476D02*
X11166905Y-14170905D01*
X11176429Y-14189952D01*
X11195476Y-14199476D01*
X11214524Y-14199476D01*
X11433571Y-14066143D02*
X11433571Y-14266143D01*
X11433571Y-14075667D02*
X11452619Y-14066143D01*
X11490714Y-14066143D01*
X11509762Y-14075667D01*
X11519286Y-14085190D01*
X11528809Y-14104238D01*
X11528809Y-14161381D01*
X11519286Y-14180428D01*
X11509762Y-14189952D01*
X11490714Y-14199476D01*
X11452619Y-14199476D01*
X11433571Y-14189952D01*
X11643095Y-14199476D02*
X11624048Y-14189952D01*
X11614524Y-14170905D01*
X11614524Y-13999476D01*
X11805000Y-14199476D02*
X11805000Y-14094714D01*
X11795476Y-14075667D01*
X11776428Y-14066143D01*
X11738333Y-14066143D01*
X11719286Y-14075667D01*
X11805000Y-14189952D02*
X11785952Y-14199476D01*
X11738333Y-14199476D01*
X11719286Y-14189952D01*
X11709762Y-14170905D01*
X11709762Y-14151857D01*
X11719286Y-14132809D01*
X11738333Y-14123286D01*
X11785952Y-14123286D01*
X11805000Y-14113762D01*
X11871667Y-14066143D02*
X11947857Y-14066143D01*
X11900238Y-13999476D02*
X11900238Y-14170905D01*
X11909762Y-14189952D01*
X11928809Y-14199476D01*
X11947857Y-14199476D01*
X12090714Y-14189952D02*
X12071667Y-14199476D01*
X12033571Y-14199476D01*
X12014524Y-14189952D01*
X12005000Y-14170905D01*
X12005000Y-14094714D01*
X12014524Y-14075667D01*
X12033571Y-14066143D01*
X12071667Y-14066143D01*
X12090714Y-14075667D01*
X12100238Y-14094714D01*
X12100238Y-14113762D01*
X12005000Y-14132809D01*
X12271667Y-14199476D02*
X12271667Y-13999476D01*
X12271667Y-14189952D02*
X12252619Y-14199476D01*
X12214524Y-14199476D01*
X12195476Y-14189952D01*
X12185952Y-14180428D01*
X12176428Y-14161381D01*
X12176428Y-14104238D01*
X12185952Y-14085190D01*
X12195476Y-14075667D01*
X12214524Y-14066143D01*
X12252619Y-14066143D01*
X12271667Y-14075667D01*
X12347857Y-14275667D02*
X12357381Y-14266143D01*
X12376428Y-14237571D01*
X12385952Y-14218524D01*
X12395476Y-14189952D01*
X12405000Y-14142333D01*
X12405000Y-14104238D01*
X12395476Y-14056619D01*
X12385952Y-14028048D01*
X12376428Y-14009000D01*
X12357381Y-13980428D01*
X12347857Y-13970905D01*
M02*
