%TF.GenerationSoftware,KiCad,Pcbnew,(6.0.7)*%
%TF.CreationDate,2022-10-18T10:08:25+03:00*%
%TF.ProjectId,TL-Node Rev.0,544c2d4e-6f64-4652-9052-65762e302e6b,rev?*%
%TF.SameCoordinates,Original*%
%TF.FileFunction,Soldermask,Bot*%
%TF.FilePolarity,Negative*%
%FSLAX46Y46*%
G04 Gerber Fmt 4.6, Leading zero omitted, Abs format (unit mm)*
G04 Created by KiCad (PCBNEW (6.0.7)) date 2022-10-18 10:08:25*
%MOMM*%
%LPD*%
G01*
G04 APERTURE LIST*
%ADD10C,0.800000*%
%ADD11C,6.000000*%
%ADD12R,2.000000X2.000000*%
%ADD13C,0.900000*%
%ADD14C,3.200000*%
%ADD15R,3.500000X3.500000*%
%ADD16C,3.500000*%
G04 APERTURE END LIST*
D10*
%TO.C,H2*%
X137409010Y-58590990D03*
X141250000Y-57000000D03*
X140590990Y-58590990D03*
D11*
X139000000Y-57000000D03*
D10*
X139000000Y-59250000D03*
X139000000Y-54750000D03*
X140590990Y-55409010D03*
X137409010Y-55409010D03*
X136750000Y-57000000D03*
%TD*%
D11*
%TO.C,H1*%
X61000000Y-57000000D03*
D10*
X59409010Y-58590990D03*
X62590990Y-58590990D03*
X58750000Y-57000000D03*
X59409010Y-55409010D03*
X62590990Y-55409010D03*
X61000000Y-54750000D03*
X63250000Y-57000000D03*
X61000000Y-59250000D03*
%TD*%
%TO.C,H4*%
X140590990Y-123409010D03*
X140590990Y-126590990D03*
X139000000Y-122750000D03*
X136750000Y-125000000D03*
X139000000Y-127250000D03*
X137409010Y-126590990D03*
X137409010Y-123409010D03*
D11*
X139000000Y-125000000D03*
D10*
X141250000Y-125000000D03*
%TD*%
D12*
%TO.C,SW3*%
X134060000Y-51500000D03*
X118940000Y-51500000D03*
%TD*%
D10*
%TO.C,H3*%
X63250000Y-125000000D03*
X62590990Y-123409010D03*
X59409010Y-123409010D03*
X62590990Y-126590990D03*
X61000000Y-122750000D03*
X58750000Y-125000000D03*
X61000000Y-127250000D03*
X59409010Y-126590990D03*
D11*
X61000000Y-125000000D03*
%TD*%
D12*
%TO.C,SW2*%
X81060000Y-51500000D03*
X65940000Y-51500000D03*
%TD*%
D13*
%TO.C,SW1*%
X119170000Y-116500000D03*
X119170000Y-119500000D03*
%TD*%
D14*
%TO.C,BT1*%
X74500000Y-118105000D03*
X74500000Y-62495000D03*
D15*
X74500000Y-126750000D03*
D16*
X74500000Y-54750000D03*
%TD*%
D14*
%TO.C,BT2*%
X125500000Y-118105000D03*
X125500000Y-62495000D03*
D15*
X125500000Y-126750000D03*
D16*
X125500000Y-54750000D03*
%TD*%
M02*
